<mxfile modified="2021-01-07T07:54:55.109Z" host="app.diagrams.net" agent="5.0 (X11; Linux x86_64) AppleWebKit/537.36 (KHTML, like Gecko) Chrome/77.0.3865.90 Safari/537.36" etag="KbGPasN4XxnyhZYlDmAl" version="14.0.5" type="github" pages="8">
  <diagram id="GeZSIojBDvsr7RiwyZ7Q" name="数据包格式">
    <mxGraphModel dx="1373" dy="774" grid="1" gridSize="10" guides="1" tooltips="1" connect="1" arrows="1" fold="1" page="1" pageScale="1" pageWidth="850" pageHeight="1100" math="0" shadow="0">
      <root>
        <mxCell id="0" />
        <mxCell id="1" parent="0" />
        <mxCell id="aSprgF7iiEHb2ji2Usg5-1" value="head/10B" style="rounded=0;whiteSpace=wrap;html=1;" parent="1" vertex="1">
          <mxGeometry x="200" y="310" width="120" height="60" as="geometry" />
        </mxCell>
        <mxCell id="aSprgF7iiEHb2ji2Usg5-2" value="2B" style="rounded=0;whiteSpace=wrap;html=1;" parent="1" vertex="1">
          <mxGeometry x="320" y="310" width="120" height="60" as="geometry" />
        </mxCell>
        <mxCell id="aSprgF7iiEHb2ji2Usg5-3" value="result_left" style="rounded=0;whiteSpace=wrap;html=1;" parent="1" vertex="1">
          <mxGeometry x="440" y="310" width="120" height="60" as="geometry" />
        </mxCell>
        <mxCell id="aSprgF7iiEHb2ji2Usg5-4" value="result_right" style="rounded=0;whiteSpace=wrap;html=1;" parent="1" vertex="1">
          <mxGeometry x="560" y="310" width="120" height="60" as="geometry" />
        </mxCell>
        <mxCell id="aSprgF7iiEHb2ji2Usg5-6" value="max_result/5B" style="rounded=0;whiteSpace=wrap;html=1;" parent="1" vertex="1">
          <mxGeometry x="200" y="470" width="120" height="60" as="geometry" />
        </mxCell>
        <mxCell id="aSprgF7iiEHb2ji2Usg5-7" value="row_max_result/5B" style="rounded=0;whiteSpace=wrap;html=1;" parent="1" vertex="1">
          <mxGeometry x="320" y="470" width="120" height="60" as="geometry" />
        </mxCell>
        <mxCell id="aSprgF7iiEHb2ji2Usg5-8" value="col_max_result/5B" style="rounded=0;whiteSpace=wrap;html=1;" parent="1" vertex="1">
          <mxGeometry x="440" y="470" width="120" height="60" as="geometry" />
        </mxCell>
        <mxCell id="aSprgF7iiEHb2ji2Usg5-9" value="diagnol_score/2B" style="rounded=0;whiteSpace=wrap;html=1;" parent="1" vertex="1">
          <mxGeometry x="560" y="470" width="120" height="60" as="geometry" />
        </mxCell>
        <mxCell id="aSprgF7iiEHb2ji2Usg5-10" value="max_result/2B" style="rounded=0;whiteSpace=wrap;html=1;" parent="1" vertex="1">
          <mxGeometry x="200" y="600" width="120" height="60" as="geometry" />
        </mxCell>
        <mxCell id="aSprgF7iiEHb2ji2Usg5-11" value="hap_cnt/2B" style="rounded=0;whiteSpace=wrap;html=1;" parent="1" vertex="1">
          <mxGeometry x="320" y="600" width="120" height="60" as="geometry" />
        </mxCell>
        <mxCell id="aSprgF7iiEHb2ji2Usg5-12" value="read_cnt/1B" style="rounded=0;whiteSpace=wrap;html=1;" parent="1" vertex="1">
          <mxGeometry x="440" y="600" width="120" height="60" as="geometry" />
        </mxCell>
        <mxCell id="aSprgF7iiEHb2ji2Usg5-13" value="5B" style="text;html=1;strokeColor=none;fillColor=none;align=center;verticalAlign=middle;whiteSpace=wrap;rounded=0;" parent="1" vertex="1">
          <mxGeometry x="120" y="620" width="40" height="20" as="geometry" />
        </mxCell>
        <mxCell id="aSprgF7iiEHb2ji2Usg5-14" value="17B/136bit" style="text;html=1;resizable=0;points=[];autosize=1;align=left;verticalAlign=top;spacingTop=-4;" parent="1" vertex="1">
          <mxGeometry x="122" y="494" width="90" height="20" as="geometry" />
        </mxCell>
        <mxCell id="aSprgF7iiEHb2ji2Usg5-15" value="48B" style="text;html=1;resizable=0;points=[];autosize=1;align=left;verticalAlign=top;spacingTop=-4;" parent="1" vertex="1">
          <mxGeometry x="207" y="390" width="40" height="20" as="geometry" />
        </mxCell>
        <mxCell id="aSprgF7iiEHb2ji2Usg5-16" value="zero/18B" style="rounded=0;whiteSpace=wrap;html=1;" parent="1" vertex="1">
          <mxGeometry x="80" y="310" width="120" height="60" as="geometry" />
        </mxCell>
      </root>
    </mxGraphModel>
  </diagram>
  <diagram id="YS6rN-AenGKfB8X7fZZe" name="PE">
    <mxGraphModel dx="3915" dy="4856" grid="1" gridSize="10" guides="1" tooltips="1" connect="1" arrows="1" fold="1" page="1" pageScale="1" pageWidth="1169" pageHeight="1654" math="0" shadow="0">
      <root>
        <mxCell id="_OPWvbS_Ypv0JFXV-TA6-0" />
        <mxCell id="_OPWvbS_Ypv0JFXV-TA6-1" parent="_OPWvbS_Ypv0JFXV-TA6-0" />
        <mxCell id="wQbSGYJbpUOdjl0NNNIN-0" style="edgeStyle=orthogonalEdgeStyle;rounded=0;orthogonalLoop=1;jettySize=auto;html=1;exitX=1;exitY=0.5;exitDx=0;exitDy=0;" edge="1" parent="_OPWvbS_Ypv0JFXV-TA6-1" source="wQbSGYJbpUOdjl0NNNIN-1">
          <mxGeometry relative="1" as="geometry">
            <mxPoint x="-37.5" y="-1784.3333333333333" as="targetPoint" />
          </mxGeometry>
        </mxCell>
        <mxCell id="wQbSGYJbpUOdjl0NNNIN-1" value="SEQ_CMP" style="rounded=0;whiteSpace=wrap;html=1;fillColor=#dae8fc;strokeColor=#6c8ebf;" vertex="1" parent="_OPWvbS_Ypv0JFXV-TA6-1">
          <mxGeometry x="-158.5" y="-1839" width="60" height="110" as="geometry" />
        </mxCell>
        <mxCell id="wQbSGYJbpUOdjl0NNNIN-2" style="edgeStyle=orthogonalEdgeStyle;rounded=0;orthogonalLoop=1;jettySize=auto;html=1;exitX=1;exitY=0.5;exitDx=0;exitDy=0;" edge="1" parent="_OPWvbS_Ypv0JFXV-TA6-1" source="wQbSGYJbpUOdjl0NNNIN-3">
          <mxGeometry relative="1" as="geometry">
            <mxPoint x="248.5" y="-1785" as="targetPoint" />
          </mxGeometry>
        </mxCell>
        <mxCell id="wQbSGYJbpUOdjl0NNNIN-3" value="CMP" style="rounded=0;whiteSpace=wrap;html=1;fillColor=#ffe6cc;strokeColor=#d79b00;" vertex="1" parent="_OPWvbS_Ypv0JFXV-TA6-1">
          <mxGeometry x="123" y="-1840" width="60" height="110" as="geometry" />
        </mxCell>
        <mxCell id="wQbSGYJbpUOdjl0NNNIN-4" style="edgeStyle=orthogonalEdgeStyle;rounded=0;orthogonalLoop=1;jettySize=auto;html=1;exitX=1;exitY=0.5;exitDx=0;exitDy=0;" edge="1" parent="_OPWvbS_Ypv0JFXV-TA6-1" source="wQbSGYJbpUOdjl0NNNIN-5">
          <mxGeometry relative="1" as="geometry">
            <mxPoint x="458.5" y="-1785" as="targetPoint" />
          </mxGeometry>
        </mxCell>
        <mxCell id="wQbSGYJbpUOdjl0NNNIN-5" value="ADD" style="rounded=0;whiteSpace=wrap;html=1;fillColor=#f8cecc;strokeColor=#b85450;" vertex="1" parent="_OPWvbS_Ypv0JFXV-TA6-1">
          <mxGeometry x="338" y="-1840" width="60" height="110" as="geometry" />
        </mxCell>
        <mxCell id="wQbSGYJbpUOdjl0NNNIN-6" value="t_seq" style="text;html=1;resizable=0;points=[];autosize=1;align=left;verticalAlign=top;spacingTop=-4;" vertex="1" parent="_OPWvbS_Ypv0JFXV-TA6-1">
          <mxGeometry x="-219" y="-1779" width="40" height="20" as="geometry" />
        </mxCell>
        <mxCell id="wQbSGYJbpUOdjl0NNNIN-7" value="" style="endArrow=classic;html=1;entryX=0;entryY=0.75;entryDx=0;entryDy=0;" edge="1" parent="_OPWvbS_Ypv0JFXV-TA6-1" target="wQbSGYJbpUOdjl0NNNIN-1">
          <mxGeometry width="50" height="50" relative="1" as="geometry">
            <mxPoint x="-228.5" y="-1757" as="sourcePoint" />
            <mxPoint x="-248.5" y="-1759" as="targetPoint" />
          </mxGeometry>
        </mxCell>
        <mxCell id="wQbSGYJbpUOdjl0NNNIN-8" value="" style="endArrow=classic;html=1;entryX=0;entryY=0.25;entryDx=0;entryDy=0;" edge="1" parent="_OPWvbS_Ypv0JFXV-TA6-1" target="wQbSGYJbpUOdjl0NNNIN-1">
          <mxGeometry width="50" height="50" relative="1" as="geometry">
            <mxPoint x="-228.5" y="-1812" as="sourcePoint" />
            <mxPoint x="-248.5" y="-1859" as="targetPoint" />
          </mxGeometry>
        </mxCell>
        <mxCell id="wQbSGYJbpUOdjl0NNNIN-9" value="r_seq" style="text;html=1;resizable=0;points=[];autosize=1;align=left;verticalAlign=top;spacingTop=-4;" vertex="1" parent="_OPWvbS_Ypv0JFXV-TA6-1">
          <mxGeometry x="-219" y="-1831" width="50" height="20" as="geometry" />
        </mxCell>
        <mxCell id="wQbSGYJbpUOdjl0NNNIN-10" value="s(i,j)" style="text;html=1;resizable=0;points=[];autosize=1;align=left;verticalAlign=top;spacingTop=-4;" vertex="1" parent="_OPWvbS_Ypv0JFXV-TA6-1">
          <mxGeometry x="-87.5" y="-1805" width="40" height="20" as="geometry" />
        </mxCell>
        <mxCell id="wQbSGYJbpUOdjl0NNNIN-11" value="" style="endArrow=classic;html=1;entryX=0;entryY=0.25;entryDx=0;entryDy=0;" edge="1" parent="_OPWvbS_Ypv0JFXV-TA6-1" target="wQbSGYJbpUOdjl0NNNIN-3">
          <mxGeometry width="50" height="50" relative="1" as="geometry">
            <mxPoint x="43" y="-1813" as="sourcePoint" />
            <mxPoint x="63" y="-1840" as="targetPoint" />
          </mxGeometry>
        </mxCell>
        <mxCell id="wQbSGYJbpUOdjl0NNNIN-12" value="A" style="text;html=1;resizable=0;points=[];autosize=1;align=left;verticalAlign=top;spacingTop=-4;" vertex="1" parent="_OPWvbS_Ypv0JFXV-TA6-1">
          <mxGeometry x="65" y="-1831" width="20" height="20" as="geometry" />
        </mxCell>
        <mxCell id="wQbSGYJbpUOdjl0NNNIN-13" value="" style="endArrow=classic;html=1;entryX=0;entryY=0.25;entryDx=0;entryDy=0;" edge="1" parent="_OPWvbS_Ypv0JFXV-TA6-1">
          <mxGeometry width="50" height="50" relative="1" as="geometry">
            <mxPoint x="43.5" y="-1752" as="sourcePoint" />
            <mxPoint x="123.16666666666697" y="-1751.6666666666665" as="targetPoint" />
          </mxGeometry>
        </mxCell>
        <mxCell id="wQbSGYJbpUOdjl0NNNIN-14" value="B" style="text;html=1;resizable=0;points=[];autosize=1;align=left;verticalAlign=top;spacingTop=-4;" vertex="1" parent="_OPWvbS_Ypv0JFXV-TA6-1">
          <mxGeometry x="65.5" y="-1770" width="20" height="20" as="geometry" />
        </mxCell>
        <mxCell id="wQbSGYJbpUOdjl0NNNIN-15" value="max(A,B)" style="text;html=1;resizable=0;points=[];autosize=1;align=left;verticalAlign=top;spacingTop=-4;" vertex="1" parent="_OPWvbS_Ypv0JFXV-TA6-1">
          <mxGeometry x="183" y="-1811" width="70" height="20" as="geometry" />
        </mxCell>
        <mxCell id="wQbSGYJbpUOdjl0NNNIN-16" value="" style="endArrow=classic;html=1;entryX=0;entryY=0.25;entryDx=0;entryDy=0;" edge="1" parent="_OPWvbS_Ypv0JFXV-TA6-1">
          <mxGeometry width="50" height="50" relative="1" as="geometry">
            <mxPoint x="260.5" y="-1812.5" as="sourcePoint" />
            <mxPoint x="340.16666666666697" y="-1812.1666666666665" as="targetPoint" />
          </mxGeometry>
        </mxCell>
        <mxCell id="wQbSGYJbpUOdjl0NNNIN-17" value="A" style="text;html=1;resizable=0;points=[];autosize=1;align=left;verticalAlign=top;spacingTop=-4;" vertex="1" parent="_OPWvbS_Ypv0JFXV-TA6-1">
          <mxGeometry x="290" y="-1831" width="20" height="20" as="geometry" />
        </mxCell>
        <mxCell id="wQbSGYJbpUOdjl0NNNIN-18" value="" style="endArrow=classic;html=1;entryX=0;entryY=0.25;entryDx=0;entryDy=0;" edge="1" parent="_OPWvbS_Ypv0JFXV-TA6-1">
          <mxGeometry width="50" height="50" relative="1" as="geometry">
            <mxPoint x="258.5" y="-1750.5" as="sourcePoint" />
            <mxPoint x="338.16666666666697" y="-1750.1666666666665" as="targetPoint" />
          </mxGeometry>
        </mxCell>
        <mxCell id="wQbSGYJbpUOdjl0NNNIN-19" value="B" style="text;html=1;resizable=0;points=[];autosize=1;align=left;verticalAlign=top;spacingTop=-4;" vertex="1" parent="_OPWvbS_Ypv0JFXV-TA6-1">
          <mxGeometry x="290" y="-1771" width="20" height="20" as="geometry" />
        </mxCell>
        <mxCell id="wQbSGYJbpUOdjl0NNNIN-20" value="A+B" style="text;html=1;resizable=0;points=[];autosize=1;align=left;verticalAlign=top;spacingTop=-4;" vertex="1" parent="_OPWvbS_Ypv0JFXV-TA6-1">
          <mxGeometry x="408.5" y="-1805" width="40" height="20" as="geometry" />
        </mxCell>
        <mxCell id="wQbSGYJbpUOdjl0NNNIN-21" style="edgeStyle=orthogonalEdgeStyle;rounded=0;orthogonalLoop=1;jettySize=auto;html=1;exitX=1;exitY=0.5;exitDx=0;exitDy=0;" edge="1" parent="_OPWvbS_Ypv0JFXV-TA6-1" source="wQbSGYJbpUOdjl0NNNIN-22">
          <mxGeometry relative="1" as="geometry">
            <mxPoint x="688.5" y="-1779" as="targetPoint" />
          </mxGeometry>
        </mxCell>
        <mxCell id="wQbSGYJbpUOdjl0NNNIN-22" value="SUB" style="rounded=0;whiteSpace=wrap;html=1;fillColor=#d5e8d4;strokeColor=#82b366;" vertex="1" parent="_OPWvbS_Ypv0JFXV-TA6-1">
          <mxGeometry x="568" y="-1834" width="60" height="110" as="geometry" />
        </mxCell>
        <mxCell id="wQbSGYJbpUOdjl0NNNIN-23" value="" style="endArrow=classic;html=1;entryX=0;entryY=0.25;entryDx=0;entryDy=0;" edge="1" parent="_OPWvbS_Ypv0JFXV-TA6-1">
          <mxGeometry width="50" height="50" relative="1" as="geometry">
            <mxPoint x="490.5" y="-1806.5" as="sourcePoint" />
            <mxPoint x="570.166666666667" y="-1806.1666666666665" as="targetPoint" />
          </mxGeometry>
        </mxCell>
        <mxCell id="wQbSGYJbpUOdjl0NNNIN-24" value="A" style="text;html=1;resizable=0;points=[];autosize=1;align=left;verticalAlign=top;spacingTop=-4;" vertex="1" parent="_OPWvbS_Ypv0JFXV-TA6-1">
          <mxGeometry x="520" y="-1825" width="20" height="20" as="geometry" />
        </mxCell>
        <mxCell id="wQbSGYJbpUOdjl0NNNIN-25" value="" style="endArrow=classic;html=1;entryX=0;entryY=0.25;entryDx=0;entryDy=0;" edge="1" parent="_OPWvbS_Ypv0JFXV-TA6-1">
          <mxGeometry width="50" height="50" relative="1" as="geometry">
            <mxPoint x="488.5" y="-1744.5" as="sourcePoint" />
            <mxPoint x="568.166666666667" y="-1744.1666666666665" as="targetPoint" />
          </mxGeometry>
        </mxCell>
        <mxCell id="wQbSGYJbpUOdjl0NNNIN-26" value="B" style="text;html=1;resizable=0;points=[];autosize=1;align=left;verticalAlign=top;spacingTop=-4;" vertex="1" parent="_OPWvbS_Ypv0JFXV-TA6-1">
          <mxGeometry x="520" y="-1765" width="20" height="20" as="geometry" />
        </mxCell>
        <mxCell id="wQbSGYJbpUOdjl0NNNIN-27" value="A+B" style="text;html=1;resizable=0;points=[];autosize=1;align=left;verticalAlign=top;spacingTop=-4;" vertex="1" parent="_OPWvbS_Ypv0JFXV-TA6-1">
          <mxGeometry x="638.5" y="-1799" width="40" height="20" as="geometry" />
        </mxCell>
        <mxCell id="wQbSGYJbpUOdjl0NNNIN-28" style="edgeStyle=orthogonalEdgeStyle;rounded=0;orthogonalLoop=1;jettySize=auto;html=1;exitX=1;exitY=0.5;exitDx=0;exitDy=0;entryX=0;entryY=0.25;entryDx=0;entryDy=0;" edge="1" parent="_OPWvbS_Ypv0JFXV-TA6-1" source="wQbSGYJbpUOdjl0NNNIN-31" target="wQbSGYJbpUOdjl0NNNIN-132">
          <mxGeometry relative="1" as="geometry" />
        </mxCell>
        <mxCell id="wQbSGYJbpUOdjl0NNNIN-29" style="edgeStyle=orthogonalEdgeStyle;rounded=0;orthogonalLoop=1;jettySize=auto;html=1;exitX=1;exitY=0.5;exitDx=0;exitDy=0;entryX=0;entryY=0.25;entryDx=0;entryDy=0;" edge="1" parent="_OPWvbS_Ypv0JFXV-TA6-1" source="wQbSGYJbpUOdjl0NNNIN-31" target="wQbSGYJbpUOdjl0NNNIN-60">
          <mxGeometry relative="1" as="geometry" />
        </mxCell>
        <mxCell id="wQbSGYJbpUOdjl0NNNIN-30" style="edgeStyle=orthogonalEdgeStyle;rounded=0;orthogonalLoop=1;jettySize=auto;html=1;exitX=1;exitY=0.5;exitDx=0;exitDy=0;entryX=-0.007;entryY=0.312;entryDx=0;entryDy=0;entryPerimeter=0;" edge="1" parent="_OPWvbS_Ypv0JFXV-TA6-1" source="wQbSGYJbpUOdjl0NNNIN-31" target="wQbSGYJbpUOdjl0NNNIN-65">
          <mxGeometry relative="1" as="geometry">
            <Array as="points">
              <mxPoint x="190" y="-1369" />
              <mxPoint x="190" y="-842" />
            </Array>
          </mxGeometry>
        </mxCell>
        <mxCell id="wQbSGYJbpUOdjl0NNNIN-31" value="ADD" style="rounded=0;whiteSpace=wrap;html=1;fillColor=#f8cecc;strokeColor=#b85450;" vertex="1" parent="_OPWvbS_Ypv0JFXV-TA6-1">
          <mxGeometry x="80" y="-1424" width="91" height="110" as="geometry" />
        </mxCell>
        <mxCell id="wQbSGYJbpUOdjl0NNNIN-32" style="edgeStyle=orthogonalEdgeStyle;rounded=0;orthogonalLoop=1;jettySize=auto;html=1;exitX=1;exitY=0.5;exitDx=0;exitDy=0;entryX=0;entryY=0.25;entryDx=0;entryDy=0;" edge="1" parent="_OPWvbS_Ypv0JFXV-TA6-1" source="wQbSGYJbpUOdjl0NNNIN-34" target="wQbSGYJbpUOdjl0NNNIN-31">
          <mxGeometry relative="1" as="geometry" />
        </mxCell>
        <mxCell id="wQbSGYJbpUOdjl0NNNIN-33" style="edgeStyle=orthogonalEdgeStyle;rounded=0;orthogonalLoop=1;jettySize=auto;html=1;exitX=0;exitY=0.25;exitDx=0;exitDy=0;entryX=0;entryY=0.5;entryDx=0;entryDy=0;" edge="1" parent="_OPWvbS_Ypv0JFXV-TA6-1" source="wQbSGYJbpUOdjl0NNNIN-34" target="wQbSGYJbpUOdjl0NNNIN-161">
          <mxGeometry relative="1" as="geometry">
            <mxPoint x="50" y="-1590" as="targetPoint" />
          </mxGeometry>
        </mxCell>
        <mxCell id="wQbSGYJbpUOdjl0NNNIN-34" value="SEQ_CMP" style="rounded=0;whiteSpace=wrap;html=1;fillColor=#dae8fc;strokeColor=#6c8ebf;" vertex="1" parent="_OPWvbS_Ypv0JFXV-TA6-1">
          <mxGeometry x="-32" y="-1462" width="60" height="110" as="geometry" />
        </mxCell>
        <mxCell id="wQbSGYJbpUOdjl0NNNIN-35" value="Ns" style="text;html=1;resizable=0;points=[];autosize=1;align=left;verticalAlign=top;spacingTop=-4;" vertex="1" parent="_OPWvbS_Ypv0JFXV-TA6-1">
          <mxGeometry x="-156" y="-1402" width="30" height="20" as="geometry" />
        </mxCell>
        <mxCell id="wQbSGYJbpUOdjl0NNNIN-36" value="" style="endArrow=classic;html=1;entryX=0;entryY=0.75;entryDx=0;entryDy=0;" edge="1" parent="_OPWvbS_Ypv0JFXV-TA6-1" target="wQbSGYJbpUOdjl0NNNIN-34">
          <mxGeometry width="50" height="50" relative="1" as="geometry">
            <mxPoint x="-160" y="-1379" as="sourcePoint" />
            <mxPoint x="-138.5" y="-1382" as="targetPoint" />
          </mxGeometry>
        </mxCell>
        <mxCell id="wQbSGYJbpUOdjl0NNNIN-37" value="" style="endArrow=classic;html=1;entryX=0;entryY=0.25;entryDx=0;entryDy=0;" edge="1" parent="_OPWvbS_Ypv0JFXV-TA6-1" target="wQbSGYJbpUOdjl0NNNIN-34">
          <mxGeometry width="50" height="50" relative="1" as="geometry">
            <mxPoint x="-160" y="-1434" as="sourcePoint" />
            <mxPoint x="-138.5" y="-1482" as="targetPoint" />
          </mxGeometry>
        </mxCell>
        <mxCell id="wQbSGYJbpUOdjl0NNNIN-38" value="Nr" style="text;html=1;resizable=0;points=[];autosize=1;align=left;verticalAlign=top;spacingTop=-4;" vertex="1" parent="_OPWvbS_Ypv0JFXV-TA6-1">
          <mxGeometry x="-156" y="-1454" width="30" height="20" as="geometry" />
        </mxCell>
        <mxCell id="wQbSGYJbpUOdjl0NNNIN-39" value="REG" style="rounded=0;whiteSpace=wrap;html=1;" vertex="1" parent="_OPWvbS_Ypv0JFXV-TA6-1">
          <mxGeometry x="118.5" y="-1710" width="63" height="40" as="geometry" />
        </mxCell>
        <mxCell id="wQbSGYJbpUOdjl0NNNIN-40" style="edgeStyle=orthogonalEdgeStyle;rounded=0;orthogonalLoop=1;jettySize=auto;html=1;exitX=1;exitY=0.5;exitDx=0;exitDy=0;entryX=0;entryY=0.75;entryDx=0;entryDy=0;" edge="1" parent="_OPWvbS_Ypv0JFXV-TA6-1" source="wQbSGYJbpUOdjl0NNNIN-41" target="wQbSGYJbpUOdjl0NNNIN-31">
          <mxGeometry relative="1" as="geometry" />
        </mxCell>
        <mxCell id="wQbSGYJbpUOdjl0NNNIN-41" value="REG" style="rounded=0;whiteSpace=wrap;html=1;" vertex="1" parent="_OPWvbS_Ypv0JFXV-TA6-1">
          <mxGeometry x="-33.5" y="-1314" width="63" height="40" as="geometry" />
        </mxCell>
        <mxCell id="wQbSGYJbpUOdjl0NNNIN-42" value="" style="endArrow=classic;html=1;entryX=0;entryY=0.5;entryDx=0;entryDy=0;" edge="1" parent="_OPWvbS_Ypv0JFXV-TA6-1" target="wQbSGYJbpUOdjl0NNNIN-41">
          <mxGeometry width="50" height="50" relative="1" as="geometry">
            <mxPoint x="-160" y="-1294" as="sourcePoint" />
            <mxPoint x="-148.5" y="-1304" as="targetPoint" />
          </mxGeometry>
        </mxCell>
        <mxCell id="wQbSGYJbpUOdjl0NNNIN-43" value="H(i-1, j-1)" style="text;html=1;resizable=0;points=[];autosize=1;align=left;verticalAlign=top;spacingTop=-4;" vertex="1" parent="_OPWvbS_Ypv0JFXV-TA6-1">
          <mxGeometry x="-163.5" y="-1314" width="70" height="20" as="geometry" />
        </mxCell>
        <mxCell id="wQbSGYJbpUOdjl0NNNIN-44" style="edgeStyle=orthogonalEdgeStyle;rounded=0;orthogonalLoop=1;jettySize=auto;html=1;exitX=1;exitY=0.5;exitDx=0;exitDy=0;entryX=0;entryY=0.25;entryDx=0;entryDy=0;" edge="1" parent="_OPWvbS_Ypv0JFXV-TA6-1" source="wQbSGYJbpUOdjl0NNNIN-47" target="wQbSGYJbpUOdjl0NNNIN-129">
          <mxGeometry relative="1" as="geometry" />
        </mxCell>
        <mxCell id="wQbSGYJbpUOdjl0NNNIN-45" style="edgeStyle=orthogonalEdgeStyle;rounded=0;orthogonalLoop=1;jettySize=auto;html=1;exitX=0;exitY=0.25;exitDx=0;exitDy=0;entryX=0;entryY=0.5;entryDx=0;entryDy=0;" edge="1" parent="_OPWvbS_Ypv0JFXV-TA6-1" source="wQbSGYJbpUOdjl0NNNIN-47" target="wQbSGYJbpUOdjl0NNNIN-69">
          <mxGeometry relative="1" as="geometry" />
        </mxCell>
        <mxCell id="wQbSGYJbpUOdjl0NNNIN-46" style="edgeStyle=orthogonalEdgeStyle;rounded=0;orthogonalLoop=1;jettySize=auto;html=1;exitX=0;exitY=0.75;exitDx=0;exitDy=0;entryX=0;entryY=0.5;entryDx=0;entryDy=0;" edge="1" parent="_OPWvbS_Ypv0JFXV-TA6-1" source="wQbSGYJbpUOdjl0NNNIN-47" target="wQbSGYJbpUOdjl0NNNIN-74">
          <mxGeometry relative="1" as="geometry">
            <Array as="points">
              <mxPoint x="-70" y="-1159" />
              <mxPoint x="-70" y="-580" />
            </Array>
          </mxGeometry>
        </mxCell>
        <mxCell id="wQbSGYJbpUOdjl0NNNIN-47" value="CMP" style="rounded=0;whiteSpace=wrap;html=1;fillColor=#ffe6cc;strokeColor=#d79b00;" vertex="1" parent="_OPWvbS_Ypv0JFXV-TA6-1">
          <mxGeometry x="-43.5" y="-1241" width="60" height="110" as="geometry" />
        </mxCell>
        <mxCell id="wQbSGYJbpUOdjl0NNNIN-48" value="E(i, j)" style="text;html=1;resizable=0;points=[];autosize=1;align=left;verticalAlign=top;spacingTop=-4;" vertex="1" parent="_OPWvbS_Ypv0JFXV-TA6-1">
          <mxGeometry x="-158.5" y="-1234" width="40" height="20" as="geometry" />
        </mxCell>
        <mxCell id="wQbSGYJbpUOdjl0NNNIN-49" value="" style="endArrow=classic;html=1;entryX=0;entryY=0.75;entryDx=0;entryDy=0;" edge="1" parent="_OPWvbS_Ypv0JFXV-TA6-1" target="wQbSGYJbpUOdjl0NNNIN-47">
          <mxGeometry width="50" height="50" relative="1" as="geometry">
            <mxPoint x="-160" y="-1158" as="sourcePoint" />
            <mxPoint x="-140" y="-1161" as="targetPoint" />
          </mxGeometry>
        </mxCell>
        <mxCell id="wQbSGYJbpUOdjl0NNNIN-50" value="E‘(i, j)" style="text;html=1;resizable=0;points=[];autosize=1;align=left;verticalAlign=top;spacingTop=-4;" vertex="1" parent="_OPWvbS_Ypv0JFXV-TA6-1">
          <mxGeometry x="-158.5" y="-1174" width="50" height="20" as="geometry" />
        </mxCell>
        <mxCell id="wQbSGYJbpUOdjl0NNNIN-51" style="edgeStyle=orthogonalEdgeStyle;rounded=0;orthogonalLoop=1;jettySize=auto;html=1;exitX=1;exitY=0.5;exitDx=0;exitDy=0;entryX=0;entryY=0.75;entryDx=0;entryDy=0;" edge="1" parent="_OPWvbS_Ypv0JFXV-TA6-1" source="wQbSGYJbpUOdjl0NNNIN-54" target="wQbSGYJbpUOdjl0NNNIN-129">
          <mxGeometry relative="1" as="geometry" />
        </mxCell>
        <mxCell id="wQbSGYJbpUOdjl0NNNIN-52" style="edgeStyle=orthogonalEdgeStyle;rounded=0;orthogonalLoop=1;jettySize=auto;html=1;exitX=0;exitY=0.25;exitDx=0;exitDy=0;entryX=0;entryY=0.5;entryDx=0;entryDy=0;" edge="1" parent="_OPWvbS_Ypv0JFXV-TA6-1" source="wQbSGYJbpUOdjl0NNNIN-54" target="wQbSGYJbpUOdjl0NNNIN-85">
          <mxGeometry relative="1" as="geometry">
            <Array as="points">
              <mxPoint x="-79" y="-1073" />
              <mxPoint x="-79" y="-438" />
            </Array>
          </mxGeometry>
        </mxCell>
        <mxCell id="wQbSGYJbpUOdjl0NNNIN-53" style="edgeStyle=orthogonalEdgeStyle;rounded=0;orthogonalLoop=1;jettySize=auto;html=1;exitX=0;exitY=0.75;exitDx=0;exitDy=0;entryX=0;entryY=0.5;entryDx=0;entryDy=0;" edge="1" parent="_OPWvbS_Ypv0JFXV-TA6-1" source="wQbSGYJbpUOdjl0NNNIN-54" target="wQbSGYJbpUOdjl0NNNIN-91">
          <mxGeometry relative="1" as="geometry">
            <Array as="points">
              <mxPoint x="-99" y="-1019" />
              <mxPoint x="-99" y="-307" />
            </Array>
          </mxGeometry>
        </mxCell>
        <mxCell id="wQbSGYJbpUOdjl0NNNIN-54" value="CMP" style="rounded=0;whiteSpace=wrap;html=1;fillColor=#ffe6cc;strokeColor=#d79b00;" vertex="1" parent="_OPWvbS_Ypv0JFXV-TA6-1">
          <mxGeometry x="-43.5" y="-1101" width="60" height="110" as="geometry" />
        </mxCell>
        <mxCell id="wQbSGYJbpUOdjl0NNNIN-55" value="F(i, j)" style="text;html=1;resizable=0;points=[];autosize=1;align=left;verticalAlign=top;spacingTop=-4;" vertex="1" parent="_OPWvbS_Ypv0JFXV-TA6-1">
          <mxGeometry x="-168.5" y="-1091" width="40" height="20" as="geometry" />
        </mxCell>
        <mxCell id="wQbSGYJbpUOdjl0NNNIN-56" value="" style="endArrow=classic;html=1;entryX=0;entryY=0.75;entryDx=0;entryDy=0;" edge="1" parent="_OPWvbS_Ypv0JFXV-TA6-1" target="wQbSGYJbpUOdjl0NNNIN-54">
          <mxGeometry width="50" height="50" relative="1" as="geometry">
            <mxPoint x="-160" y="-1019" as="sourcePoint" />
            <mxPoint x="-143.5" y="-1021" as="targetPoint" />
          </mxGeometry>
        </mxCell>
        <mxCell id="wQbSGYJbpUOdjl0NNNIN-57" value="F‘(i, j)" style="text;html=1;resizable=0;points=[];autosize=1;align=left;verticalAlign=top;spacingTop=-4;" vertex="1" parent="_OPWvbS_Ypv0JFXV-TA6-1">
          <mxGeometry x="-157.5" y="-1035" width="50" height="20" as="geometry" />
        </mxCell>
        <mxCell id="wQbSGYJbpUOdjl0NNNIN-58" style="edgeStyle=orthogonalEdgeStyle;rounded=0;orthogonalLoop=1;jettySize=auto;html=1;exitX=1;exitY=0.5;exitDx=0;exitDy=0;entryX=0;entryY=0.25;entryDx=0;entryDy=0;" edge="1" parent="_OPWvbS_Ypv0JFXV-TA6-1" source="wQbSGYJbpUOdjl0NNNIN-60" target="wQbSGYJbpUOdjl0NNNIN-80">
          <mxGeometry relative="1" as="geometry" />
        </mxCell>
        <mxCell id="wQbSGYJbpUOdjl0NNNIN-59" style="edgeStyle=orthogonalEdgeStyle;rounded=0;orthogonalLoop=1;jettySize=auto;html=1;exitX=1;exitY=0.5;exitDx=0;exitDy=0;entryX=0;entryY=0.25;entryDx=0;entryDy=0;" edge="1" parent="_OPWvbS_Ypv0JFXV-TA6-1" source="wQbSGYJbpUOdjl0NNNIN-60" target="wQbSGYJbpUOdjl0NNNIN-99">
          <mxGeometry relative="1" as="geometry" />
        </mxCell>
        <mxCell id="wQbSGYJbpUOdjl0NNNIN-60" value="SUB" style="rounded=0;whiteSpace=wrap;html=1;fillColor=#d5e8d4;strokeColor=#82b366;" vertex="1" parent="_OPWvbS_Ypv0JFXV-TA6-1">
          <mxGeometry x="215.5" y="-1010" width="99" height="110" as="geometry" />
        </mxCell>
        <mxCell id="wQbSGYJbpUOdjl0NNNIN-61" value="" style="endArrow=classic;html=1;entryX=0;entryY=0.75;entryDx=0;entryDy=0;" edge="1" parent="_OPWvbS_Ypv0JFXV-TA6-1" target="wQbSGYJbpUOdjl0NNNIN-60">
          <mxGeometry width="50" height="50" relative="1" as="geometry">
            <mxPoint x="128.5" y="-928" as="sourcePoint" />
            <mxPoint x="48.5" y="-856" as="targetPoint" />
          </mxGeometry>
        </mxCell>
        <mxCell id="wQbSGYJbpUOdjl0NNNIN-62" value="q1 + e1" style="text;html=1;resizable=0;points=[];autosize=1;align=left;verticalAlign=top;spacingTop=-4;" vertex="1" parent="_OPWvbS_Ypv0JFXV-TA6-1">
          <mxGeometry x="168" y="-946" width="60" height="20" as="geometry" />
        </mxCell>
        <mxCell id="wQbSGYJbpUOdjl0NNNIN-63" style="edgeStyle=orthogonalEdgeStyle;rounded=0;orthogonalLoop=1;jettySize=auto;html=1;entryX=0;entryY=0.25;entryDx=0;entryDy=0;" edge="1" parent="_OPWvbS_Ypv0JFXV-TA6-1" source="wQbSGYJbpUOdjl0NNNIN-65" target="wQbSGYJbpUOdjl0NNNIN-101">
          <mxGeometry relative="1" as="geometry">
            <Array as="points">
              <mxPoint x="341.5" y="-821.5" />
              <mxPoint x="341.5" y="-353.5" />
            </Array>
          </mxGeometry>
        </mxCell>
        <mxCell id="wQbSGYJbpUOdjl0NNNIN-64" style="edgeStyle=orthogonalEdgeStyle;rounded=0;orthogonalLoop=1;jettySize=auto;html=1;exitX=1;exitY=0.5;exitDx=0;exitDy=0;entryX=0;entryY=0.25;entryDx=0;entryDy=0;" edge="1" parent="_OPWvbS_Ypv0JFXV-TA6-1" source="wQbSGYJbpUOdjl0NNNIN-65" target="wQbSGYJbpUOdjl0NNNIN-82">
          <mxGeometry relative="1" as="geometry" />
        </mxCell>
        <mxCell id="wQbSGYJbpUOdjl0NNNIN-65" value="SUB" style="rounded=0;whiteSpace=wrap;html=1;fillColor=#d5e8d4;strokeColor=#82b366;" vertex="1" parent="_OPWvbS_Ypv0JFXV-TA6-1">
          <mxGeometry x="218.5" y="-876.5" width="96" height="110" as="geometry" />
        </mxCell>
        <mxCell id="wQbSGYJbpUOdjl0NNNIN-66" value="" style="endArrow=classic;html=1;entryX=-0.011;entryY=0.817;entryDx=0;entryDy=0;entryPerimeter=0;" edge="1" parent="_OPWvbS_Ypv0JFXV-TA6-1" target="wQbSGYJbpUOdjl0NNNIN-65">
          <mxGeometry width="50" height="50" relative="1" as="geometry">
            <mxPoint x="119.5" y="-785.5" as="sourcePoint" />
            <mxPoint x="221.5" y="-786.5" as="targetPoint" />
          </mxGeometry>
        </mxCell>
        <mxCell id="wQbSGYJbpUOdjl0NNNIN-67" value="q2 + e2&lt;br&gt;" style="text;html=1;resizable=0;points=[];autosize=1;align=left;verticalAlign=top;spacingTop=-4;" vertex="1" parent="_OPWvbS_Ypv0JFXV-TA6-1">
          <mxGeometry x="163" y="-806.5" width="60" height="20" as="geometry" />
        </mxCell>
        <mxCell id="wQbSGYJbpUOdjl0NNNIN-68" style="edgeStyle=orthogonalEdgeStyle;rounded=0;orthogonalLoop=1;jettySize=auto;html=1;exitX=1;exitY=0.5;exitDx=0;exitDy=0;entryX=0;entryY=0.5;entryDx=0;entryDy=0;" edge="1" parent="_OPWvbS_Ypv0JFXV-TA6-1" source="wQbSGYJbpUOdjl0NNNIN-69" target="wQbSGYJbpUOdjl0NNNIN-113">
          <mxGeometry relative="1" as="geometry" />
        </mxCell>
        <mxCell id="wQbSGYJbpUOdjl0NNNIN-69" value="REG" style="rounded=0;whiteSpace=wrap;html=1;" vertex="1" parent="_OPWvbS_Ypv0JFXV-TA6-1">
          <mxGeometry x="-40.5" y="-729.8333333333334" width="63" height="40" as="geometry" />
        </mxCell>
        <mxCell id="wQbSGYJbpUOdjl0NNNIN-70" style="edgeStyle=orthogonalEdgeStyle;rounded=0;orthogonalLoop=1;jettySize=auto;html=1;exitX=1;exitY=0.5;exitDx=0;exitDy=0;entryX=0;entryY=0.75;entryDx=0;entryDy=0;" edge="1" parent="_OPWvbS_Ypv0JFXV-TA6-1" source="wQbSGYJbpUOdjl0NNNIN-71" target="wQbSGYJbpUOdjl0NNNIN-80">
          <mxGeometry relative="1" as="geometry" />
        </mxCell>
        <mxCell id="wQbSGYJbpUOdjl0NNNIN-71" value="SUB" style="rounded=0;whiteSpace=wrap;html=1;fillColor=#d5e8d4;strokeColor=#82b366;" vertex="1" parent="_OPWvbS_Ypv0JFXV-TA6-1">
          <mxGeometry x="215.5" y="-746.5" width="91" height="110" as="geometry" />
        </mxCell>
        <mxCell id="wQbSGYJbpUOdjl0NNNIN-72" value="e1" style="text;html=1;resizable=0;points=[];autosize=1;align=left;verticalAlign=top;spacingTop=-4;" vertex="1" parent="_OPWvbS_Ypv0JFXV-TA6-1">
          <mxGeometry x="144" y="-691.5" width="30" height="20" as="geometry" />
        </mxCell>
        <mxCell id="wQbSGYJbpUOdjl0NNNIN-73" style="edgeStyle=orthogonalEdgeStyle;rounded=0;orthogonalLoop=1;jettySize=auto;html=1;exitX=1;exitY=0.5;exitDx=0;exitDy=0;entryX=0;entryY=0.5;entryDx=0;entryDy=0;" edge="1" parent="_OPWvbS_Ypv0JFXV-TA6-1" source="wQbSGYJbpUOdjl0NNNIN-74" target="wQbSGYJbpUOdjl0NNNIN-116">
          <mxGeometry relative="1" as="geometry" />
        </mxCell>
        <mxCell id="wQbSGYJbpUOdjl0NNNIN-74" value="REG" style="rounded=0;whiteSpace=wrap;html=1;" vertex="1" parent="_OPWvbS_Ypv0JFXV-TA6-1">
          <mxGeometry x="-38.5" y="-599.8333333333334" width="63" height="40" as="geometry" />
        </mxCell>
        <mxCell id="wQbSGYJbpUOdjl0NNNIN-75" style="edgeStyle=orthogonalEdgeStyle;rounded=0;orthogonalLoop=1;jettySize=auto;html=1;exitX=1;exitY=0.5;exitDx=0;exitDy=0;entryX=0;entryY=0.75;entryDx=0;entryDy=0;" edge="1" parent="_OPWvbS_Ypv0JFXV-TA6-1" source="wQbSGYJbpUOdjl0NNNIN-76" target="wQbSGYJbpUOdjl0NNNIN-82">
          <mxGeometry relative="1" as="geometry">
            <Array as="points">
              <mxPoint x="370" y="-565" />
              <mxPoint x="370" y="-694" />
            </Array>
          </mxGeometry>
        </mxCell>
        <mxCell id="wQbSGYJbpUOdjl0NNNIN-76" value="SUB" style="rounded=0;whiteSpace=wrap;html=1;fillColor=#d5e8d4;strokeColor=#82b366;" vertex="1" parent="_OPWvbS_Ypv0JFXV-TA6-1">
          <mxGeometry x="210.5" y="-620" width="96" height="110" as="geometry" />
        </mxCell>
        <mxCell id="wQbSGYJbpUOdjl0NNNIN-77" value="e2" style="text;html=1;resizable=0;points=[];autosize=1;align=left;verticalAlign=top;spacingTop=-4;" vertex="1" parent="_OPWvbS_Ypv0JFXV-TA6-1">
          <mxGeometry x="158" y="-553.5" width="30" height="20" as="geometry" />
        </mxCell>
        <mxCell id="wQbSGYJbpUOdjl0NNNIN-78" style="edgeStyle=orthogonalEdgeStyle;rounded=0;orthogonalLoop=1;jettySize=auto;html=1;exitX=1;exitY=0.5;exitDx=0;exitDy=0;entryX=0;entryY=0.5;entryDx=0;entryDy=0;" edge="1" parent="_OPWvbS_Ypv0JFXV-TA6-1" source="wQbSGYJbpUOdjl0NNNIN-80" target="wQbSGYJbpUOdjl0NNNIN-145">
          <mxGeometry relative="1" as="geometry" />
        </mxCell>
        <mxCell id="wQbSGYJbpUOdjl0NNNIN-79" style="edgeStyle=orthogonalEdgeStyle;rounded=0;orthogonalLoop=1;jettySize=auto;html=1;exitX=1;exitY=0.25;exitDx=0;exitDy=0;entryX=0;entryY=0.5;entryDx=0;entryDy=0;" edge="1" parent="_OPWvbS_Ypv0JFXV-TA6-1" source="wQbSGYJbpUOdjl0NNNIN-80" target="wQbSGYJbpUOdjl0NNNIN-155">
          <mxGeometry relative="1" as="geometry">
            <Array as="points">
              <mxPoint x="470" y="-952" />
              <mxPoint x="470" y="-1066" />
            </Array>
          </mxGeometry>
        </mxCell>
        <mxCell id="wQbSGYJbpUOdjl0NNNIN-80" value="CMP_E" style="rounded=0;whiteSpace=wrap;html=1;fillColor=#ffe6cc;strokeColor=#d79b00;" vertex="1" parent="_OPWvbS_Ypv0JFXV-TA6-1">
          <mxGeometry x="405.5" y="-980" width="60" height="110" as="geometry" />
        </mxCell>
        <mxCell id="wQbSGYJbpUOdjl0NNNIN-81" style="edgeStyle=orthogonalEdgeStyle;rounded=0;orthogonalLoop=1;jettySize=auto;html=1;exitX=1;exitY=0.5;exitDx=0;exitDy=0;entryX=0;entryY=0.5;entryDx=0;entryDy=0;" edge="1" parent="_OPWvbS_Ypv0JFXV-TA6-1" source="wQbSGYJbpUOdjl0NNNIN-82" target="wQbSGYJbpUOdjl0NNNIN-149">
          <mxGeometry relative="1" as="geometry" />
        </mxCell>
        <mxCell id="wQbSGYJbpUOdjl0NNNIN-82" value="CMP" style="rounded=0;whiteSpace=wrap;html=1;fillColor=#ffe6cc;strokeColor=#d79b00;" vertex="1" parent="_OPWvbS_Ypv0JFXV-TA6-1">
          <mxGeometry x="408.5" y="-776.5" width="60" height="110" as="geometry" />
        </mxCell>
        <mxCell id="wQbSGYJbpUOdjl0NNNIN-83" value="E(i, j+1)/7clk" style="text;html=1;resizable=0;points=[];autosize=1;align=left;verticalAlign=top;spacingTop=-4;" vertex="1" parent="_OPWvbS_Ypv0JFXV-TA6-1">
          <mxGeometry x="748.5" y="-946" width="80" height="20" as="geometry" />
        </mxCell>
        <mxCell id="wQbSGYJbpUOdjl0NNNIN-84" style="edgeStyle=orthogonalEdgeStyle;rounded=0;orthogonalLoop=1;jettySize=auto;html=1;exitX=1;exitY=0.5;exitDx=0;exitDy=0;" edge="1" parent="_OPWvbS_Ypv0JFXV-TA6-1" source="wQbSGYJbpUOdjl0NNNIN-85">
          <mxGeometry relative="1" as="geometry">
            <mxPoint x="69.99999999999955" y="-430" as="targetPoint" />
          </mxGeometry>
        </mxCell>
        <mxCell id="wQbSGYJbpUOdjl0NNNIN-85" value="REG" style="rounded=0;whiteSpace=wrap;html=1;" vertex="1" parent="_OPWvbS_Ypv0JFXV-TA6-1">
          <mxGeometry x="-47.5" y="-457.33333333333337" width="63" height="40" as="geometry" />
        </mxCell>
        <mxCell id="wQbSGYJbpUOdjl0NNNIN-86" value="" style="edgeStyle=orthogonalEdgeStyle;rounded=0;orthogonalLoop=1;jettySize=auto;html=1;" edge="1" parent="_OPWvbS_Ypv0JFXV-TA6-1">
          <mxGeometry relative="1" as="geometry">
            <mxPoint x="147" y="-437.3333333333335" as="sourcePoint" />
            <mxPoint x="220" y="-437.3333333333335" as="targetPoint" />
          </mxGeometry>
        </mxCell>
        <mxCell id="wQbSGYJbpUOdjl0NNNIN-87" style="edgeStyle=orthogonalEdgeStyle;rounded=0;orthogonalLoop=1;jettySize=auto;html=1;exitX=1;exitY=0.5;exitDx=0;exitDy=0;entryX=0;entryY=0.75;entryDx=0;entryDy=0;" edge="1" parent="_OPWvbS_Ypv0JFXV-TA6-1" source="wQbSGYJbpUOdjl0NNNIN-88" target="wQbSGYJbpUOdjl0NNNIN-99">
          <mxGeometry relative="1" as="geometry" />
        </mxCell>
        <mxCell id="wQbSGYJbpUOdjl0NNNIN-88" value="SUB" style="rounded=0;whiteSpace=wrap;html=1;fillColor=#d5e8d4;strokeColor=#82b366;" vertex="1" parent="_OPWvbS_Ypv0JFXV-TA6-1">
          <mxGeometry x="210.5" y="-473.5" width="98" height="110" as="geometry" />
        </mxCell>
        <mxCell id="wQbSGYJbpUOdjl0NNNIN-89" value="e1" style="text;html=1;resizable=0;points=[];autosize=1;align=left;verticalAlign=top;spacingTop=-4;" vertex="1" parent="_OPWvbS_Ypv0JFXV-TA6-1">
          <mxGeometry x="140" y="-410" width="30" height="20" as="geometry" />
        </mxCell>
        <mxCell id="wQbSGYJbpUOdjl0NNNIN-90" value="" style="edgeStyle=orthogonalEdgeStyle;rounded=0;orthogonalLoop=1;jettySize=auto;html=1;" edge="1" parent="_OPWvbS_Ypv0JFXV-TA6-1" source="wQbSGYJbpUOdjl0NNNIN-91">
          <mxGeometry relative="1" as="geometry">
            <mxPoint x="87" y="-307.3333333333335" as="targetPoint" />
          </mxGeometry>
        </mxCell>
        <mxCell id="wQbSGYJbpUOdjl0NNNIN-91" value="REG" style="rounded=0;whiteSpace=wrap;html=1;" vertex="1" parent="_OPWvbS_Ypv0JFXV-TA6-1">
          <mxGeometry x="-45.5" y="-327.33333333333337" width="63" height="40" as="geometry" />
        </mxCell>
        <mxCell id="wQbSGYJbpUOdjl0NNNIN-92" value="" style="edgeStyle=orthogonalEdgeStyle;rounded=0;orthogonalLoop=1;jettySize=auto;html=1;" edge="1" parent="_OPWvbS_Ypv0JFXV-TA6-1">
          <mxGeometry relative="1" as="geometry">
            <mxPoint x="150" y="-307.3333333333335" as="sourcePoint" />
            <mxPoint x="219.5" y="-307.3333333333335" as="targetPoint" />
          </mxGeometry>
        </mxCell>
        <mxCell id="wQbSGYJbpUOdjl0NNNIN-93" style="edgeStyle=orthogonalEdgeStyle;rounded=0;orthogonalLoop=1;jettySize=auto;html=1;exitX=1;exitY=0.5;exitDx=0;exitDy=0;entryX=0;entryY=0.75;entryDx=0;entryDy=0;" edge="1" parent="_OPWvbS_Ypv0JFXV-TA6-1" source="wQbSGYJbpUOdjl0NNNIN-94" target="wQbSGYJbpUOdjl0NNNIN-101">
          <mxGeometry relative="1" as="geometry" />
        </mxCell>
        <mxCell id="wQbSGYJbpUOdjl0NNNIN-94" value="SUB" style="rounded=0;whiteSpace=wrap;html=1;fillColor=#d5e8d4;strokeColor=#82b366;" vertex="1" parent="_OPWvbS_Ypv0JFXV-TA6-1">
          <mxGeometry x="214" y="-348.5" width="96" height="110" as="geometry" />
        </mxCell>
        <mxCell id="wQbSGYJbpUOdjl0NNNIN-95" value="" style="endArrow=classic;html=1;entryX=0;entryY=0.75;entryDx=0;entryDy=0;" edge="1" parent="_OPWvbS_Ypv0JFXV-TA6-1" target="wQbSGYJbpUOdjl0NNNIN-94">
          <mxGeometry width="50" height="50" relative="1" as="geometry">
            <mxPoint x="114.5" y="-267" as="sourcePoint" />
            <mxPoint x="74.5" y="-244" as="targetPoint" />
          </mxGeometry>
        </mxCell>
        <mxCell id="wQbSGYJbpUOdjl0NNNIN-96" value="e2" style="text;html=1;resizable=0;points=[];autosize=1;align=left;verticalAlign=top;spacingTop=-4;" vertex="1" parent="_OPWvbS_Ypv0JFXV-TA6-1">
          <mxGeometry x="151" y="-281" width="30" height="20" as="geometry" />
        </mxCell>
        <mxCell id="wQbSGYJbpUOdjl0NNNIN-97" style="edgeStyle=orthogonalEdgeStyle;rounded=0;orthogonalLoop=1;jettySize=auto;html=1;exitX=1;exitY=0.5;exitDx=0;exitDy=0;entryX=0;entryY=0.5;entryDx=0;entryDy=0;" edge="1" parent="_OPWvbS_Ypv0JFXV-TA6-1" source="wQbSGYJbpUOdjl0NNNIN-99" target="wQbSGYJbpUOdjl0NNNIN-151">
          <mxGeometry relative="1" as="geometry" />
        </mxCell>
        <mxCell id="wQbSGYJbpUOdjl0NNNIN-98" style="edgeStyle=orthogonalEdgeStyle;rounded=0;orthogonalLoop=1;jettySize=auto;html=1;exitX=1;exitY=0.25;exitDx=0;exitDy=0;entryX=0;entryY=0.75;entryDx=0;entryDy=0;" edge="1" parent="_OPWvbS_Ypv0JFXV-TA6-1" source="wQbSGYJbpUOdjl0NNNIN-99" target="wQbSGYJbpUOdjl0NNNIN-155">
          <mxGeometry relative="1" as="geometry" />
        </mxCell>
        <mxCell id="wQbSGYJbpUOdjl0NNNIN-99" value="CMP_F" style="rounded=0;whiteSpace=wrap;html=1;fillColor=#ffe6cc;strokeColor=#d79b00;" vertex="1" parent="_OPWvbS_Ypv0JFXV-TA6-1">
          <mxGeometry x="409" y="-520" width="60" height="110" as="geometry" />
        </mxCell>
        <mxCell id="wQbSGYJbpUOdjl0NNNIN-100" style="edgeStyle=orthogonalEdgeStyle;rounded=0;orthogonalLoop=1;jettySize=auto;html=1;exitX=1;exitY=0.5;exitDx=0;exitDy=0;" edge="1" parent="_OPWvbS_Ypv0JFXV-TA6-1" source="wQbSGYJbpUOdjl0NNNIN-101" target="wQbSGYJbpUOdjl0NNNIN-153">
          <mxGeometry relative="1" as="geometry" />
        </mxCell>
        <mxCell id="wQbSGYJbpUOdjl0NNNIN-101" value="CMP" style="rounded=0;whiteSpace=wrap;html=1;fillColor=#ffe6cc;strokeColor=#d79b00;" vertex="1" parent="_OPWvbS_Ypv0JFXV-TA6-1">
          <mxGeometry x="408.5" y="-381" width="60" height="110" as="geometry" />
        </mxCell>
        <mxCell id="wQbSGYJbpUOdjl0NNNIN-102" value="F(i+1, j)/7clk" style="text;html=1;resizable=0;points=[];autosize=1;align=left;verticalAlign=top;spacingTop=-4;" vertex="1" parent="_OPWvbS_Ypv0JFXV-TA6-1">
          <mxGeometry x="574.5" y="-495" width="80" height="20" as="geometry" />
        </mxCell>
        <mxCell id="wQbSGYJbpUOdjl0NNNIN-103" value="REG" style="rounded=0;whiteSpace=wrap;html=1;" vertex="1" parent="_OPWvbS_Ypv0JFXV-TA6-1">
          <mxGeometry x="522" y="-1281" width="40" height="40" as="geometry" />
        </mxCell>
        <mxCell id="wQbSGYJbpUOdjl0NNNIN-104" value="REG" style="rounded=0;whiteSpace=wrap;html=1;" vertex="1" parent="_OPWvbS_Ypv0JFXV-TA6-1">
          <mxGeometry x="561.5" y="-1281" width="37" height="40" as="geometry" />
        </mxCell>
        <mxCell id="wQbSGYJbpUOdjl0NNNIN-105" value="REG" style="rounded=0;whiteSpace=wrap;html=1;" vertex="1" parent="_OPWvbS_Ypv0JFXV-TA6-1">
          <mxGeometry x="598.5" y="-1281" width="40" height="40" as="geometry" />
        </mxCell>
        <mxCell id="wQbSGYJbpUOdjl0NNNIN-106" value="REG" style="rounded=0;whiteSpace=wrap;html=1;" vertex="1" parent="_OPWvbS_Ypv0JFXV-TA6-1">
          <mxGeometry x="638" y="-1281" width="37" height="40" as="geometry" />
        </mxCell>
        <mxCell id="wQbSGYJbpUOdjl0NNNIN-107" value="REG" style="rounded=0;whiteSpace=wrap;html=1;" vertex="1" parent="_OPWvbS_Ypv0JFXV-TA6-1">
          <mxGeometry x="672" y="-1281" width="40" height="40" as="geometry" />
        </mxCell>
        <mxCell id="wQbSGYJbpUOdjl0NNNIN-108" value="REG" style="rounded=0;whiteSpace=wrap;html=1;" vertex="1" parent="_OPWvbS_Ypv0JFXV-TA6-1">
          <mxGeometry x="711.5" y="-1281" width="37" height="40" as="geometry" />
        </mxCell>
        <mxCell id="wQbSGYJbpUOdjl0NNNIN-109" style="edgeStyle=orthogonalEdgeStyle;rounded=0;orthogonalLoop=1;jettySize=auto;html=1;exitX=1;exitY=0.5;exitDx=0;exitDy=0;" edge="1" parent="_OPWvbS_Ypv0JFXV-TA6-1" source="wQbSGYJbpUOdjl0NNNIN-110">
          <mxGeometry relative="1" as="geometry">
            <mxPoint x="850" y="-1261" as="targetPoint" />
          </mxGeometry>
        </mxCell>
        <mxCell id="wQbSGYJbpUOdjl0NNNIN-110" value="REG" style="rounded=0;whiteSpace=wrap;html=1;" vertex="1" parent="_OPWvbS_Ypv0JFXV-TA6-1">
          <mxGeometry x="748.5" y="-1281" width="40" height="40" as="geometry" />
        </mxCell>
        <mxCell id="wQbSGYJbpUOdjl0NNNIN-111" value="H(i+1, j+1)/14clk" style="text;html=1;resizable=0;points=[];autosize=1;align=left;verticalAlign=top;spacingTop=-4;" vertex="1" parent="_OPWvbS_Ypv0JFXV-TA6-1">
          <mxGeometry x="738.5" y="-1304" width="100" height="20" as="geometry" />
        </mxCell>
        <mxCell id="wQbSGYJbpUOdjl0NNNIN-112" value="F&#39;(i+1, j)/7clk" style="text;html=1;resizable=0;points=[];autosize=1;align=left;verticalAlign=top;spacingTop=-4;" vertex="1" parent="_OPWvbS_Ypv0JFXV-TA6-1">
          <mxGeometry x="558.5" y="-346" width="80" height="20" as="geometry" />
        </mxCell>
        <mxCell id="wQbSGYJbpUOdjl0NNNIN-113" value="REG" style="rounded=0;whiteSpace=wrap;html=1;" vertex="1" parent="_OPWvbS_Ypv0JFXV-TA6-1">
          <mxGeometry x="58" y="-730" width="43" height="40" as="geometry" />
        </mxCell>
        <mxCell id="wQbSGYJbpUOdjl0NNNIN-114" style="edgeStyle=orthogonalEdgeStyle;rounded=0;orthogonalLoop=1;jettySize=auto;html=1;exitX=1;exitY=0.5;exitDx=0;exitDy=0;entryX=0;entryY=0.25;entryDx=0;entryDy=0;" edge="1" parent="_OPWvbS_Ypv0JFXV-TA6-1" source="wQbSGYJbpUOdjl0NNNIN-115" target="wQbSGYJbpUOdjl0NNNIN-71">
          <mxGeometry relative="1" as="geometry" />
        </mxCell>
        <mxCell id="wQbSGYJbpUOdjl0NNNIN-115" value="REG" style="rounded=0;whiteSpace=wrap;html=1;" vertex="1" parent="_OPWvbS_Ypv0JFXV-TA6-1">
          <mxGeometry x="99" y="-730" width="40" height="40" as="geometry" />
        </mxCell>
        <mxCell id="wQbSGYJbpUOdjl0NNNIN-116" value="REG" style="rounded=0;whiteSpace=wrap;html=1;" vertex="1" parent="_OPWvbS_Ypv0JFXV-TA6-1">
          <mxGeometry x="62" y="-600" width="40" height="40" as="geometry" />
        </mxCell>
        <mxCell id="wQbSGYJbpUOdjl0NNNIN-117" style="edgeStyle=orthogonalEdgeStyle;rounded=0;orthogonalLoop=1;jettySize=auto;html=1;exitX=1;exitY=0.5;exitDx=0;exitDy=0;entryX=0.012;entryY=0.336;entryDx=0;entryDy=0;entryPerimeter=0;" edge="1" parent="_OPWvbS_Ypv0JFXV-TA6-1" source="wQbSGYJbpUOdjl0NNNIN-118" target="wQbSGYJbpUOdjl0NNNIN-76">
          <mxGeometry relative="1" as="geometry" />
        </mxCell>
        <mxCell id="wQbSGYJbpUOdjl0NNNIN-118" value="REG" style="rounded=0;whiteSpace=wrap;html=1;" vertex="1" parent="_OPWvbS_Ypv0JFXV-TA6-1">
          <mxGeometry x="95" y="-600" width="40" height="40" as="geometry" />
        </mxCell>
        <mxCell id="wQbSGYJbpUOdjl0NNNIN-119" value="REG" style="rounded=0;whiteSpace=wrap;html=1;" vertex="1" parent="_OPWvbS_Ypv0JFXV-TA6-1">
          <mxGeometry x="70.5" y="-450" width="40" height="40" as="geometry" />
        </mxCell>
        <mxCell id="wQbSGYJbpUOdjl0NNNIN-120" value="REG" style="rounded=0;whiteSpace=wrap;html=1;" vertex="1" parent="_OPWvbS_Ypv0JFXV-TA6-1">
          <mxGeometry x="110.5" y="-450" width="40" height="40" as="geometry" />
        </mxCell>
        <mxCell id="wQbSGYJbpUOdjl0NNNIN-121" value="REG" style="rounded=0;whiteSpace=wrap;html=1;" vertex="1" parent="_OPWvbS_Ypv0JFXV-TA6-1">
          <mxGeometry x="82" y="-327.5" width="40" height="40" as="geometry" />
        </mxCell>
        <mxCell id="wQbSGYJbpUOdjl0NNNIN-122" value="REG" style="rounded=0;whiteSpace=wrap;html=1;" vertex="1" parent="_OPWvbS_Ypv0JFXV-TA6-1">
          <mxGeometry x="115" y="-327.5" width="40" height="40" as="geometry" />
        </mxCell>
        <mxCell id="wQbSGYJbpUOdjl0NNNIN-123" value="REG" style="rounded=0;whiteSpace=wrap;html=1;" vertex="1" parent="_OPWvbS_Ypv0JFXV-TA6-1">
          <mxGeometry x="411" y="-1282" width="40" height="40" as="geometry" />
        </mxCell>
        <mxCell id="wQbSGYJbpUOdjl0NNNIN-124" style="edgeStyle=orthogonalEdgeStyle;rounded=0;orthogonalLoop=1;jettySize=auto;html=1;exitX=1;exitY=0.5;exitDx=0;exitDy=0;" edge="1" parent="_OPWvbS_Ypv0JFXV-TA6-1" source="wQbSGYJbpUOdjl0NNNIN-125">
          <mxGeometry relative="1" as="geometry">
            <mxPoint x="518.5" y="-1262" as="targetPoint" />
          </mxGeometry>
        </mxCell>
        <mxCell id="wQbSGYJbpUOdjl0NNNIN-125" value="REG" style="rounded=0;whiteSpace=wrap;html=1;" vertex="1" parent="_OPWvbS_Ypv0JFXV-TA6-1">
          <mxGeometry x="450.5" y="-1282" width="37" height="40" as="geometry" />
        </mxCell>
        <mxCell id="wQbSGYJbpUOdjl0NNNIN-126" value="M(i, j)" style="text;html=1;resizable=0;points=[];autosize=1;align=left;verticalAlign=top;spacingTop=-4;" vertex="1" parent="_OPWvbS_Ypv0JFXV-TA6-1">
          <mxGeometry x="181.5" y="-1402" width="50" height="20" as="geometry" />
        </mxCell>
        <mxCell id="wQbSGYJbpUOdjl0NNNIN-127" style="edgeStyle=orthogonalEdgeStyle;rounded=0;orthogonalLoop=1;jettySize=auto;html=1;exitX=1;exitY=0.75;exitDx=0;exitDy=0;" edge="1" parent="_OPWvbS_Ypv0JFXV-TA6-1" source="wQbSGYJbpUOdjl0NNNIN-129">
          <mxGeometry relative="1" as="geometry">
            <mxPoint x="124" y="-1071.1666666666665" as="targetPoint" />
          </mxGeometry>
        </mxCell>
        <mxCell id="wQbSGYJbpUOdjl0NNNIN-128" style="edgeStyle=orthogonalEdgeStyle;rounded=0;orthogonalLoop=1;jettySize=auto;html=1;exitX=1;exitY=0.25;exitDx=0;exitDy=0;" edge="1" parent="_OPWvbS_Ypv0JFXV-TA6-1" source="wQbSGYJbpUOdjl0NNNIN-129">
          <mxGeometry relative="1" as="geometry">
            <mxPoint x="124" y="-1126.1666666666665" as="targetPoint" />
          </mxGeometry>
        </mxCell>
        <mxCell id="wQbSGYJbpUOdjl0NNNIN-129" value="CMP_E_F" style="rounded=0;whiteSpace=wrap;html=1;" vertex="1" parent="_OPWvbS_Ypv0JFXV-TA6-1">
          <mxGeometry x="63" y="-1154" width="46" height="110" as="geometry" />
        </mxCell>
        <mxCell id="wQbSGYJbpUOdjl0NNNIN-130" style="edgeStyle=orthogonalEdgeStyle;rounded=0;orthogonalLoop=1;jettySize=auto;html=1;exitX=1;exitY=0.25;exitDx=0;exitDy=0;entryX=0;entryY=0.5;entryDx=0;entryDy=0;" edge="1" parent="_OPWvbS_Ypv0JFXV-TA6-1" source="wQbSGYJbpUOdjl0NNNIN-132" target="wQbSGYJbpUOdjl0NNNIN-138">
          <mxGeometry relative="1" as="geometry" />
        </mxCell>
        <mxCell id="wQbSGYJbpUOdjl0NNNIN-131" style="edgeStyle=orthogonalEdgeStyle;rounded=0;orthogonalLoop=1;jettySize=auto;html=1;exitX=1;exitY=0.5;exitDx=0;exitDy=0;entryX=0;entryY=0.5;entryDx=0;entryDy=0;" edge="1" parent="_OPWvbS_Ypv0JFXV-TA6-1" source="wQbSGYJbpUOdjl0NNNIN-132" target="wQbSGYJbpUOdjl0NNNIN-141">
          <mxGeometry relative="1" as="geometry" />
        </mxCell>
        <mxCell id="wQbSGYJbpUOdjl0NNNIN-132" value="BT_D0" style="rounded=0;whiteSpace=wrap;html=1;" vertex="1" parent="_OPWvbS_Ypv0JFXV-TA6-1">
          <mxGeometry x="213.5" y="-1171" width="60" height="130" as="geometry" />
        </mxCell>
        <mxCell id="wQbSGYJbpUOdjl0NNNIN-133" style="edgeStyle=orthogonalEdgeStyle;rounded=0;orthogonalLoop=1;jettySize=auto;html=1;entryX=0;entryY=0.75;entryDx=0;entryDy=0;" edge="1" parent="_OPWvbS_Ypv0JFXV-TA6-1" source="wQbSGYJbpUOdjl0NNNIN-134" target="wQbSGYJbpUOdjl0NNNIN-132">
          <mxGeometry relative="1" as="geometry" />
        </mxCell>
        <mxCell id="wQbSGYJbpUOdjl0NNNIN-134" value="REG" style="rounded=0;whiteSpace=wrap;html=1;" vertex="1" parent="_OPWvbS_Ypv0JFXV-TA6-1">
          <mxGeometry x="124" y="-1088" width="40" height="40" as="geometry" />
        </mxCell>
        <mxCell id="wQbSGYJbpUOdjl0NNNIN-135" style="edgeStyle=orthogonalEdgeStyle;rounded=0;orthogonalLoop=1;jettySize=auto;html=1;exitX=1;exitY=0.5;exitDx=0;exitDy=0;entryX=0;entryY=0.5;entryDx=0;entryDy=0;" edge="1" parent="_OPWvbS_Ypv0JFXV-TA6-1" source="wQbSGYJbpUOdjl0NNNIN-136" target="wQbSGYJbpUOdjl0NNNIN-132">
          <mxGeometry relative="1" as="geometry" />
        </mxCell>
        <mxCell id="wQbSGYJbpUOdjl0NNNIN-136" value="REG" style="rounded=0;whiteSpace=wrap;html=1;" vertex="1" parent="_OPWvbS_Ypv0JFXV-TA6-1">
          <mxGeometry x="127" y="-1148" width="40" height="40" as="geometry" />
        </mxCell>
        <mxCell id="wQbSGYJbpUOdjl0NNNIN-137" style="edgeStyle=orthogonalEdgeStyle;rounded=0;orthogonalLoop=1;jettySize=auto;html=1;exitX=0.5;exitY=0;exitDx=0;exitDy=0;entryX=0;entryY=0.75;entryDx=0;entryDy=0;" edge="1" parent="_OPWvbS_Ypv0JFXV-TA6-1" source="wQbSGYJbpUOdjl0NNNIN-138" target="wQbSGYJbpUOdjl0NNNIN-183">
          <mxGeometry relative="1" as="geometry" />
        </mxCell>
        <mxCell id="wQbSGYJbpUOdjl0NNNIN-138" value="REG" style="rounded=0;whiteSpace=wrap;html=1;" vertex="1" parent="_OPWvbS_Ypv0JFXV-TA6-1">
          <mxGeometry x="371.5" y="-1282" width="40" height="40" as="geometry" />
        </mxCell>
        <mxCell id="wQbSGYJbpUOdjl0NNNIN-139" value="" style="endArrow=classic;html=1;entryX=0;entryY=0.75;entryDx=0;entryDy=0;" edge="1" parent="_OPWvbS_Ypv0JFXV-TA6-1" target="wQbSGYJbpUOdjl0NNNIN-71">
          <mxGeometry width="50" height="50" relative="1" as="geometry">
            <mxPoint x="130" y="-664" as="sourcePoint" />
            <mxPoint x="180" y="-670" as="targetPoint" />
          </mxGeometry>
        </mxCell>
        <mxCell id="wQbSGYJbpUOdjl0NNNIN-140" style="edgeStyle=orthogonalEdgeStyle;rounded=0;orthogonalLoop=1;jettySize=auto;html=1;exitX=1;exitY=0.5;exitDx=0;exitDy=0;entryX=0;entryY=0.5;entryDx=0;entryDy=0;" edge="1" parent="_OPWvbS_Ypv0JFXV-TA6-1" source="wQbSGYJbpUOdjl0NNNIN-141" target="wQbSGYJbpUOdjl0NNNIN-143">
          <mxGeometry relative="1" as="geometry" />
        </mxCell>
        <mxCell id="wQbSGYJbpUOdjl0NNNIN-141" value="REG" style="rounded=0;whiteSpace=wrap;html=1;" vertex="1" parent="_OPWvbS_Ypv0JFXV-TA6-1">
          <mxGeometry x="306.5" y="-1126" width="49" height="40" as="geometry" />
        </mxCell>
        <mxCell id="wQbSGYJbpUOdjl0NNNIN-142" style="edgeStyle=orthogonalEdgeStyle;rounded=0;orthogonalLoop=1;jettySize=auto;html=1;exitX=1;exitY=0.5;exitDx=0;exitDy=0;entryX=0;entryY=0.25;entryDx=0;entryDy=0;" edge="1" parent="_OPWvbS_Ypv0JFXV-TA6-1" source="wQbSGYJbpUOdjl0NNNIN-143" target="wQbSGYJbpUOdjl0NNNIN-155">
          <mxGeometry relative="1" as="geometry" />
        </mxCell>
        <mxCell id="wQbSGYJbpUOdjl0NNNIN-143" value="REG" style="rounded=0;whiteSpace=wrap;html=1;" vertex="1" parent="_OPWvbS_Ypv0JFXV-TA6-1">
          <mxGeometry x="411" y="-1126" width="49" height="40" as="geometry" />
        </mxCell>
        <mxCell id="wQbSGYJbpUOdjl0NNNIN-144" style="edgeStyle=orthogonalEdgeStyle;rounded=0;orthogonalLoop=1;jettySize=auto;html=1;exitX=1;exitY=0.5;exitDx=0;exitDy=0;" edge="1" parent="_OPWvbS_Ypv0JFXV-TA6-1" source="wQbSGYJbpUOdjl0NNNIN-145">
          <mxGeometry relative="1" as="geometry">
            <mxPoint x="850" y="-926" as="targetPoint" />
          </mxGeometry>
        </mxCell>
        <mxCell id="wQbSGYJbpUOdjl0NNNIN-145" value="REG" style="rounded=0;whiteSpace=wrap;html=1;" vertex="1" parent="_OPWvbS_Ypv0JFXV-TA6-1">
          <mxGeometry x="505.5" y="-946" width="49" height="40" as="geometry" />
        </mxCell>
        <mxCell id="wQbSGYJbpUOdjl0NNNIN-146" value="" style="endArrow=classic;html=1;entryX=0;entryY=0.75;entryDx=0;entryDy=0;" edge="1" parent="_OPWvbS_Ypv0JFXV-TA6-1" target="wQbSGYJbpUOdjl0NNNIN-76">
          <mxGeometry width="50" height="50" relative="1" as="geometry">
            <mxPoint x="120" y="-537" as="sourcePoint" />
            <mxPoint x="110" y="-530" as="targetPoint" />
          </mxGeometry>
        </mxCell>
        <mxCell id="wQbSGYJbpUOdjl0NNNIN-147" value="" style="endArrow=classic;html=1;entryX=0;entryY=0.75;entryDx=0;entryDy=0;" edge="1" parent="_OPWvbS_Ypv0JFXV-TA6-1" target="wQbSGYJbpUOdjl0NNNIN-88">
          <mxGeometry width="50" height="50" relative="1" as="geometry">
            <mxPoint x="110" y="-390" as="sourcePoint" />
            <mxPoint x="30" y="-390" as="targetPoint" />
          </mxGeometry>
        </mxCell>
        <mxCell id="wQbSGYJbpUOdjl0NNNIN-148" style="edgeStyle=orthogonalEdgeStyle;rounded=0;orthogonalLoop=1;jettySize=auto;html=1;exitX=1;exitY=0.5;exitDx=0;exitDy=0;" edge="1" parent="_OPWvbS_Ypv0JFXV-TA6-1" source="wQbSGYJbpUOdjl0NNNIN-159">
          <mxGeometry relative="1" as="geometry">
            <mxPoint x="850" y="-721" as="targetPoint" />
          </mxGeometry>
        </mxCell>
        <mxCell id="wQbSGYJbpUOdjl0NNNIN-149" value="REG" style="rounded=0;whiteSpace=wrap;html=1;" vertex="1" parent="_OPWvbS_Ypv0JFXV-TA6-1">
          <mxGeometry x="501" y="-741.5" width="49" height="40" as="geometry" />
        </mxCell>
        <mxCell id="wQbSGYJbpUOdjl0NNNIN-150" style="edgeStyle=orthogonalEdgeStyle;rounded=0;orthogonalLoop=1;jettySize=auto;html=1;exitX=1;exitY=0.5;exitDx=0;exitDy=0;" edge="1" parent="_OPWvbS_Ypv0JFXV-TA6-1" source="wQbSGYJbpUOdjl0NNNIN-151">
          <mxGeometry relative="1" as="geometry">
            <mxPoint x="850" y="-465" as="targetPoint" />
          </mxGeometry>
        </mxCell>
        <mxCell id="wQbSGYJbpUOdjl0NNNIN-151" value="REG" style="rounded=0;whiteSpace=wrap;html=1;" vertex="1" parent="_OPWvbS_Ypv0JFXV-TA6-1">
          <mxGeometry x="505.5" y="-485" width="49" height="40" as="geometry" />
        </mxCell>
        <mxCell id="wQbSGYJbpUOdjl0NNNIN-152" style="edgeStyle=orthogonalEdgeStyle;rounded=0;orthogonalLoop=1;jettySize=auto;html=1;exitX=1;exitY=0.5;exitDx=0;exitDy=0;" edge="1" parent="_OPWvbS_Ypv0JFXV-TA6-1" source="wQbSGYJbpUOdjl0NNNIN-153">
          <mxGeometry relative="1" as="geometry">
            <mxPoint x="850" y="-326" as="targetPoint" />
          </mxGeometry>
        </mxCell>
        <mxCell id="wQbSGYJbpUOdjl0NNNIN-153" value="REG" style="rounded=0;whiteSpace=wrap;html=1;" vertex="1" parent="_OPWvbS_Ypv0JFXV-TA6-1">
          <mxGeometry x="505.5" y="-346" width="49" height="40" as="geometry" />
        </mxCell>
        <mxCell id="wQbSGYJbpUOdjl0NNNIN-154" style="edgeStyle=orthogonalEdgeStyle;rounded=0;orthogonalLoop=1;jettySize=auto;html=1;exitX=1;exitY=0.5;exitDx=0;exitDy=0;" edge="1" parent="_OPWvbS_Ypv0JFXV-TA6-1" source="wQbSGYJbpUOdjl0NNNIN-155">
          <mxGeometry relative="1" as="geometry">
            <mxPoint x="850" y="-1066" as="targetPoint" />
          </mxGeometry>
        </mxCell>
        <mxCell id="wQbSGYJbpUOdjl0NNNIN-155" value="bt_d" style="rounded=0;whiteSpace=wrap;html=1;" vertex="1" parent="_OPWvbS_Ypv0JFXV-TA6-1">
          <mxGeometry x="505.5" y="-1126" width="61" height="120" as="geometry" />
        </mxCell>
        <mxCell id="wQbSGYJbpUOdjl0NNNIN-156" value="bt_d/7clk" style="text;html=1;resizable=0;points=[];autosize=1;align=left;verticalAlign=top;spacingTop=-4;" vertex="1" parent="_OPWvbS_Ypv0JFXV-TA6-1">
          <mxGeometry x="758.5" y="-1086" width="60" height="20" as="geometry" />
        </mxCell>
        <mxCell id="wQbSGYJbpUOdjl0NNNIN-157" value="" style="endArrow=classic;html=1;entryX=0;entryY=0.25;entryDx=0;entryDy=0;" edge="1" parent="_OPWvbS_Ypv0JFXV-TA6-1" target="wQbSGYJbpUOdjl0NNNIN-47">
          <mxGeometry width="50" height="50" relative="1" as="geometry">
            <mxPoint x="-160" y="-1213" as="sourcePoint" />
            <mxPoint x="-250" y="-1220" as="targetPoint" />
          </mxGeometry>
        </mxCell>
        <mxCell id="wQbSGYJbpUOdjl0NNNIN-158" value="" style="endArrow=classic;html=1;entryX=0;entryY=0.25;entryDx=0;entryDy=0;" edge="1" parent="_OPWvbS_Ypv0JFXV-TA6-1" target="wQbSGYJbpUOdjl0NNNIN-54">
          <mxGeometry width="50" height="50" relative="1" as="geometry">
            <mxPoint x="-170" y="-1073" as="sourcePoint" />
            <mxPoint x="-210" y="-1050" as="targetPoint" />
          </mxGeometry>
        </mxCell>
        <mxCell id="wQbSGYJbpUOdjl0NNNIN-159" value="E&#39;(i, j+1)/7clk" style="text;html=1;resizable=0;points=[];autosize=1;align=left;verticalAlign=top;spacingTop=-4;" vertex="1" parent="_OPWvbS_Ypv0JFXV-TA6-1">
          <mxGeometry x="738.5" y="-740" width="80" height="20" as="geometry" />
        </mxCell>
        <mxCell id="wQbSGYJbpUOdjl0NNNIN-160" style="edgeStyle=orthogonalEdgeStyle;rounded=0;orthogonalLoop=1;jettySize=auto;html=1;exitX=1;exitY=0.5;exitDx=0;exitDy=0;" edge="1" parent="_OPWvbS_Ypv0JFXV-TA6-1" source="wQbSGYJbpUOdjl0NNNIN-149" target="wQbSGYJbpUOdjl0NNNIN-159">
          <mxGeometry relative="1" as="geometry">
            <mxPoint x="850" y="-721" as="targetPoint" />
            <mxPoint x="550" y="-721" as="sourcePoint" />
          </mxGeometry>
        </mxCell>
        <mxCell id="wQbSGYJbpUOdjl0NNNIN-161" value="REG" style="rounded=0;whiteSpace=wrap;html=1;" vertex="1" parent="_OPWvbS_Ypv0JFXV-TA6-1">
          <mxGeometry x="123" y="-1540" width="40" height="40" as="geometry" />
        </mxCell>
        <mxCell id="wQbSGYJbpUOdjl0NNNIN-162" value="REG" style="rounded=0;whiteSpace=wrap;html=1;" vertex="1" parent="_OPWvbS_Ypv0JFXV-TA6-1">
          <mxGeometry x="162.5" y="-1540" width="37" height="40" as="geometry" />
        </mxCell>
        <mxCell id="wQbSGYJbpUOdjl0NNNIN-163" value="REG" style="rounded=0;whiteSpace=wrap;html=1;" vertex="1" parent="_OPWvbS_Ypv0JFXV-TA6-1">
          <mxGeometry x="199.5" y="-1540" width="40" height="40" as="geometry" />
        </mxCell>
        <mxCell id="wQbSGYJbpUOdjl0NNNIN-164" value="REG" style="rounded=0;whiteSpace=wrap;html=1;" vertex="1" parent="_OPWvbS_Ypv0JFXV-TA6-1">
          <mxGeometry x="239" y="-1540" width="37" height="40" as="geometry" />
        </mxCell>
        <mxCell id="wQbSGYJbpUOdjl0NNNIN-165" value="REG" style="rounded=0;whiteSpace=wrap;html=1;" vertex="1" parent="_OPWvbS_Ypv0JFXV-TA6-1">
          <mxGeometry x="273" y="-1540" width="40" height="40" as="geometry" />
        </mxCell>
        <mxCell id="wQbSGYJbpUOdjl0NNNIN-166" value="REG" style="rounded=0;whiteSpace=wrap;html=1;" vertex="1" parent="_OPWvbS_Ypv0JFXV-TA6-1">
          <mxGeometry x="312.5" y="-1540" width="37" height="40" as="geometry" />
        </mxCell>
        <mxCell id="wQbSGYJbpUOdjl0NNNIN-167" style="edgeStyle=orthogonalEdgeStyle;rounded=0;orthogonalLoop=1;jettySize=auto;html=1;exitX=1;exitY=0.5;exitDx=0;exitDy=0;" edge="1" parent="_OPWvbS_Ypv0JFXV-TA6-1" source="wQbSGYJbpUOdjl0NNNIN-168">
          <mxGeometry relative="1" as="geometry">
            <mxPoint x="850" y="-1519.6666666666665" as="targetPoint" />
            <Array as="points">
              <mxPoint x="620" y="-1519" />
            </Array>
          </mxGeometry>
        </mxCell>
        <mxCell id="wQbSGYJbpUOdjl0NNNIN-168" value="REG" style="rounded=0;whiteSpace=wrap;html=1;" vertex="1" parent="_OPWvbS_Ypv0JFXV-TA6-1">
          <mxGeometry x="349.5" y="-1540" width="40" height="40" as="geometry" />
        </mxCell>
        <mxCell id="wQbSGYJbpUOdjl0NNNIN-169" value="Nr" style="text;html=1;resizable=0;points=[];autosize=1;align=left;verticalAlign=top;spacingTop=-4;" vertex="1" parent="_OPWvbS_Ypv0JFXV-TA6-1">
          <mxGeometry x="753.5" y="-1550" width="30" height="20" as="geometry" />
        </mxCell>
        <mxCell id="wQbSGYJbpUOdjl0NNNIN-170" value="REG" style="rounded=0;whiteSpace=wrap;html=1;" vertex="1" parent="_OPWvbS_Ypv0JFXV-TA6-1">
          <mxGeometry x="122" y="-1610" width="40" height="40" as="geometry" />
        </mxCell>
        <mxCell id="wQbSGYJbpUOdjl0NNNIN-171" value="REG" style="rounded=0;whiteSpace=wrap;html=1;" vertex="1" parent="_OPWvbS_Ypv0JFXV-TA6-1">
          <mxGeometry x="161.5" y="-1610" width="37" height="40" as="geometry" />
        </mxCell>
        <mxCell id="wQbSGYJbpUOdjl0NNNIN-172" value="REG" style="rounded=0;whiteSpace=wrap;html=1;" vertex="1" parent="_OPWvbS_Ypv0JFXV-TA6-1">
          <mxGeometry x="198.5" y="-1610" width="40" height="40" as="geometry" />
        </mxCell>
        <mxCell id="wQbSGYJbpUOdjl0NNNIN-173" value="REG" style="rounded=0;whiteSpace=wrap;html=1;" vertex="1" parent="_OPWvbS_Ypv0JFXV-TA6-1">
          <mxGeometry x="238" y="-1610" width="37" height="40" as="geometry" />
        </mxCell>
        <mxCell id="wQbSGYJbpUOdjl0NNNIN-174" value="REG" style="rounded=0;whiteSpace=wrap;html=1;" vertex="1" parent="_OPWvbS_Ypv0JFXV-TA6-1">
          <mxGeometry x="272" y="-1610" width="40" height="40" as="geometry" />
        </mxCell>
        <mxCell id="wQbSGYJbpUOdjl0NNNIN-175" value="REG" style="rounded=0;whiteSpace=wrap;html=1;" vertex="1" parent="_OPWvbS_Ypv0JFXV-TA6-1">
          <mxGeometry x="311.5" y="-1610" width="37" height="40" as="geometry" />
        </mxCell>
        <mxCell id="wQbSGYJbpUOdjl0NNNIN-176" style="edgeStyle=orthogonalEdgeStyle;rounded=0;orthogonalLoop=1;jettySize=auto;html=1;exitX=1;exitY=0.5;exitDx=0;exitDy=0;" edge="1" parent="_OPWvbS_Ypv0JFXV-TA6-1" source="wQbSGYJbpUOdjl0NNNIN-177">
          <mxGeometry relative="1" as="geometry">
            <mxPoint x="850" y="-1590" as="targetPoint" />
          </mxGeometry>
        </mxCell>
        <mxCell id="wQbSGYJbpUOdjl0NNNIN-177" value="REG" style="rounded=0;whiteSpace=wrap;html=1;" vertex="1" parent="_OPWvbS_Ypv0JFXV-TA6-1">
          <mxGeometry x="348.5" y="-1610" width="40" height="40" as="geometry" />
        </mxCell>
        <mxCell id="wQbSGYJbpUOdjl0NNNIN-178" value="" style="endArrow=classic;html=1;entryX=0;entryY=0.5;entryDx=0;entryDy=0;" edge="1" parent="_OPWvbS_Ypv0JFXV-TA6-1" target="wQbSGYJbpUOdjl0NNNIN-170">
          <mxGeometry width="50" height="50" relative="1" as="geometry">
            <mxPoint x="-160" y="-1590" as="sourcePoint" />
            <mxPoint x="-180" y="-1620" as="targetPoint" />
          </mxGeometry>
        </mxCell>
        <mxCell id="wQbSGYJbpUOdjl0NNNIN-179" value="start_in" style="text;html=1;resizable=0;points=[];autosize=1;align=left;verticalAlign=top;spacingTop=-4;" vertex="1" parent="_OPWvbS_Ypv0JFXV-TA6-1">
          <mxGeometry x="-142" y="-1622" width="50" height="20" as="geometry" />
        </mxCell>
        <mxCell id="wQbSGYJbpUOdjl0NNNIN-180" value="start_out" style="text;html=1;resizable=0;points=[];autosize=1;align=left;verticalAlign=top;spacingTop=-4;" vertex="1" parent="_OPWvbS_Ypv0JFXV-TA6-1">
          <mxGeometry x="748.5" y="-1610" width="60" height="20" as="geometry" />
        </mxCell>
        <mxCell id="wQbSGYJbpUOdjl0NNNIN-181" value="stat_in:用于启动PE的运算，相当于使能信号&lt;br&gt;mode:用于判断PE0是第一次运算还是循环后运算，因为PE0的第一次E的值是初始化得到的&lt;br&gt;max_en:用于输出这个PE中H的最大值的使能信号" style="text;html=1;resizable=0;points=[];autosize=1;align=left;verticalAlign=top;spacingTop=-4;" vertex="1" parent="_OPWvbS_Ypv0JFXV-TA6-1">
          <mxGeometry x="9.5" y="-100" width="500" height="40" as="geometry" />
        </mxCell>
        <mxCell id="wQbSGYJbpUOdjl0NNNIN-182" style="edgeStyle=orthogonalEdgeStyle;rounded=0;orthogonalLoop=1;jettySize=auto;html=1;exitX=1;exitY=0.5;exitDx=0;exitDy=0;entryX=0;entryY=0.5;entryDx=0;entryDy=0;" edge="1" parent="_OPWvbS_Ypv0JFXV-TA6-1" source="wQbSGYJbpUOdjl0NNNIN-183" target="wQbSGYJbpUOdjl0NNNIN-186">
          <mxGeometry relative="1" as="geometry" />
        </mxCell>
        <mxCell id="wQbSGYJbpUOdjl0NNNIN-183" value="" style="rounded=0;whiteSpace=wrap;html=1;" vertex="1" parent="_OPWvbS_Ypv0JFXV-TA6-1">
          <mxGeometry x="415" y="-1412" width="47" height="92" as="geometry" />
        </mxCell>
        <mxCell id="wQbSGYJbpUOdjl0NNNIN-184" style="edgeStyle=orthogonalEdgeStyle;rounded=0;orthogonalLoop=1;jettySize=auto;html=1;exitX=1;exitY=0.5;exitDx=0;exitDy=0;entryX=0;entryY=0.25;entryDx=0;entryDy=0;" edge="1" parent="_OPWvbS_Ypv0JFXV-TA6-1" source="wQbSGYJbpUOdjl0NNNIN-183" target="wQbSGYJbpUOdjl0NNNIN-183">
          <mxGeometry relative="1" as="geometry">
            <Array as="points">
              <mxPoint x="481" y="-1366" />
              <mxPoint x="481" y="-1440" />
              <mxPoint x="360" y="-1440" />
              <mxPoint x="360" y="-1389" />
            </Array>
          </mxGeometry>
        </mxCell>
        <mxCell id="wQbSGYJbpUOdjl0NNNIN-185" style="edgeStyle=orthogonalEdgeStyle;rounded=0;orthogonalLoop=1;jettySize=auto;html=1;exitX=1;exitY=0.5;exitDx=0;exitDy=0;" edge="1" parent="_OPWvbS_Ypv0JFXV-TA6-1" source="wQbSGYJbpUOdjl0NNNIN-186">
          <mxGeometry relative="1" as="geometry">
            <mxPoint x="840" y="-1365.655172413793" as="targetPoint" />
          </mxGeometry>
        </mxCell>
        <mxCell id="wQbSGYJbpUOdjl0NNNIN-186" value="REG" style="rounded=0;whiteSpace=wrap;html=1;" vertex="1" parent="_OPWvbS_Ypv0JFXV-TA6-1">
          <mxGeometry x="503" y="-1386" width="37" height="40" as="geometry" />
        </mxCell>
        <mxCell id="wQbSGYJbpUOdjl0NNNIN-187" value="H_max_out" style="text;html=1;resizable=0;points=[];autosize=1;align=left;verticalAlign=top;spacingTop=-4;" vertex="1" parent="_OPWvbS_Ypv0JFXV-TA6-1">
          <mxGeometry x="749" y="-1389" width="80" height="20" as="geometry" />
        </mxCell>
        <mxCell id="wQbSGYJbpUOdjl0NNNIN-274" value="" style="edgeStyle=orthogonalEdgeStyle;rounded=0;orthogonalLoop=1;jettySize=auto;html=1;" edge="1" parent="_OPWvbS_Ypv0JFXV-TA6-1" source="wQbSGYJbpUOdjl0NNNIN-275" target="wQbSGYJbpUOdjl0NNNIN-277">
          <mxGeometry relative="1" as="geometry" />
        </mxCell>
        <mxCell id="wQbSGYJbpUOdjl0NNNIN-275" value="IDLE" style="ellipse;whiteSpace=wrap;html=1;" vertex="1" parent="_OPWvbS_Ypv0JFXV-TA6-1">
          <mxGeometry x="18" y="2460" width="120" height="80" as="geometry" />
        </mxCell>
        <mxCell id="wQbSGYJbpUOdjl0NNNIN-276" value="" style="edgeStyle=orthogonalEdgeStyle;rounded=0;orthogonalLoop=1;jettySize=auto;html=1;" edge="1" parent="_OPWvbS_Ypv0JFXV-TA6-1" source="wQbSGYJbpUOdjl0NNNIN-277" target="wQbSGYJbpUOdjl0NNNIN-279">
          <mxGeometry relative="1" as="geometry" />
        </mxCell>
        <mxCell id="wQbSGYJbpUOdjl0NNNIN-277" value="GET_HEAD" style="ellipse;whiteSpace=wrap;html=1;" vertex="1" parent="_OPWvbS_Ypv0JFXV-TA6-1">
          <mxGeometry x="218" y="2460" width="120" height="80" as="geometry" />
        </mxCell>
        <mxCell id="wQbSGYJbpUOdjl0NNNIN-278" value="" style="edgeStyle=orthogonalEdgeStyle;rounded=0;orthogonalLoop=1;jettySize=auto;html=1;" edge="1" parent="_OPWvbS_Ypv0JFXV-TA6-1" source="wQbSGYJbpUOdjl0NNNIN-279" target="wQbSGYJbpUOdjl0NNNIN-281">
          <mxGeometry relative="1" as="geometry" />
        </mxCell>
        <mxCell id="wQbSGYJbpUOdjl0NNNIN-279" value="GET_INFO" style="ellipse;whiteSpace=wrap;html=1;" vertex="1" parent="_OPWvbS_Ypv0JFXV-TA6-1">
          <mxGeometry x="418" y="2460" width="120" height="80" as="geometry" />
        </mxCell>
        <mxCell id="wQbSGYJbpUOdjl0NNNIN-280" value="" style="edgeStyle=orthogonalEdgeStyle;rounded=0;orthogonalLoop=1;jettySize=auto;html=1;" edge="1" parent="_OPWvbS_Ypv0JFXV-TA6-1" source="wQbSGYJbpUOdjl0NNNIN-281" target="wQbSGYJbpUOdjl0NNNIN-283">
          <mxGeometry relative="1" as="geometry" />
        </mxCell>
        <mxCell id="wQbSGYJbpUOdjl0NNNIN-281" value="GET_R" style="ellipse;whiteSpace=wrap;html=1;" vertex="1" parent="_OPWvbS_Ypv0JFXV-TA6-1">
          <mxGeometry x="618" y="2460" width="120" height="80" as="geometry" />
        </mxCell>
        <mxCell id="wQbSGYJbpUOdjl0NNNIN-282" value="" style="edgeStyle=orthogonalEdgeStyle;rounded=0;orthogonalLoop=1;jettySize=auto;html=1;" edge="1" parent="_OPWvbS_Ypv0JFXV-TA6-1" source="wQbSGYJbpUOdjl0NNNIN-283" target="wQbSGYJbpUOdjl0NNNIN-285">
          <mxGeometry relative="1" as="geometry" />
        </mxCell>
        <mxCell id="wQbSGYJbpUOdjl0NNNIN-283" value="GET_H" style="ellipse;whiteSpace=wrap;html=1;" vertex="1" parent="_OPWvbS_Ypv0JFXV-TA6-1">
          <mxGeometry x="618" y="2620" width="120" height="80" as="geometry" />
        </mxCell>
        <mxCell id="wQbSGYJbpUOdjl0NNNIN-284" value="" style="edgeStyle=orthogonalEdgeStyle;rounded=0;orthogonalLoop=1;jettySize=auto;html=1;" edge="1" parent="_OPWvbS_Ypv0JFXV-TA6-1" source="wQbSGYJbpUOdjl0NNNIN-285" target="wQbSGYJbpUOdjl0NNNIN-287">
          <mxGeometry relative="1" as="geometry" />
        </mxCell>
        <mxCell id="wQbSGYJbpUOdjl0NNNIN-285" value="JUDGE_INPUT" style="ellipse;whiteSpace=wrap;html=1;" vertex="1" parent="_OPWvbS_Ypv0JFXV-TA6-1">
          <mxGeometry x="618" y="2780" width="120" height="80" as="geometry" />
        </mxCell>
        <mxCell id="wQbSGYJbpUOdjl0NNNIN-286" value="" style="edgeStyle=orthogonalEdgeStyle;rounded=0;orthogonalLoop=1;jettySize=auto;html=1;" edge="1" parent="_OPWvbS_Ypv0JFXV-TA6-1" source="wQbSGYJbpUOdjl0NNNIN-287" target="wQbSGYJbpUOdjl0NNNIN-289">
          <mxGeometry relative="1" as="geometry" />
        </mxCell>
        <mxCell id="wQbSGYJbpUOdjl0NNNIN-287" value="WAIT_VLD" style="ellipse;whiteSpace=wrap;html=1;" vertex="1" parent="_OPWvbS_Ypv0JFXV-TA6-1">
          <mxGeometry x="418" y="2780" width="120" height="80" as="geometry" />
        </mxCell>
        <mxCell id="wQbSGYJbpUOdjl0NNNIN-288" value="" style="edgeStyle=orthogonalEdgeStyle;rounded=0;orthogonalLoop=1;jettySize=auto;html=1;" edge="1" parent="_OPWvbS_Ypv0JFXV-TA6-1" source="wQbSGYJbpUOdjl0NNNIN-289" target="wQbSGYJbpUOdjl0NNNIN-291">
          <mxGeometry relative="1" as="geometry" />
        </mxCell>
        <mxCell id="wQbSGYJbpUOdjl0NNNIN-289" value="CALCULATE" style="ellipse;whiteSpace=wrap;html=1;" vertex="1" parent="_OPWvbS_Ypv0JFXV-TA6-1">
          <mxGeometry x="218" y="2780" width="120" height="80" as="geometry" />
        </mxCell>
        <mxCell id="wQbSGYJbpUOdjl0NNNIN-290" value="" style="edgeStyle=orthogonalEdgeStyle;rounded=0;orthogonalLoop=1;jettySize=auto;html=1;" edge="1" parent="_OPWvbS_Ypv0JFXV-TA6-1" source="wQbSGYJbpUOdjl0NNNIN-291" target="wQbSGYJbpUOdjl0NNNIN-293">
          <mxGeometry relative="1" as="geometry" />
        </mxCell>
        <mxCell id="wQbSGYJbpUOdjl0NNNIN-291" value="JUDGE_OUTPUT" style="ellipse;whiteSpace=wrap;html=1;" vertex="1" parent="_OPWvbS_Ypv0JFXV-TA6-1">
          <mxGeometry x="18" y="2780" width="120" height="80" as="geometry" />
        </mxCell>
        <mxCell id="wQbSGYJbpUOdjl0NNNIN-292" style="edgeStyle=orthogonalEdgeStyle;rounded=0;orthogonalLoop=1;jettySize=auto;html=1;exitX=0.5;exitY=0;exitDx=0;exitDy=0;entryX=0.5;entryY=1;entryDx=0;entryDy=0;" edge="1" parent="_OPWvbS_Ypv0JFXV-TA6-1" source="wQbSGYJbpUOdjl0NNNIN-293" target="wQbSGYJbpUOdjl0NNNIN-275">
          <mxGeometry relative="1" as="geometry" />
        </mxCell>
        <mxCell id="wQbSGYJbpUOdjl0NNNIN-293" value="DONE" style="ellipse;whiteSpace=wrap;html=1;" vertex="1" parent="_OPWvbS_Ypv0JFXV-TA6-1">
          <mxGeometry x="18" y="2620" width="120" height="80" as="geometry" />
        </mxCell>
        <mxCell id="wQbSGYJbpUOdjl0NNNIN-294" value="" style="curved=1;endArrow=classic;html=1;entryX=0;entryY=0;entryDx=0;entryDy=0;exitX=0.5;exitY=1;exitDx=0;exitDy=0;" edge="1" parent="_OPWvbS_Ypv0JFXV-TA6-1" source="wQbSGYJbpUOdjl0NNNIN-279" target="wQbSGYJbpUOdjl0NNNIN-285">
          <mxGeometry width="50" height="50" relative="1" as="geometry">
            <mxPoint x="420" y="2690" as="sourcePoint" />
            <mxPoint x="470" y="2640" as="targetPoint" />
            <Array as="points">
              <mxPoint x="470" y="2690" />
              <mxPoint x="550" y="2600" />
            </Array>
          </mxGeometry>
        </mxCell>
        <mxCell id="wQbSGYJbpUOdjl0NNNIN-295" value="read_len_right = 0" style="text;html=1;resizable=0;points=[];autosize=1;align=left;verticalAlign=top;spacingTop=-4;" vertex="1" parent="_OPWvbS_Ypv0JFXV-TA6-1">
          <mxGeometry x="478" y="2575" width="110" height="20" as="geometry" />
        </mxCell>
        <mxCell id="wQbSGYJbpUOdjl0NNNIN-296" value="" style="curved=1;endArrow=classic;html=1;exitX=1;exitY=0.5;exitDx=0;exitDy=0;entryX=0.5;entryY=0;entryDx=0;entryDy=0;" edge="1" parent="_OPWvbS_Ypv0JFXV-TA6-1" source="wQbSGYJbpUOdjl0NNNIN-283" target="wQbSGYJbpUOdjl0NNNIN-279">
          <mxGeometry width="50" height="50" relative="1" as="geometry">
            <mxPoint x="820" y="2640" as="sourcePoint" />
            <mxPoint x="870" y="2590" as="targetPoint" />
            <Array as="points">
              <mxPoint x="870" y="2640" />
              <mxPoint x="820" y="2340" />
              <mxPoint x="460" y="2380" />
            </Array>
          </mxGeometry>
        </mxCell>
        <mxCell id="wQbSGYJbpUOdjl0NNNIN-297" value="pre_direction == left" style="text;html=1;resizable=0;points=[];autosize=1;align=left;verticalAlign=top;spacingTop=-4;" vertex="1" parent="_OPWvbS_Ypv0JFXV-TA6-1">
          <mxGeometry x="778" y="2660" width="120" height="20" as="geometry" />
        </mxCell>
        <mxCell id="wQbSGYJbpUOdjl0NNNIN-298" value="" style="curved=1;endArrow=classic;html=1;exitX=0.433;exitY=1;exitDx=0;exitDy=0;exitPerimeter=0;entryX=0.5;entryY=1;entryDx=0;entryDy=0;" edge="1" parent="_OPWvbS_Ypv0JFXV-TA6-1" source="wQbSGYJbpUOdjl0NNNIN-287" target="wQbSGYJbpUOdjl0NNNIN-291">
          <mxGeometry width="50" height="50" relative="1" as="geometry">
            <mxPoint x="330" y="2960" as="sourcePoint" />
            <mxPoint x="380" y="2910" as="targetPoint" />
            <Array as="points">
              <mxPoint x="400" y="2970" />
              <mxPoint x="200" y="2950" />
            </Array>
          </mxGeometry>
        </mxCell>
        <mxCell id="wQbSGYJbpUOdjl0NNNIN-299" value="read_len == 0" style="text;html=1;resizable=0;points=[];autosize=1;align=left;verticalAlign=top;spacingTop=-4;" vertex="1" parent="_OPWvbS_Ypv0JFXV-TA6-1">
          <mxGeometry x="338" y="2879" width="90" height="20" as="geometry" />
        </mxCell>
        <mxCell id="wQbSGYJbpUOdjl0NNNIN-300" value="" style="curved=1;endArrow=classic;html=1;exitX=0.5;exitY=1;exitDx=0;exitDy=0;entryX=0.5;entryY=1;entryDx=0;entryDy=0;" edge="1" parent="_OPWvbS_Ypv0JFXV-TA6-1" source="wQbSGYJbpUOdjl0NNNIN-291" target="wQbSGYJbpUOdjl0NNNIN-285">
          <mxGeometry width="50" height="50" relative="1" as="geometry">
            <mxPoint x="320" y="3090" as="sourcePoint" />
            <mxPoint x="370" y="3040" as="targetPoint" />
            <Array as="points">
              <mxPoint x="240" y="3040" />
              <mxPoint x="540" y="3030" />
            </Array>
          </mxGeometry>
        </mxCell>
        <mxCell id="wQbSGYJbpUOdjl0NNNIN-301" value="cal_direction == LEFT" style="text;html=1;resizable=0;points=[];autosize=1;align=left;verticalAlign=top;spacingTop=-4;" vertex="1" parent="_OPWvbS_Ypv0JFXV-TA6-1">
          <mxGeometry x="124" y="2960" width="130" height="20" as="geometry" />
        </mxCell>
        <mxCell id="wQbSGYJbpUOdjl0NNNIN-302" value="" style="edgeStyle=orthogonalEdgeStyle;rounded=0;orthogonalLoop=1;jettySize=auto;html=1;" edge="1" parent="_OPWvbS_Ypv0JFXV-TA6-1" source="wQbSGYJbpUOdjl0NNNIN-303" target="wQbSGYJbpUOdjl0NNNIN-305">
          <mxGeometry relative="1" as="geometry" />
        </mxCell>
        <mxCell id="wQbSGYJbpUOdjl0NNNIN-303" value="IDLE" style="ellipse;whiteSpace=wrap;html=1;" vertex="1" parent="_OPWvbS_Ypv0JFXV-TA6-1">
          <mxGeometry x="277.5" y="3060" width="120" height="80" as="geometry" />
        </mxCell>
        <mxCell id="wQbSGYJbpUOdjl0NNNIN-304" value="" style="edgeStyle=orthogonalEdgeStyle;rounded=0;orthogonalLoop=1;jettySize=auto;html=1;" edge="1" parent="_OPWvbS_Ypv0JFXV-TA6-1" source="wQbSGYJbpUOdjl0NNNIN-305" target="wQbSGYJbpUOdjl0NNNIN-307">
          <mxGeometry relative="1" as="geometry" />
        </mxCell>
        <mxCell id="wQbSGYJbpUOdjl0NNNIN-305" value="WAIT_START" style="ellipse;whiteSpace=wrap;html=1;" vertex="1" parent="_OPWvbS_Ypv0JFXV-TA6-1">
          <mxGeometry x="477.5" y="3060" width="120" height="80" as="geometry" />
        </mxCell>
        <mxCell id="wQbSGYJbpUOdjl0NNNIN-306" value="" style="edgeStyle=orthogonalEdgeStyle;rounded=0;orthogonalLoop=1;jettySize=auto;html=1;" edge="1" parent="_OPWvbS_Ypv0JFXV-TA6-1" source="wQbSGYJbpUOdjl0NNNIN-307" target="wQbSGYJbpUOdjl0NNNIN-309">
          <mxGeometry relative="1" as="geometry" />
        </mxCell>
        <mxCell id="wQbSGYJbpUOdjl0NNNIN-307" value="SEND_ADDR" style="ellipse;whiteSpace=wrap;html=1;" vertex="1" parent="_OPWvbS_Ypv0JFXV-TA6-1">
          <mxGeometry x="677.5" y="3060" width="120" height="80" as="geometry" />
        </mxCell>
        <mxCell id="wQbSGYJbpUOdjl0NNNIN-308" value="" style="edgeStyle=orthogonalEdgeStyle;rounded=0;orthogonalLoop=1;jettySize=auto;html=1;" edge="1" parent="_OPWvbS_Ypv0JFXV-TA6-1" source="wQbSGYJbpUOdjl0NNNIN-309" target="wQbSGYJbpUOdjl0NNNIN-310">
          <mxGeometry relative="1" as="geometry" />
        </mxCell>
        <mxCell id="wQbSGYJbpUOdjl0NNNIN-309" value="REVEIVE_DATA" style="ellipse;whiteSpace=wrap;html=1;" vertex="1" parent="_OPWvbS_Ypv0JFXV-TA6-1">
          <mxGeometry x="677.5" y="3220" width="120" height="80" as="geometry" />
        </mxCell>
        <mxCell id="wQbSGYJbpUOdjl0NNNIN-310" value="CHECK_CONT" style="ellipse;whiteSpace=wrap;html=1;" vertex="1" parent="_OPWvbS_Ypv0JFXV-TA6-1">
          <mxGeometry x="477.5" y="3220" width="120" height="80" as="geometry" />
        </mxCell>
        <mxCell id="wQbSGYJbpUOdjl0NNNIN-311" value="" style="curved=1;endArrow=classic;html=1;exitX=0;exitY=0.5;exitDx=0;exitDy=0;entryX=0;entryY=0.5;entryDx=0;entryDy=0;" edge="1" parent="_OPWvbS_Ypv0JFXV-TA6-1" source="wQbSGYJbpUOdjl0NNNIN-310" target="wQbSGYJbpUOdjl0NNNIN-303">
          <mxGeometry width="50" height="50" relative="1" as="geometry">
            <mxPoint x="211.5" y="3290" as="sourcePoint" />
            <mxPoint x="271.5" y="3110" as="targetPoint" />
            <Array as="points">
              <mxPoint x="281.5" y="3250" />
              <mxPoint x="221.5" y="3170" />
            </Array>
          </mxGeometry>
        </mxCell>
        <mxCell id="wQbSGYJbpUOdjl0NNNIN-312" value="" style="curved=1;endArrow=classic;html=1;entryX=0;entryY=1;entryDx=0;entryDy=0;exitX=0;exitY=0;exitDx=0;exitDy=0;" edge="1" parent="_OPWvbS_Ypv0JFXV-TA6-1" source="wQbSGYJbpUOdjl0NNNIN-310" target="wQbSGYJbpUOdjl0NNNIN-305">
          <mxGeometry width="50" height="50" relative="1" as="geometry">
            <mxPoint x="331.5" y="3360" as="sourcePoint" />
            <mxPoint x="381.5" y="3310" as="targetPoint" />
            <Array as="points">
              <mxPoint x="451.5" y="3220" />
              <mxPoint x="421.5" y="3170" />
            </Array>
          </mxGeometry>
        </mxCell>
        <mxCell id="wQbSGYJbpUOdjl0NNNIN-313" value="down_cnt&amp;gt;0" style="text;html=1;resizable=0;points=[];autosize=1;align=left;verticalAlign=top;spacingTop=-4;" vertex="1" parent="_OPWvbS_Ypv0JFXV-TA6-1">
          <mxGeometry x="391" y="3060" width="80" height="20" as="geometry" />
        </mxCell>
        <mxCell id="wQbSGYJbpUOdjl0NNNIN-314" value="ARVLAD &amp;amp;&amp;amp; ARREADY" style="text;html=1;resizable=0;points=[];autosize=1;align=left;verticalAlign=top;spacingTop=-4;" vertex="1" parent="_OPWvbS_Ypv0JFXV-TA6-1">
          <mxGeometry x="562" y="3450" width="140" height="20" as="geometry" />
        </mxCell>
        <mxCell id="wQbSGYJbpUOdjl0NNNIN-315" value="read_burst_counter ==0" style="text;html=1;resizable=0;points=[];autosize=1;align=left;verticalAlign=top;spacingTop=-4;" vertex="1" parent="_OPWvbS_Ypv0JFXV-TA6-1">
          <mxGeometry x="277.5" y="3255" width="140" height="20" as="geometry" />
        </mxCell>
        <mxCell id="wQbSGYJbpUOdjl0NNNIN-316" value="" style="edgeStyle=orthogonalEdgeStyle;rounded=0;orthogonalLoop=1;jettySize=auto;html=1;" edge="1" parent="_OPWvbS_Ypv0JFXV-TA6-1" source="wQbSGYJbpUOdjl0NNNIN-317" target="wQbSGYJbpUOdjl0NNNIN-319">
          <mxGeometry relative="1" as="geometry" />
        </mxCell>
        <mxCell id="wQbSGYJbpUOdjl0NNNIN-317" value="128KRAM" style="rounded=0;whiteSpace=wrap;html=1;" vertex="1" parent="_OPWvbS_Ypv0JFXV-TA6-1">
          <mxGeometry x="311" y="3610" width="79" height="110" as="geometry" />
        </mxCell>
        <mxCell id="wQbSGYJbpUOdjl0NNNIN-318" style="edgeStyle=orthogonalEdgeStyle;rounded=0;orthogonalLoop=1;jettySize=auto;html=1;exitX=1;exitY=0.5;exitDx=0;exitDy=0;" edge="1" parent="_OPWvbS_Ypv0JFXV-TA6-1" source="wQbSGYJbpUOdjl0NNNIN-319">
          <mxGeometry relative="1" as="geometry">
            <mxPoint x="690" y="3665" as="targetPoint" />
          </mxGeometry>
        </mxCell>
        <mxCell id="wQbSGYJbpUOdjl0NNNIN-319" value="data_pkt" style="rounded=0;whiteSpace=wrap;html=1;" vertex="1" parent="_OPWvbS_Ypv0JFXV-TA6-1">
          <mxGeometry x="470" y="3610" width="79" height="110" as="geometry" />
        </mxCell>
        <mxCell id="wQbSGYJbpUOdjl0NNNIN-320" value="" style="edgeStyle=orthogonalEdgeStyle;rounded=0;orthogonalLoop=1;jettySize=auto;html=1;" edge="1" parent="_OPWvbS_Ypv0JFXV-TA6-1" source="wQbSGYJbpUOdjl0NNNIN-321" target="wQbSGYJbpUOdjl0NNNIN-323">
          <mxGeometry relative="1" as="geometry" />
        </mxCell>
        <mxCell id="wQbSGYJbpUOdjl0NNNIN-321" value="RAM" style="rounded=0;whiteSpace=wrap;html=1;" vertex="1" parent="_OPWvbS_Ypv0JFXV-TA6-1">
          <mxGeometry x="310" y="3750" width="79" height="110" as="geometry" />
        </mxCell>
        <mxCell id="wQbSGYJbpUOdjl0NNNIN-322" style="edgeStyle=orthogonalEdgeStyle;rounded=0;orthogonalLoop=1;jettySize=auto;html=1;exitX=1;exitY=0.5;exitDx=0;exitDy=0;" edge="1" parent="_OPWvbS_Ypv0JFXV-TA6-1" source="wQbSGYJbpUOdjl0NNNIN-323">
          <mxGeometry relative="1" as="geometry">
            <mxPoint x="690" y="3805" as="targetPoint" />
          </mxGeometry>
        </mxCell>
        <mxCell id="wQbSGYJbpUOdjl0NNNIN-323" value="&lt;span style=&quot;white-space: normal&quot;&gt;data_pkt&lt;/span&gt;" style="rounded=0;whiteSpace=wrap;html=1;" vertex="1" parent="_OPWvbS_Ypv0JFXV-TA6-1">
          <mxGeometry x="469" y="3750" width="79" height="110" as="geometry" />
        </mxCell>
        <mxCell id="wQbSGYJbpUOdjl0NNNIN-324" value="" style="edgeStyle=orthogonalEdgeStyle;rounded=0;orthogonalLoop=1;jettySize=auto;html=1;" edge="1" parent="_OPWvbS_Ypv0JFXV-TA6-1" source="wQbSGYJbpUOdjl0NNNIN-325" target="wQbSGYJbpUOdjl0NNNIN-327">
          <mxGeometry relative="1" as="geometry" />
        </mxCell>
        <mxCell id="wQbSGYJbpUOdjl0NNNIN-325" value="RAM" style="rounded=0;whiteSpace=wrap;html=1;" vertex="1" parent="_OPWvbS_Ypv0JFXV-TA6-1">
          <mxGeometry x="311" y="3890" width="79" height="110" as="geometry" />
        </mxCell>
        <mxCell id="wQbSGYJbpUOdjl0NNNIN-326" style="edgeStyle=orthogonalEdgeStyle;rounded=0;orthogonalLoop=1;jettySize=auto;html=1;exitX=1;exitY=0.5;exitDx=0;exitDy=0;" edge="1" parent="_OPWvbS_Ypv0JFXV-TA6-1" source="wQbSGYJbpUOdjl0NNNIN-327">
          <mxGeometry relative="1" as="geometry">
            <mxPoint x="690" y="3945" as="targetPoint" />
          </mxGeometry>
        </mxCell>
        <mxCell id="wQbSGYJbpUOdjl0NNNIN-327" value="&lt;span style=&quot;white-space: normal&quot;&gt;data_pkt&lt;/span&gt;" style="rounded=0;whiteSpace=wrap;html=1;" vertex="1" parent="_OPWvbS_Ypv0JFXV-TA6-1">
          <mxGeometry x="470" y="3890" width="79" height="110" as="geometry" />
        </mxCell>
        <mxCell id="wQbSGYJbpUOdjl0NNNIN-328" value="" style="edgeStyle=orthogonalEdgeStyle;rounded=0;orthogonalLoop=1;jettySize=auto;html=1;" edge="1" parent="_OPWvbS_Ypv0JFXV-TA6-1" source="wQbSGYJbpUOdjl0NNNIN-329" target="wQbSGYJbpUOdjl0NNNIN-331">
          <mxGeometry relative="1" as="geometry" />
        </mxCell>
        <mxCell id="wQbSGYJbpUOdjl0NNNIN-329" value="RAM" style="rounded=0;whiteSpace=wrap;html=1;" vertex="1" parent="_OPWvbS_Ypv0JFXV-TA6-1">
          <mxGeometry x="309" y="4030" width="79" height="110" as="geometry" />
        </mxCell>
        <mxCell id="wQbSGYJbpUOdjl0NNNIN-330" style="edgeStyle=orthogonalEdgeStyle;rounded=0;orthogonalLoop=1;jettySize=auto;html=1;exitX=1;exitY=0.5;exitDx=0;exitDy=0;" edge="1" parent="_OPWvbS_Ypv0JFXV-TA6-1" source="wQbSGYJbpUOdjl0NNNIN-331">
          <mxGeometry relative="1" as="geometry">
            <mxPoint x="680" y="4085" as="targetPoint" />
          </mxGeometry>
        </mxCell>
        <mxCell id="wQbSGYJbpUOdjl0NNNIN-331" value="&lt;span style=&quot;white-space: normal&quot;&gt;data_pkt&lt;/span&gt;" style="rounded=0;whiteSpace=wrap;html=1;" vertex="1" parent="_OPWvbS_Ypv0JFXV-TA6-1">
          <mxGeometry x="468" y="4030" width="79" height="110" as="geometry" />
        </mxCell>
        <mxCell id="wQbSGYJbpUOdjl0NNNIN-332" style="edgeStyle=orthogonalEdgeStyle;rounded=0;orthogonalLoop=1;jettySize=auto;html=1;exitX=1;exitY=0.5;exitDx=0;exitDy=0;entryX=0;entryY=0.5;entryDx=0;entryDy=0;exitPerimeter=0;" edge="1" parent="_OPWvbS_Ypv0JFXV-TA6-1" source="wQbSGYJbpUOdjl0NNNIN-336" target="wQbSGYJbpUOdjl0NNNIN-317">
          <mxGeometry relative="1" as="geometry" />
        </mxCell>
        <mxCell id="wQbSGYJbpUOdjl0NNNIN-333" style="edgeStyle=orthogonalEdgeStyle;rounded=0;orthogonalLoop=1;jettySize=auto;html=1;exitX=1;exitY=0.5;exitDx=0;exitDy=0;entryX=0;entryY=0.5;entryDx=0;entryDy=0;" edge="1" parent="_OPWvbS_Ypv0JFXV-TA6-1" source="wQbSGYJbpUOdjl0NNNIN-336" target="wQbSGYJbpUOdjl0NNNIN-321">
          <mxGeometry relative="1" as="geometry" />
        </mxCell>
        <mxCell id="wQbSGYJbpUOdjl0NNNIN-334" style="edgeStyle=orthogonalEdgeStyle;rounded=0;orthogonalLoop=1;jettySize=auto;html=1;exitX=1;exitY=0.5;exitDx=0;exitDy=0;" edge="1" parent="_OPWvbS_Ypv0JFXV-TA6-1" source="wQbSGYJbpUOdjl0NNNIN-336" target="wQbSGYJbpUOdjl0NNNIN-325">
          <mxGeometry relative="1" as="geometry" />
        </mxCell>
        <mxCell id="wQbSGYJbpUOdjl0NNNIN-335" style="edgeStyle=orthogonalEdgeStyle;rounded=0;orthogonalLoop=1;jettySize=auto;html=1;exitX=1;exitY=0.5;exitDx=0;exitDy=0;entryX=0.013;entryY=0.564;entryDx=0;entryDy=0;entryPerimeter=0;" edge="1" parent="_OPWvbS_Ypv0JFXV-TA6-1" source="wQbSGYJbpUOdjl0NNNIN-336" target="wQbSGYJbpUOdjl0NNNIN-329">
          <mxGeometry relative="1" as="geometry" />
        </mxCell>
        <mxCell id="wQbSGYJbpUOdjl0NNNIN-336" value="MUX" style="rounded=0;whiteSpace=wrap;html=1;" vertex="1" parent="_OPWvbS_Ypv0JFXV-TA6-1">
          <mxGeometry x="64" y="3730" width="120" height="240" as="geometry" />
        </mxCell>
        <mxCell id="wQbSGYJbpUOdjl0NNNIN-337" value="" style="endArrow=classic;html=1;entryX=0;entryY=0.5;entryDx=0;entryDy=0;" edge="1" parent="_OPWvbS_Ypv0JFXV-TA6-1" target="wQbSGYJbpUOdjl0NNNIN-336">
          <mxGeometry width="50" height="50" relative="1" as="geometry">
            <mxPoint x="-110" y="3850" as="sourcePoint" />
            <mxPoint x="-70" y="3810" as="targetPoint" />
          </mxGeometry>
        </mxCell>
        <mxCell id="wQbSGYJbpUOdjl0NNNIN-338" value="ddr4_vld &amp;amp;&amp;amp; ddr4_rdat" style="text;html=1;resizable=0;points=[];autosize=1;align=left;verticalAlign=top;spacingTop=-4;" vertex="1" parent="_OPWvbS_Ypv0JFXV-TA6-1">
          <mxGeometry x="-95" y="3829" width="140" height="20" as="geometry" />
        </mxCell>
        <mxCell id="wQbSGYJbpUOdjl0NNNIN-339" value="sop/eop/data/vld" style="text;html=1;resizable=0;points=[];autosize=1;align=left;verticalAlign=top;spacingTop=-4;" vertex="1" parent="_OPWvbS_Ypv0JFXV-TA6-1">
          <mxGeometry x="609" y="3642" width="100" height="20" as="geometry" />
        </mxCell>
        <mxCell id="wQbSGYJbpUOdjl0NNNIN-340" value="sop/eop/data/vld" style="text;html=1;resizable=0;points=[];autosize=1;align=left;verticalAlign=top;spacingTop=-4;" vertex="1" parent="_OPWvbS_Ypv0JFXV-TA6-1">
          <mxGeometry x="609" y="3781" width="100" height="20" as="geometry" />
        </mxCell>
        <mxCell id="wQbSGYJbpUOdjl0NNNIN-341" value="sop/eop/data/vld" style="text;html=1;resizable=0;points=[];autosize=1;align=left;verticalAlign=top;spacingTop=-4;" vertex="1" parent="_OPWvbS_Ypv0JFXV-TA6-1">
          <mxGeometry x="609" y="3920" width="100" height="20" as="geometry" />
        </mxCell>
        <mxCell id="wQbSGYJbpUOdjl0NNNIN-342" value="sop/eop/data/vld" style="text;html=1;resizable=0;points=[];autosize=1;align=left;verticalAlign=top;spacingTop=-4;" vertex="1" parent="_OPWvbS_Ypv0JFXV-TA6-1">
          <mxGeometry x="608.5" y="4060" width="100" height="20" as="geometry" />
        </mxCell>
        <mxCell id="wQbSGYJbpUOdjl0NNNIN-343" value="" style="rounded=0;whiteSpace=wrap;html=1;fillColor=none;" vertex="1" parent="_OPWvbS_Ypv0JFXV-TA6-1">
          <mxGeometry x="30" y="3520" width="570" height="650" as="geometry" />
        </mxCell>
        <mxCell id="wQbSGYJbpUOdjl0NNNIN-344" value="pkt_analysis_top&lt;br&gt;" style="text;html=1;strokeColor=none;fillColor=none;align=center;verticalAlign=middle;whiteSpace=wrap;rounded=0;" vertex="1" parent="_OPWvbS_Ypv0JFXV-TA6-1">
          <mxGeometry x="232" y="3540" width="149" height="20" as="geometry" />
        </mxCell>
        <mxCell id="wQbSGYJbpUOdjl0NNNIN-345" style="edgeStyle=orthogonalEdgeStyle;rounded=0;orthogonalLoop=1;jettySize=auto;html=1;exitX=1;exitY=0.75;exitDx=0;exitDy=0;entryX=0;entryY=0.5;entryDx=0;entryDy=0;" edge="1" parent="_OPWvbS_Ypv0JFXV-TA6-1" source="wQbSGYJbpUOdjl0NNNIN-347" target="wQbSGYJbpUOdjl0NNNIN-351">
          <mxGeometry relative="1" as="geometry" />
        </mxCell>
        <mxCell id="wQbSGYJbpUOdjl0NNNIN-346" style="edgeStyle=orthogonalEdgeStyle;rounded=0;orthogonalLoop=1;jettySize=auto;html=1;exitX=1;exitY=0.25;exitDx=0;exitDy=0;entryX=0;entryY=0.5;entryDx=0;entryDy=0;" edge="1" parent="_OPWvbS_Ypv0JFXV-TA6-1" source="wQbSGYJbpUOdjl0NNNIN-347" target="wQbSGYJbpUOdjl0NNNIN-349">
          <mxGeometry relative="1" as="geometry" />
        </mxCell>
        <mxCell id="wQbSGYJbpUOdjl0NNNIN-347" value="pkt_analysis_top" style="rounded=0;whiteSpace=wrap;html=1;fillColor=none;" vertex="1" parent="_OPWvbS_Ypv0JFXV-TA6-1">
          <mxGeometry x="73" y="4400" width="120" height="220" as="geometry" />
        </mxCell>
        <mxCell id="wQbSGYJbpUOdjl0NNNIN-348" style="edgeStyle=orthogonalEdgeStyle;rounded=0;orthogonalLoop=1;jettySize=auto;html=1;exitX=1;exitY=0.5;exitDx=0;exitDy=0;entryX=0;entryY=0.25;entryDx=0;entryDy=0;" edge="1" parent="_OPWvbS_Ypv0JFXV-TA6-1" source="wQbSGYJbpUOdjl0NNNIN-349" target="wQbSGYJbpUOdjl0NNNIN-355">
          <mxGeometry relative="1" as="geometry" />
        </mxCell>
        <mxCell id="wQbSGYJbpUOdjl0NNNIN-349" value="calculate_ctl_top" style="rounded=0;whiteSpace=wrap;html=1;fillColor=none;" vertex="1" parent="_OPWvbS_Ypv0JFXV-TA6-1">
          <mxGeometry x="298" y="4380" width="120" height="110" as="geometry" />
        </mxCell>
        <mxCell id="wQbSGYJbpUOdjl0NNNIN-350" style="edgeStyle=orthogonalEdgeStyle;rounded=0;orthogonalLoop=1;jettySize=auto;html=1;entryX=0;entryY=0.75;entryDx=0;entryDy=0;" edge="1" parent="_OPWvbS_Ypv0JFXV-TA6-1" source="wQbSGYJbpUOdjl0NNNIN-351" target="wQbSGYJbpUOdjl0NNNIN-355">
          <mxGeometry relative="1" as="geometry" />
        </mxCell>
        <mxCell id="wQbSGYJbpUOdjl0NNNIN-351" value="calculate_ctl_top" style="rounded=0;whiteSpace=wrap;html=1;fillColor=none;" vertex="1" parent="_OPWvbS_Ypv0JFXV-TA6-1">
          <mxGeometry x="295.5" y="4530" width="120" height="100" as="geometry" />
        </mxCell>
        <mxCell id="wQbSGYJbpUOdjl0NNNIN-352" style="edgeStyle=orthogonalEdgeStyle;rounded=0;orthogonalLoop=1;jettySize=auto;html=1;exitX=1;exitY=0.5;exitDx=0;exitDy=0;" edge="1" parent="_OPWvbS_Ypv0JFXV-TA6-1" source="wQbSGYJbpUOdjl0NNNIN-353">
          <mxGeometry relative="1" as="geometry">
            <mxPoint x="840" y="4505" as="targetPoint" />
          </mxGeometry>
        </mxCell>
        <mxCell id="wQbSGYJbpUOdjl0NNNIN-353" value="result_fifo" style="rounded=0;whiteSpace=wrap;html=1;fillColor=none;" vertex="1" parent="_OPWvbS_Ypv0JFXV-TA6-1">
          <mxGeometry x="620" y="4455" width="92" height="100" as="geometry" />
        </mxCell>
        <mxCell id="wQbSGYJbpUOdjl0NNNIN-354" style="edgeStyle=orthogonalEdgeStyle;rounded=0;orthogonalLoop=1;jettySize=auto;html=1;exitX=1;exitY=0.5;exitDx=0;exitDy=0;entryX=0;entryY=0.5;entryDx=0;entryDy=0;" edge="1" parent="_OPWvbS_Ypv0JFXV-TA6-1" source="wQbSGYJbpUOdjl0NNNIN-355" target="wQbSGYJbpUOdjl0NNNIN-353">
          <mxGeometry relative="1" as="geometry" />
        </mxCell>
        <mxCell id="wQbSGYJbpUOdjl0NNNIN-355" value="MUX" style="rounded=0;whiteSpace=wrap;html=1;fillColor=none;" vertex="1" parent="_OPWvbS_Ypv0JFXV-TA6-1">
          <mxGeometry x="492.5" y="4450" width="61" height="110" as="geometry" />
        </mxCell>
        <mxCell id="wQbSGYJbpUOdjl0NNNIN-356" value="M_AXI_WDATA" style="text;html=1;resizable=0;points=[];autosize=1;align=left;verticalAlign=top;spacingTop=-4;" vertex="1" parent="_OPWvbS_Ypv0JFXV-TA6-1">
          <mxGeometry x="758.5" y="4477" width="100" height="20" as="geometry" />
        </mxCell>
        <mxCell id="wQbSGYJbpUOdjl0NNNIN-357" style="edgeStyle=orthogonalEdgeStyle;rounded=0;orthogonalLoop=1;jettySize=auto;html=1;exitX=1;exitY=0.5;exitDx=0;exitDy=0;entryX=0;entryY=0.75;entryDx=0;entryDy=0;" edge="1" parent="_OPWvbS_Ypv0JFXV-TA6-1" source="wQbSGYJbpUOdjl0NNNIN-358" target="wQbSGYJbpUOdjl0NNNIN-374">
          <mxGeometry relative="1" as="geometry" />
        </mxCell>
        <mxCell id="wQbSGYJbpUOdjl0NNNIN-358" value="32&#39;H0000_0000&lt;br&gt;32&#39;H8000_0000" style="rounded=0;whiteSpace=wrap;html=1;fillColor=none;" vertex="1" parent="_OPWvbS_Ypv0JFXV-TA6-1">
          <mxGeometry x="-179" y="4440" width="120" height="172" as="geometry" />
        </mxCell>
        <mxCell id="wQbSGYJbpUOdjl0NNNIN-359" value="" style="edgeStyle=orthogonalEdgeStyle;rounded=0;orthogonalLoop=1;jettySize=auto;html=1;" edge="1" parent="_OPWvbS_Ypv0JFXV-TA6-1" source="wQbSGYJbpUOdjl0NNNIN-360" target="wQbSGYJbpUOdjl0NNNIN-362">
          <mxGeometry relative="1" as="geometry" />
        </mxCell>
        <mxCell id="wQbSGYJbpUOdjl0NNNIN-360" value="W_IDLE" style="ellipse;whiteSpace=wrap;html=1;fillColor=none;" vertex="1" parent="_OPWvbS_Ypv0JFXV-TA6-1">
          <mxGeometry x="151" y="4850" width="120" height="80" as="geometry" />
        </mxCell>
        <mxCell id="wQbSGYJbpUOdjl0NNNIN-361" value="" style="edgeStyle=orthogonalEdgeStyle;rounded=0;orthogonalLoop=1;jettySize=auto;html=1;" edge="1" parent="_OPWvbS_Ypv0JFXV-TA6-1" source="wQbSGYJbpUOdjl0NNNIN-362" target="wQbSGYJbpUOdjl0NNNIN-364">
          <mxGeometry relative="1" as="geometry" />
        </mxCell>
        <mxCell id="wQbSGYJbpUOdjl0NNNIN-362" value="W_WAIT_FIFO" style="ellipse;whiteSpace=wrap;html=1;fillColor=none;" vertex="1" parent="_OPWvbS_Ypv0JFXV-TA6-1">
          <mxGeometry x="351" y="4850" width="120" height="80" as="geometry" />
        </mxCell>
        <mxCell id="wQbSGYJbpUOdjl0NNNIN-363" value="" style="edgeStyle=orthogonalEdgeStyle;rounded=0;orthogonalLoop=1;jettySize=auto;html=1;" edge="1" parent="_OPWvbS_Ypv0JFXV-TA6-1" source="wQbSGYJbpUOdjl0NNNIN-364" target="wQbSGYJbpUOdjl0NNNIN-366">
          <mxGeometry relative="1" as="geometry" />
        </mxCell>
        <mxCell id="wQbSGYJbpUOdjl0NNNIN-364" value="W_WAIT_START" style="ellipse;whiteSpace=wrap;html=1;fillColor=none;" vertex="1" parent="_OPWvbS_Ypv0JFXV-TA6-1">
          <mxGeometry x="551" y="4850" width="120" height="80" as="geometry" />
        </mxCell>
        <mxCell id="wQbSGYJbpUOdjl0NNNIN-365" value="" style="edgeStyle=orthogonalEdgeStyle;rounded=0;orthogonalLoop=1;jettySize=auto;html=1;" edge="1" parent="_OPWvbS_Ypv0JFXV-TA6-1" source="wQbSGYJbpUOdjl0NNNIN-366" target="wQbSGYJbpUOdjl0NNNIN-368">
          <mxGeometry relative="1" as="geometry" />
        </mxCell>
        <mxCell id="wQbSGYJbpUOdjl0NNNIN-366" value="W_SEND_ADDR" style="ellipse;whiteSpace=wrap;html=1;fillColor=none;" vertex="1" parent="_OPWvbS_Ypv0JFXV-TA6-1">
          <mxGeometry x="551" y="5010" width="120" height="80" as="geometry" />
        </mxCell>
        <mxCell id="wQbSGYJbpUOdjl0NNNIN-367" value="" style="edgeStyle=orthogonalEdgeStyle;rounded=0;orthogonalLoop=1;jettySize=auto;html=1;" edge="1" parent="_OPWvbS_Ypv0JFXV-TA6-1" source="wQbSGYJbpUOdjl0NNNIN-368" target="wQbSGYJbpUOdjl0NNNIN-370">
          <mxGeometry relative="1" as="geometry" />
        </mxCell>
        <mxCell id="wQbSGYJbpUOdjl0NNNIN-368" value="W_WRITE_DATA" style="ellipse;whiteSpace=wrap;html=1;fillColor=none;" vertex="1" parent="_OPWvbS_Ypv0JFXV-TA6-1">
          <mxGeometry x="351" y="5010" width="120" height="80" as="geometry" />
        </mxCell>
        <mxCell id="wQbSGYJbpUOdjl0NNNIN-369" style="edgeStyle=orthogonalEdgeStyle;rounded=0;orthogonalLoop=1;jettySize=auto;html=1;exitX=0.5;exitY=0;exitDx=0;exitDy=0;entryX=0.5;entryY=1;entryDx=0;entryDy=0;" edge="1" parent="_OPWvbS_Ypv0JFXV-TA6-1" source="wQbSGYJbpUOdjl0NNNIN-370" target="wQbSGYJbpUOdjl0NNNIN-360">
          <mxGeometry relative="1" as="geometry" />
        </mxCell>
        <mxCell id="wQbSGYJbpUOdjl0NNNIN-370" value="W_CHECK_CONT" style="ellipse;whiteSpace=wrap;html=1;fillColor=none;" vertex="1" parent="_OPWvbS_Ypv0JFXV-TA6-1">
          <mxGeometry x="151" y="5010" width="120" height="80" as="geometry" />
        </mxCell>
        <mxCell id="wQbSGYJbpUOdjl0NNNIN-371" value="" style="curved=1;endArrow=classic;html=1;entryX=0.5;entryY=1;entryDx=0;entryDy=0;" edge="1" parent="_OPWvbS_Ypv0JFXV-TA6-1" target="wQbSGYJbpUOdjl0NNNIN-362">
          <mxGeometry width="50" height="50" relative="1" as="geometry">
            <mxPoint x="250" y="5020" as="sourcePoint" />
            <mxPoint x="350" y="4950" as="targetPoint" />
            <Array as="points">
              <mxPoint x="350" y="5000" />
              <mxPoint x="300" y="4950" />
            </Array>
          </mxGeometry>
        </mxCell>
        <mxCell id="wQbSGYJbpUOdjl0NNNIN-372" value="AXI_READ" style="text;html=1;resizable=0;points=[];autosize=1;align=left;verticalAlign=top;spacingTop=-4;" vertex="1" parent="_OPWvbS_Ypv0JFXV-TA6-1">
          <mxGeometry x="-52" y="4500" width="70" height="20" as="geometry" />
        </mxCell>
        <mxCell id="wQbSGYJbpUOdjl0NNNIN-373" style="edgeStyle=orthogonalEdgeStyle;rounded=0;orthogonalLoop=1;jettySize=auto;html=1;exitX=0;exitY=0.5;exitDx=0;exitDy=0;entryX=1.025;entryY=0.617;entryDx=0;entryDy=0;entryPerimeter=0;" edge="1" parent="_OPWvbS_Ypv0JFXV-TA6-1" source="wQbSGYJbpUOdjl0NNNIN-374" target="wQbSGYJbpUOdjl0NNNIN-376">
          <mxGeometry relative="1" as="geometry" />
        </mxCell>
        <mxCell id="wQbSGYJbpUOdjl0NNNIN-374" value="" style="rounded=0;whiteSpace=wrap;html=1;fillColor=none;" vertex="1" parent="_OPWvbS_Ypv0JFXV-TA6-1">
          <mxGeometry x="25" y="4260" width="725" height="400" as="geometry" />
        </mxCell>
        <mxCell id="wQbSGYJbpUOdjl0NNNIN-375" value="&lt;b&gt;&lt;font style=&quot;font-size: 21px&quot;&gt;axi4_master&lt;/font&gt;&lt;/b&gt;" style="text;html=1;resizable=0;points=[];autosize=1;align=left;verticalAlign=top;spacingTop=-4;" vertex="1" parent="_OPWvbS_Ypv0JFXV-TA6-1">
          <mxGeometry x="325" y="4300" width="140" height="20" as="geometry" />
        </mxCell>
        <mxCell id="wQbSGYJbpUOdjl0NNNIN-376" value="32&#39;H9000_0000&lt;br&gt;32&#39;Ha000_0000" style="rounded=0;whiteSpace=wrap;html=1;fillColor=none;" vertex="1" parent="_OPWvbS_Ypv0JFXV-TA6-1">
          <mxGeometry x="-179" y="4380" width="120" height="60" as="geometry" />
        </mxCell>
        <mxCell id="wQbSGYJbpUOdjl0NNNIN-377" value="AXI_WRITE" style="text;html=1;resizable=0;points=[];autosize=1;align=left;verticalAlign=top;spacingTop=-4;" vertex="1" parent="_OPWvbS_Ypv0JFXV-TA6-1">
          <mxGeometry x="-49" y="4386" width="80" height="20" as="geometry" />
        </mxCell>
      </root>
    </mxGraphModel>
  </diagram>
  <diagram id="D9hj09IFKSDuULSzIpqi" name="PU">
    <mxGraphModel dx="1373" dy="774" grid="1" gridSize="10" guides="1" tooltips="1" connect="1" arrows="1" fold="1" page="1" pageScale="1" pageWidth="1169" pageHeight="1654" math="0" shadow="0">
      <root>
        <mxCell id="zSKXICegTuSCaYziafdU-0" />
        <mxCell id="zSKXICegTuSCaYziafdU-1" parent="zSKXICegTuSCaYziafdU-0" />
        <mxCell id="huY-KVxdnGIUqzrhPoMj-0" value="PE" style="rounded=0;whiteSpace=wrap;html=1;" parent="zSKXICegTuSCaYziafdU-1" vertex="1">
          <mxGeometry x="280" y="240" width="80" height="200" as="geometry" />
        </mxCell>
        <mxCell id="huY-KVxdnGIUqzrhPoMj-3" value="PE" style="rounded=0;whiteSpace=wrap;html=1;" parent="zSKXICegTuSCaYziafdU-1" vertex="1">
          <mxGeometry x="400" y="240" width="80" height="200" as="geometry" />
        </mxCell>
        <mxCell id="huY-KVxdnGIUqzrhPoMj-4" value="PE" style="rounded=0;whiteSpace=wrap;html=1;" parent="zSKXICegTuSCaYziafdU-1" vertex="1">
          <mxGeometry x="520" y="240" width="80" height="200" as="geometry" />
        </mxCell>
        <mxCell id="huY-KVxdnGIUqzrhPoMj-5" value="PE" style="rounded=0;whiteSpace=wrap;html=1;" parent="zSKXICegTuSCaYziafdU-1" vertex="1">
          <mxGeometry x="720" y="240" width="80" height="200" as="geometry" />
        </mxCell>
        <mxCell id="huY-KVxdnGIUqzrhPoMj-6" value="" style="endArrow=none;dashed=1;html=1;dashPattern=1 3;strokeWidth=2;" parent="zSKXICegTuSCaYziafdU-1" edge="1">
          <mxGeometry width="50" height="50" relative="1" as="geometry">
            <mxPoint x="630" y="340" as="sourcePoint" />
            <mxPoint x="690" y="340" as="targetPoint" />
          </mxGeometry>
        </mxCell>
        <mxCell id="huY-KVxdnGIUqzrhPoMj-7" value="FIFO" style="rounded=0;whiteSpace=wrap;html=1;" parent="zSKXICegTuSCaYziafdU-1" vertex="1">
          <mxGeometry x="455" y="130" width="210" height="60" as="geometry" />
        </mxCell>
      </root>
    </mxGraphModel>
  </diagram>
  <diagram id="AFts717O5FoenkDb8x3s" name="TraceBack">
    <mxGraphModel dx="1373" dy="774" grid="1" gridSize="10" guides="1" tooltips="1" connect="1" arrows="1" fold="1" page="1" pageScale="1" pageWidth="1169" pageHeight="1654" math="0" shadow="0">
      <root>
        <mxCell id="t8IIQJNQdLz5LZhsKjQg-0" />
        <mxCell id="t8IIQJNQdLz5LZhsKjQg-1" parent="t8IIQJNQdLz5LZhsKjQg-0" />
        <mxCell id="hxQxge-Xa8eKgvYP2V6d-5" style="edgeStyle=orthogonalEdgeStyle;rounded=0;orthogonalLoop=1;jettySize=auto;html=1;exitX=1;exitY=0.5;exitDx=0;exitDy=0;entryX=0;entryY=0.5;entryDx=0;entryDy=0;" parent="t8IIQJNQdLz5LZhsKjQg-1" source="hxQxge-Xa8eKgvYP2V6d-0" target="hxQxge-Xa8eKgvYP2V6d-1" edge="1">
          <mxGeometry relative="1" as="geometry" />
        </mxCell>
        <mxCell id="hxQxge-Xa8eKgvYP2V6d-0" value="TB_IDLE" style="ellipse;whiteSpace=wrap;html=1;" parent="t8IIQJNQdLz5LZhsKjQg-1" vertex="1">
          <mxGeometry x="230" y="340" width="120" height="80" as="geometry" />
        </mxCell>
        <mxCell id="hxQxge-Xa8eKgvYP2V6d-8" style="edgeStyle=orthogonalEdgeStyle;rounded=0;orthogonalLoop=1;jettySize=auto;html=1;exitX=1;exitY=0.5;exitDx=0;exitDy=0;entryX=0;entryY=0.5;entryDx=0;entryDy=0;" parent="t8IIQJNQdLz5LZhsKjQg-1" source="hxQxge-Xa8eKgvYP2V6d-1" target="hxQxge-Xa8eKgvYP2V6d-2" edge="1">
          <mxGeometry relative="1" as="geometry" />
        </mxCell>
        <mxCell id="hxQxge-Xa8eKgvYP2V6d-1" value="TB_START" style="ellipse;whiteSpace=wrap;html=1;" parent="t8IIQJNQdLz5LZhsKjQg-1" vertex="1">
          <mxGeometry x="520" y="340" width="120" height="80" as="geometry" />
        </mxCell>
        <mxCell id="hxQxge-Xa8eKgvYP2V6d-9" style="edgeStyle=orthogonalEdgeStyle;rounded=0;orthogonalLoop=1;jettySize=auto;html=1;exitX=0.5;exitY=1;exitDx=0;exitDy=0;" parent="t8IIQJNQdLz5LZhsKjQg-1" source="hxQxge-Xa8eKgvYP2V6d-2" target="hxQxge-Xa8eKgvYP2V6d-7" edge="1">
          <mxGeometry relative="1" as="geometry" />
        </mxCell>
        <mxCell id="hxQxge-Xa8eKgvYP2V6d-2" value="TB_HOLD" style="ellipse;whiteSpace=wrap;html=1;" parent="t8IIQJNQdLz5LZhsKjQg-1" vertex="1">
          <mxGeometry x="770" y="340" width="120" height="80" as="geometry" />
        </mxCell>
        <mxCell id="hxQxge-Xa8eKgvYP2V6d-11" style="edgeStyle=orthogonalEdgeStyle;rounded=0;orthogonalLoop=1;jettySize=auto;html=1;exitX=0;exitY=0.5;exitDx=0;exitDy=0;" parent="t8IIQJNQdLz5LZhsKjQg-1" source="hxQxge-Xa8eKgvYP2V6d-3" target="hxQxge-Xa8eKgvYP2V6d-4" edge="1">
          <mxGeometry relative="1" as="geometry" />
        </mxCell>
        <mxCell id="hxQxge-Xa8eKgvYP2V6d-3" value="TB_FLASH" style="ellipse;whiteSpace=wrap;html=1;" parent="t8IIQJNQdLz5LZhsKjQg-1" vertex="1">
          <mxGeometry x="520" y="500" width="120" height="80" as="geometry" />
        </mxCell>
        <mxCell id="hxQxge-Xa8eKgvYP2V6d-12" style="edgeStyle=orthogonalEdgeStyle;rounded=0;orthogonalLoop=1;jettySize=auto;html=1;exitX=0.5;exitY=0;exitDx=0;exitDy=0;entryX=0.5;entryY=1;entryDx=0;entryDy=0;" parent="t8IIQJNQdLz5LZhsKjQg-1" source="hxQxge-Xa8eKgvYP2V6d-4" target="hxQxge-Xa8eKgvYP2V6d-0" edge="1">
          <mxGeometry relative="1" as="geometry" />
        </mxCell>
        <mxCell id="hxQxge-Xa8eKgvYP2V6d-4" value="TB_DONE" style="ellipse;whiteSpace=wrap;html=1;" parent="t8IIQJNQdLz5LZhsKjQg-1" vertex="1">
          <mxGeometry x="230" y="500" width="120" height="80" as="geometry" />
        </mxCell>
        <mxCell id="hxQxge-Xa8eKgvYP2V6d-10" style="edgeStyle=orthogonalEdgeStyle;rounded=0;orthogonalLoop=1;jettySize=auto;html=1;exitX=0;exitY=0.5;exitDx=0;exitDy=0;entryX=1;entryY=0.5;entryDx=0;entryDy=0;" parent="t8IIQJNQdLz5LZhsKjQg-1" source="hxQxge-Xa8eKgvYP2V6d-7" target="hxQxge-Xa8eKgvYP2V6d-3" edge="1">
          <mxGeometry relative="1" as="geometry" />
        </mxCell>
        <mxCell id="hxQxge-Xa8eKgvYP2V6d-7" value="TB_CAL" style="ellipse;whiteSpace=wrap;html=1;" parent="t8IIQJNQdLz5LZhsKjQg-1" vertex="1">
          <mxGeometry x="770" y="500" width="120" height="80" as="geometry" />
        </mxCell>
        <mxCell id="hxQxge-Xa8eKgvYP2V6d-14" value="" style="curved=1;endArrow=classic;html=1;exitX=1;exitY=0.5;exitDx=0;exitDy=0;entryX=0.5;entryY=0;entryDx=0;entryDy=0;" parent="t8IIQJNQdLz5LZhsKjQg-1" source="hxQxge-Xa8eKgvYP2V6d-2" target="hxQxge-Xa8eKgvYP2V6d-2" edge="1">
          <mxGeometry width="50" height="50" relative="1" as="geometry">
            <mxPoint x="900" y="260" as="sourcePoint" />
            <mxPoint x="950" y="210" as="targetPoint" />
            <Array as="points">
              <mxPoint x="940" y="390" />
              <mxPoint x="940" y="330" />
              <mxPoint x="920" y="290" />
              <mxPoint x="830" y="280" />
            </Array>
          </mxGeometry>
        </mxCell>
      </root>
    </mxGraphModel>
  </diagram>
  <diagram id="OGRBL-_hN35sh6AbodgZ" name="top">
    <mxGraphModel dx="1373" dy="774" grid="1" gridSize="10" guides="1" tooltips="1" connect="1" arrows="1" fold="1" page="1" pageScale="1" pageWidth="1169" pageHeight="1654" math="0" shadow="0">
      <root>
        <mxCell id="ByxcCswgJjorpRk-0xXt-0" />
        <mxCell id="ByxcCswgJjorpRk-0xXt-1" parent="ByxcCswgJjorpRk-0xXt-0" />
        <mxCell id="Guge9HG4n6chY4lUv3vW-0" style="edgeStyle=orthogonalEdgeStyle;rounded=0;orthogonalLoop=1;jettySize=auto;html=1;exitX=0.5;exitY=1;exitDx=0;exitDy=0;" edge="1" parent="ByxcCswgJjorpRk-0xXt-1" source="Guge9HG4n6chY4lUv3vW-2" target="Guge9HG4n6chY4lUv3vW-18">
          <mxGeometry relative="1" as="geometry" />
        </mxCell>
        <mxCell id="Guge9HG4n6chY4lUv3vW-1" style="edgeStyle=orthogonalEdgeStyle;rounded=0;orthogonalLoop=1;jettySize=auto;html=1;exitX=0.25;exitY=1;exitDx=0;exitDy=0;fillColor=#dae8fc;strokeColor=#6c8ebf;" edge="1" parent="ByxcCswgJjorpRk-0xXt-1" source="Guge9HG4n6chY4lUv3vW-2" target="Guge9HG4n6chY4lUv3vW-30">
          <mxGeometry relative="1" as="geometry">
            <Array as="points">
              <mxPoint x="111" y="1840" />
              <mxPoint x="323" y="1840" />
            </Array>
          </mxGeometry>
        </mxCell>
        <mxCell id="Guge9HG4n6chY4lUv3vW-2" value="sw_send" style="rounded=0;whiteSpace=wrap;html=1;" vertex="1" parent="ByxcCswgJjorpRk-0xXt-1">
          <mxGeometry x="80.5" y="1690" width="120" height="70" as="geometry" />
        </mxCell>
        <mxCell id="Guge9HG4n6chY4lUv3vW-3" style="edgeStyle=orthogonalEdgeStyle;rounded=0;orthogonalLoop=1;jettySize=auto;html=1;exitX=0.5;exitY=1;exitDx=0;exitDy=0;entryX=0.5;entryY=0;entryDx=0;entryDy=0;" edge="1" parent="ByxcCswgJjorpRk-0xXt-1" source="Guge9HG4n6chY4lUv3vW-5" target="Guge9HG4n6chY4lUv3vW-18">
          <mxGeometry relative="1" as="geometry" />
        </mxCell>
        <mxCell id="Guge9HG4n6chY4lUv3vW-4" style="edgeStyle=orthogonalEdgeStyle;rounded=0;orthogonalLoop=1;jettySize=auto;html=1;exitX=0.25;exitY=1;exitDx=0;exitDy=0;entryX=0.536;entryY=-0.033;entryDx=0;entryDy=0;entryPerimeter=0;fillColor=#dae8fc;strokeColor=#6c8ebf;" edge="1" parent="ByxcCswgJjorpRk-0xXt-1" source="Guge9HG4n6chY4lUv3vW-5" target="Guge9HG4n6chY4lUv3vW-30">
          <mxGeometry relative="1" as="geometry">
            <Array as="points">
              <mxPoint x="258" y="1840" />
              <mxPoint x="324" y="1840" />
            </Array>
          </mxGeometry>
        </mxCell>
        <mxCell id="Guge9HG4n6chY4lUv3vW-5" value="sw_send" style="rounded=0;whiteSpace=wrap;html=1;" vertex="1" parent="ByxcCswgJjorpRk-0xXt-1">
          <mxGeometry x="228" y="1690" width="120" height="70" as="geometry" />
        </mxCell>
        <mxCell id="Guge9HG4n6chY4lUv3vW-6" style="edgeStyle=orthogonalEdgeStyle;rounded=0;orthogonalLoop=1;jettySize=auto;html=1;exitX=0.5;exitY=1;exitDx=0;exitDy=0;" edge="1" parent="ByxcCswgJjorpRk-0xXt-1" source="Guge9HG4n6chY4lUv3vW-8">
          <mxGeometry relative="1" as="geometry">
            <mxPoint x="580" y="1880" as="targetPoint" />
          </mxGeometry>
        </mxCell>
        <mxCell id="Guge9HG4n6chY4lUv3vW-7" style="edgeStyle=orthogonalEdgeStyle;rounded=0;orthogonalLoop=1;jettySize=auto;html=1;exitX=0.25;exitY=1;exitDx=0;exitDy=0;fillColor=#dae8fc;strokeColor=#6c8ebf;" edge="1" parent="ByxcCswgJjorpRk-0xXt-1" source="Guge9HG4n6chY4lUv3vW-8">
          <mxGeometry relative="1" as="geometry">
            <mxPoint x="320" y="1880" as="targetPoint" />
            <Array as="points">
              <mxPoint x="406" y="1840" />
              <mxPoint x="320" y="1840" />
            </Array>
          </mxGeometry>
        </mxCell>
        <mxCell id="Guge9HG4n6chY4lUv3vW-8" value="sw_send" style="rounded=0;whiteSpace=wrap;html=1;" vertex="1" parent="ByxcCswgJjorpRk-0xXt-1">
          <mxGeometry x="375.5" y="1690" width="120" height="70" as="geometry" />
        </mxCell>
        <mxCell id="Guge9HG4n6chY4lUv3vW-9" style="edgeStyle=orthogonalEdgeStyle;rounded=0;orthogonalLoop=1;jettySize=auto;html=1;exitX=0.5;exitY=1;exitDx=0;exitDy=0;" edge="1" parent="ByxcCswgJjorpRk-0xXt-1" source="Guge9HG4n6chY4lUv3vW-11">
          <mxGeometry relative="1" as="geometry">
            <mxPoint x="580" y="1880" as="targetPoint" />
          </mxGeometry>
        </mxCell>
        <mxCell id="Guge9HG4n6chY4lUv3vW-10" style="edgeStyle=orthogonalEdgeStyle;rounded=0;orthogonalLoop=1;jettySize=auto;html=1;exitX=0.25;exitY=1;exitDx=0;exitDy=0;entryX=0.54;entryY=0.033;entryDx=0;entryDy=0;entryPerimeter=0;fillColor=#dae8fc;strokeColor=#6c8ebf;" edge="1" parent="ByxcCswgJjorpRk-0xXt-1" source="Guge9HG4n6chY4lUv3vW-11" target="Guge9HG4n6chY4lUv3vW-30">
          <mxGeometry relative="1" as="geometry">
            <Array as="points">
              <mxPoint x="550" y="1840" />
              <mxPoint x="325" y="1840" />
            </Array>
          </mxGeometry>
        </mxCell>
        <mxCell id="Guge9HG4n6chY4lUv3vW-11" value="sw_send" style="rounded=0;whiteSpace=wrap;html=1;" vertex="1" parent="ByxcCswgJjorpRk-0xXt-1">
          <mxGeometry x="519.5" y="1690" width="120" height="70" as="geometry" />
        </mxCell>
        <mxCell id="Guge9HG4n6chY4lUv3vW-12" style="edgeStyle=orthogonalEdgeStyle;rounded=0;orthogonalLoop=1;jettySize=auto;html=1;exitX=0.5;exitY=1;exitDx=0;exitDy=0;" edge="1" parent="ByxcCswgJjorpRk-0xXt-1" source="Guge9HG4n6chY4lUv3vW-14">
          <mxGeometry relative="1" as="geometry">
            <mxPoint x="580" y="1880" as="targetPoint" />
          </mxGeometry>
        </mxCell>
        <mxCell id="Guge9HG4n6chY4lUv3vW-13" style="edgeStyle=orthogonalEdgeStyle;rounded=0;orthogonalLoop=1;jettySize=auto;html=1;exitX=0.25;exitY=1;exitDx=0;exitDy=0;fillColor=#dae8fc;strokeColor=#6c8ebf;" edge="1" parent="ByxcCswgJjorpRk-0xXt-1" source="Guge9HG4n6chY4lUv3vW-14">
          <mxGeometry relative="1" as="geometry">
            <mxPoint x="320" y="1880" as="targetPoint" />
            <Array as="points">
              <mxPoint x="710" y="1840" />
              <mxPoint x="320" y="1840" />
            </Array>
          </mxGeometry>
        </mxCell>
        <mxCell id="Guge9HG4n6chY4lUv3vW-14" value="sw_send" style="rounded=0;whiteSpace=wrap;html=1;" vertex="1" parent="ByxcCswgJjorpRk-0xXt-1">
          <mxGeometry x="680" y="1690" width="120" height="70" as="geometry" />
        </mxCell>
        <mxCell id="Guge9HG4n6chY4lUv3vW-15" style="edgeStyle=orthogonalEdgeStyle;rounded=0;orthogonalLoop=1;jettySize=auto;html=1;exitX=0.5;exitY=1;exitDx=0;exitDy=0;" edge="1" parent="ByxcCswgJjorpRk-0xXt-1" source="Guge9HG4n6chY4lUv3vW-17">
          <mxGeometry relative="1" as="geometry">
            <mxPoint x="580" y="1880" as="targetPoint" />
          </mxGeometry>
        </mxCell>
        <mxCell id="Guge9HG4n6chY4lUv3vW-16" style="edgeStyle=orthogonalEdgeStyle;rounded=0;orthogonalLoop=1;jettySize=auto;html=1;exitX=0.25;exitY=1;exitDx=0;exitDy=0;fillColor=#dae8fc;strokeColor=#6c8ebf;" edge="1" parent="ByxcCswgJjorpRk-0xXt-1" source="Guge9HG4n6chY4lUv3vW-17">
          <mxGeometry relative="1" as="geometry">
            <mxPoint x="320" y="1880" as="targetPoint" />
            <Array as="points">
              <mxPoint x="867" y="1840" />
              <mxPoint x="320" y="1840" />
            </Array>
          </mxGeometry>
        </mxCell>
        <mxCell id="Guge9HG4n6chY4lUv3vW-17" value="sw_send" style="rounded=0;whiteSpace=wrap;html=1;" vertex="1" parent="ByxcCswgJjorpRk-0xXt-1">
          <mxGeometry x="836.5" y="1690" width="120" height="70" as="geometry" />
        </mxCell>
        <mxCell id="Guge9HG4n6chY4lUv3vW-18" value="PU" style="rounded=0;whiteSpace=wrap;html=1;" vertex="1" parent="ByxcCswgJjorpRk-0xXt-1">
          <mxGeometry x="458" y="1880" width="244" height="60" as="geometry" />
        </mxCell>
        <mxCell id="Guge9HG4n6chY4lUv3vW-19" style="edgeStyle=orthogonalEdgeStyle;rounded=0;orthogonalLoop=1;jettySize=auto;html=1;exitX=0.5;exitY=1;exitDx=0;exitDy=0;entryX=0.5;entryY=0;entryDx=0;entryDy=0;" edge="1" parent="ByxcCswgJjorpRk-0xXt-1" source="Guge9HG4n6chY4lUv3vW-26" target="Guge9HG4n6chY4lUv3vW-2">
          <mxGeometry relative="1" as="geometry" />
        </mxCell>
        <mxCell id="Guge9HG4n6chY4lUv3vW-20" style="edgeStyle=orthogonalEdgeStyle;rounded=0;orthogonalLoop=1;jettySize=auto;html=1;exitX=0.5;exitY=1;exitDx=0;exitDy=0;entryX=0.5;entryY=0;entryDx=0;entryDy=0;" edge="1" parent="ByxcCswgJjorpRk-0xXt-1" source="Guge9HG4n6chY4lUv3vW-26" target="Guge9HG4n6chY4lUv3vW-5">
          <mxGeometry relative="1" as="geometry" />
        </mxCell>
        <mxCell id="Guge9HG4n6chY4lUv3vW-21" style="edgeStyle=orthogonalEdgeStyle;rounded=0;orthogonalLoop=1;jettySize=auto;html=1;exitX=0.5;exitY=1;exitDx=0;exitDy=0;entryX=0.5;entryY=0;entryDx=0;entryDy=0;" edge="1" parent="ByxcCswgJjorpRk-0xXt-1" source="Guge9HG4n6chY4lUv3vW-26" target="Guge9HG4n6chY4lUv3vW-8">
          <mxGeometry relative="1" as="geometry" />
        </mxCell>
        <mxCell id="Guge9HG4n6chY4lUv3vW-22" style="edgeStyle=orthogonalEdgeStyle;rounded=0;orthogonalLoop=1;jettySize=auto;html=1;exitX=0.5;exitY=1;exitDx=0;exitDy=0;entryX=0.5;entryY=0;entryDx=0;entryDy=0;" edge="1" parent="ByxcCswgJjorpRk-0xXt-1" source="Guge9HG4n6chY4lUv3vW-26" target="Guge9HG4n6chY4lUv3vW-11">
          <mxGeometry relative="1" as="geometry" />
        </mxCell>
        <mxCell id="Guge9HG4n6chY4lUv3vW-23" style="edgeStyle=orthogonalEdgeStyle;rounded=0;orthogonalLoop=1;jettySize=auto;html=1;exitX=0.5;exitY=1;exitDx=0;exitDy=0;" edge="1" parent="ByxcCswgJjorpRk-0xXt-1" source="Guge9HG4n6chY4lUv3vW-26" target="Guge9HG4n6chY4lUv3vW-14">
          <mxGeometry relative="1" as="geometry" />
        </mxCell>
        <mxCell id="Guge9HG4n6chY4lUv3vW-24" style="edgeStyle=orthogonalEdgeStyle;rounded=0;orthogonalLoop=1;jettySize=auto;html=1;exitX=0.5;exitY=1;exitDx=0;exitDy=0;" edge="1" parent="ByxcCswgJjorpRk-0xXt-1" source="Guge9HG4n6chY4lUv3vW-26" target="Guge9HG4n6chY4lUv3vW-17">
          <mxGeometry relative="1" as="geometry" />
        </mxCell>
        <mxCell id="Guge9HG4n6chY4lUv3vW-25" style="edgeStyle=orthogonalEdgeStyle;rounded=0;orthogonalLoop=1;jettySize=auto;html=1;exitX=0.5;exitY=1;exitDx=0;exitDy=0;" edge="1" parent="ByxcCswgJjorpRk-0xXt-1" source="Guge9HG4n6chY4lUv3vW-26" target="Guge9HG4n6chY4lUv3vW-29">
          <mxGeometry relative="1" as="geometry" />
        </mxCell>
        <mxCell id="Guge9HG4n6chY4lUv3vW-26" value="matrix_7" style="rounded=0;whiteSpace=wrap;html=1;" vertex="1" parent="ByxcCswgJjorpRk-0xXt-1">
          <mxGeometry x="490" y="1520" width="180" height="60" as="geometry" />
        </mxCell>
        <mxCell id="Guge9HG4n6chY4lUv3vW-27" style="edgeStyle=orthogonalEdgeStyle;rounded=0;orthogonalLoop=1;jettySize=auto;html=1;exitX=0.5;exitY=1;exitDx=0;exitDy=0;entryX=0.5;entryY=0;entryDx=0;entryDy=0;" edge="1" parent="ByxcCswgJjorpRk-0xXt-1" source="Guge9HG4n6chY4lUv3vW-29" target="Guge9HG4n6chY4lUv3vW-18">
          <mxGeometry relative="1" as="geometry" />
        </mxCell>
        <mxCell id="Guge9HG4n6chY4lUv3vW-28" style="edgeStyle=orthogonalEdgeStyle;rounded=0;orthogonalLoop=1;jettySize=auto;html=1;exitX=0.25;exitY=1;exitDx=0;exitDy=0;entryX=0.536;entryY=0.017;entryDx=0;entryDy=0;entryPerimeter=0;fillColor=#dae8fc;strokeColor=#6c8ebf;" edge="1" parent="ByxcCswgJjorpRk-0xXt-1" source="Guge9HG4n6chY4lUv3vW-29" target="Guge9HG4n6chY4lUv3vW-30">
          <mxGeometry relative="1" as="geometry">
            <Array as="points">
              <mxPoint x="1010" y="1840" />
              <mxPoint x="324" y="1840" />
            </Array>
          </mxGeometry>
        </mxCell>
        <mxCell id="Guge9HG4n6chY4lUv3vW-29" value="sw_send" style="rounded=0;whiteSpace=wrap;html=1;" vertex="1" parent="ByxcCswgJjorpRk-0xXt-1">
          <mxGeometry x="980" y="1690" width="120" height="70" as="geometry" />
        </mxCell>
        <mxCell id="Guge9HG4n6chY4lUv3vW-30" value="result_fifo" style="rounded=0;whiteSpace=wrap;html=1;" vertex="1" parent="ByxcCswgJjorpRk-0xXt-1">
          <mxGeometry x="211.5" y="1880" width="210" height="60" as="geometry" />
        </mxCell>
        <mxCell id="Guge9HG4n6chY4lUv3vW-31" value="sop &amp;amp;&amp;amp; eop &amp;amp;&amp;amp; data" style="text;html=1;resizable=0;points=[];autosize=1;align=left;verticalAlign=top;spacingTop=-4;" vertex="1" parent="ByxcCswgJjorpRk-0xXt-1">
          <mxGeometry x="589" y="1608" width="120" height="20" as="geometry" />
        </mxCell>
        <mxCell id="Guge9HG4n6chY4lUv3vW-32" value="Ns &amp;amp;&amp;amp; Nr &amp;amp;&amp;amp; start_in" style="text;html=1;resizable=0;points=[];autosize=1;align=left;verticalAlign=top;spacingTop=-4;" vertex="1" parent="ByxcCswgJjorpRk-0xXt-1">
          <mxGeometry x="601" y="1854" width="130" height="20" as="geometry" />
        </mxCell>
        <mxCell id="Guge9HG4n6chY4lUv3vW-33" value="result &amp;amp;&amp;amp; result_vld" style="text;html=1;resizable=0;points=[];autosize=1;align=left;verticalAlign=top;spacingTop=-4;" vertex="1" parent="ByxcCswgJjorpRk-0xXt-1">
          <mxGeometry x="345" y="1855" width="120" height="20" as="geometry" />
        </mxCell>
        <mxCell id="Guge9HG4n6chY4lUv3vW-34" value="S0" style="text;html=1;resizable=0;points=[];autosize=1;align=left;verticalAlign=top;spacingTop=-4;" vertex="1" parent="ByxcCswgJjorpRk-0xXt-1">
          <mxGeometry x="151" y="1659" width="30" height="20" as="geometry" />
        </mxCell>
        <mxCell id="Guge9HG4n6chY4lUv3vW-35" value="S1" style="text;html=1;resizable=0;points=[];autosize=1;align=left;verticalAlign=top;spacingTop=-4;" vertex="1" parent="ByxcCswgJjorpRk-0xXt-1">
          <mxGeometry x="302" y="1659" width="30" height="20" as="geometry" />
        </mxCell>
        <mxCell id="Guge9HG4n6chY4lUv3vW-36" value="S2" style="text;html=1;resizable=0;points=[];autosize=1;align=left;verticalAlign=top;spacingTop=-4;" vertex="1" parent="ByxcCswgJjorpRk-0xXt-1">
          <mxGeometry x="443" y="1669" width="30" height="20" as="geometry" />
        </mxCell>
        <mxCell id="Guge9HG4n6chY4lUv3vW-37" value="S3" style="text;html=1;resizable=0;points=[];autosize=1;align=left;verticalAlign=top;spacingTop=-4;" vertex="1" parent="ByxcCswgJjorpRk-0xXt-1">
          <mxGeometry x="589" y="1669" width="30" height="20" as="geometry" />
        </mxCell>
        <mxCell id="Guge9HG4n6chY4lUv3vW-38" value="S4" style="text;html=1;resizable=0;points=[];autosize=1;align=left;verticalAlign=top;spacingTop=-4;" vertex="1" parent="ByxcCswgJjorpRk-0xXt-1">
          <mxGeometry x="765" y="1670" width="30" height="20" as="geometry" />
        </mxCell>
        <mxCell id="Guge9HG4n6chY4lUv3vW-39" value="S5" style="text;html=1;resizable=0;points=[];autosize=1;align=left;verticalAlign=top;spacingTop=-4;" vertex="1" parent="ByxcCswgJjorpRk-0xXt-1">
          <mxGeometry x="911.5" y="1669" width="30" height="20" as="geometry" />
        </mxCell>
        <mxCell id="Guge9HG4n6chY4lUv3vW-40" value="S6" style="text;html=1;resizable=0;points=[];autosize=1;align=left;verticalAlign=top;spacingTop=-4;" vertex="1" parent="ByxcCswgJjorpRk-0xXt-1">
          <mxGeometry x="1050" y="1669" width="30" height="20" as="geometry" />
        </mxCell>
        <mxCell id="Guge9HG4n6chY4lUv3vW-41" value="T6" style="text;html=1;resizable=0;points=[];autosize=1;align=left;verticalAlign=top;spacingTop=-4;" vertex="1" parent="ByxcCswgJjorpRk-0xXt-1">
          <mxGeometry x="151" y="1793" width="30" height="20" as="geometry" />
        </mxCell>
        <mxCell id="Guge9HG4n6chY4lUv3vW-42" value="T0" style="text;html=1;resizable=0;points=[];autosize=1;align=left;verticalAlign=top;spacingTop=-4;" vertex="1" parent="ByxcCswgJjorpRk-0xXt-1">
          <mxGeometry x="296.5" y="1796" width="30" height="20" as="geometry" />
        </mxCell>
        <mxCell id="Guge9HG4n6chY4lUv3vW-43" value="T1" style="text;html=1;resizable=0;points=[];autosize=1;align=left;verticalAlign=top;spacingTop=-4;" vertex="1" parent="ByxcCswgJjorpRk-0xXt-1">
          <mxGeometry x="445" y="1792" width="30" height="20" as="geometry" />
        </mxCell>
        <mxCell id="Guge9HG4n6chY4lUv3vW-44" value="T2" style="text;html=1;resizable=0;points=[];autosize=1;align=left;verticalAlign=top;spacingTop=-4;" vertex="1" parent="ByxcCswgJjorpRk-0xXt-1">
          <mxGeometry x="594" y="1797" width="30" height="20" as="geometry" />
        </mxCell>
        <mxCell id="Guge9HG4n6chY4lUv3vW-45" value="T3" style="text;html=1;resizable=0;points=[];autosize=1;align=left;verticalAlign=top;spacingTop=-4;" vertex="1" parent="ByxcCswgJjorpRk-0xXt-1">
          <mxGeometry x="750" y="1796" width="30" height="20" as="geometry" />
        </mxCell>
        <mxCell id="Guge9HG4n6chY4lUv3vW-46" value="T4" style="text;html=1;resizable=0;points=[];autosize=1;align=left;verticalAlign=top;spacingTop=-4;" vertex="1" parent="ByxcCswgJjorpRk-0xXt-1">
          <mxGeometry x="911.5" y="1796" width="30" height="20" as="geometry" />
        </mxCell>
        <mxCell id="Guge9HG4n6chY4lUv3vW-47" value="T5" style="text;html=1;resizable=0;points=[];autosize=1;align=left;verticalAlign=top;spacingTop=-4;" vertex="1" parent="ByxcCswgJjorpRk-0xXt-1">
          <mxGeometry x="1050" y="1796" width="30" height="20" as="geometry" />
        </mxCell>
      </root>
    </mxGraphModel>
  </diagram>
  <diagram id="D1WP72jjJoww-OnKY08k" name="外围电路">
    <mxGraphModel dx="1373" dy="774" grid="1" gridSize="10" guides="1" tooltips="1" connect="1" arrows="1" fold="1" page="1" pageScale="1" pageWidth="1169" pageHeight="1654" math="0" shadow="0">
      <root>
        <mxCell id="6NNGE7JMAIJEV8TZDYCx-0" />
        <mxCell id="6NNGE7JMAIJEV8TZDYCx-1" parent="6NNGE7JMAIJEV8TZDYCx-0" />
      </root>
    </mxGraphModel>
  </diagram>
  <diagram id="hX78XpOJkQTZwB4FnXw4" name="tmp">
    <mxGraphModel dx="2542" dy="774" grid="1" gridSize="10" guides="1" tooltips="1" connect="1" arrows="1" fold="1" page="1" pageScale="1" pageWidth="1169" pageHeight="1654" math="0" shadow="0">
      <root>
        <mxCell id="e-jnI-fbjYCiT330gY4p-0" />
        <mxCell id="e-jnI-fbjYCiT330gY4p-1" parent="e-jnI-fbjYCiT330gY4p-0" />
        <mxCell id="e-jnI-fbjYCiT330gY4p-2" style="edgeStyle=orthogonalEdgeStyle;rounded=0;orthogonalLoop=1;jettySize=auto;html=1;exitX=1;exitY=0.25;exitDx=0;exitDy=0;entryX=0;entryY=0.25;entryDx=0;entryDy=0;" edge="1" parent="e-jnI-fbjYCiT330gY4p-1" source="e-jnI-fbjYCiT330gY4p-4" target="e-jnI-fbjYCiT330gY4p-6">
          <mxGeometry relative="1" as="geometry" />
        </mxCell>
        <mxCell id="e-jnI-fbjYCiT330gY4p-3" style="edgeStyle=orthogonalEdgeStyle;rounded=0;orthogonalLoop=1;jettySize=auto;html=1;exitX=1;exitY=0.75;exitDx=0;exitDy=0;entryX=0;entryY=0.75;entryDx=0;entryDy=0;" edge="1" parent="e-jnI-fbjYCiT330gY4p-1" source="e-jnI-fbjYCiT330gY4p-4" target="e-jnI-fbjYCiT330gY4p-6">
          <mxGeometry relative="1" as="geometry" />
        </mxCell>
        <mxCell id="e-jnI-fbjYCiT330gY4p-4" value="test.sv" style="rounded=0;whiteSpace=wrap;html=1;" vertex="1" parent="e-jnI-fbjYCiT330gY4p-1">
          <mxGeometry x="111" y="100" width="120" height="160" as="geometry" />
        </mxCell>
        <mxCell id="e-jnI-fbjYCiT330gY4p-5" style="edgeStyle=orthogonalEdgeStyle;rounded=0;orthogonalLoop=1;jettySize=auto;html=1;exitX=0;exitY=0.5;exitDx=0;exitDy=0;" edge="1" parent="e-jnI-fbjYCiT330gY4p-1" source="e-jnI-fbjYCiT330gY4p-6" target="e-jnI-fbjYCiT330gY4p-4">
          <mxGeometry relative="1" as="geometry" />
        </mxCell>
        <mxCell id="e-jnI-fbjYCiT330gY4p-6" value="test_pkt+matrix" style="rounded=0;whiteSpace=wrap;html=1;" vertex="1" parent="e-jnI-fbjYCiT330gY4p-1">
          <mxGeometry x="338" y="100" width="120" height="160" as="geometry" />
        </mxCell>
        <mxCell id="e-jnI-fbjYCiT330gY4p-7" value="test.sv是驱动文件，相当于一个主机制，test_pkt.v和matrix_7合在一起相当与slave,采用握手机制进行数据传输&lt;br&gt;1. 主机表明要发送数据：pcie_write_done置高&lt;br&gt;2. 从机给出可以接收数据的信号， matrix_enablez置高&lt;br&gt;3. 发送data和en信号，一般的结构就是这样" style="text;html=1;strokeColor=none;fillColor=none;align=left;verticalAlign=middle;whiteSpace=wrap;rounded=0;" vertex="1" parent="e-jnI-fbjYCiT330gY4p-1">
          <mxGeometry x="120" y="350" width="300" height="20" as="geometry" />
        </mxCell>
        <mxCell id="e-jnI-fbjYCiT330gY4p-8" value="pcie_write_down" style="text;html=1;resizable=0;points=[];autosize=1;align=left;verticalAlign=top;spacingTop=-4;" vertex="1" parent="e-jnI-fbjYCiT330gY4p-1">
          <mxGeometry x="248" y="119" width="100" height="20" as="geometry" />
        </mxCell>
        <mxCell id="e-jnI-fbjYCiT330gY4p-9" value="matrix_enable" style="text;html=1;resizable=0;points=[];autosize=1;align=left;verticalAlign=top;spacingTop=-4;" vertex="1" parent="e-jnI-fbjYCiT330gY4p-1">
          <mxGeometry x="253" y="160" width="90" height="20" as="geometry" />
        </mxCell>
        <mxCell id="e-jnI-fbjYCiT330gY4p-10" value="data &amp;amp;&amp;amp; en" style="text;html=1;resizable=0;points=[];autosize=1;align=left;verticalAlign=top;spacingTop=-4;" vertex="1" parent="e-jnI-fbjYCiT330gY4p-1">
          <mxGeometry x="246.5" y="200" width="70" height="20" as="geometry" />
        </mxCell>
        <mxCell id="e-jnI-fbjYCiT330gY4p-11" style="edgeStyle=orthogonalEdgeStyle;rounded=0;orthogonalLoop=1;jettySize=auto;html=1;exitX=1;exitY=0.25;exitDx=0;exitDy=0;entryX=0;entryY=0.25;entryDx=0;entryDy=0;" edge="1" parent="e-jnI-fbjYCiT330gY4p-1" source="e-jnI-fbjYCiT330gY4p-12" target="e-jnI-fbjYCiT330gY4p-15">
          <mxGeometry relative="1" as="geometry" />
        </mxCell>
        <mxCell id="e-jnI-fbjYCiT330gY4p-12" value="test.sv" style="rounded=0;whiteSpace=wrap;html=1;" vertex="1" parent="e-jnI-fbjYCiT330gY4p-1">
          <mxGeometry x="159.5" y="540" width="120" height="160" as="geometry" />
        </mxCell>
        <mxCell id="e-jnI-fbjYCiT330gY4p-13" style="edgeStyle=orthogonalEdgeStyle;rounded=0;orthogonalLoop=1;jettySize=auto;html=1;exitX=1;exitY=0.25;exitDx=0;exitDy=0;entryX=0;entryY=0.25;entryDx=0;entryDy=0;" edge="1" parent="e-jnI-fbjYCiT330gY4p-1" source="e-jnI-fbjYCiT330gY4p-15" target="e-jnI-fbjYCiT330gY4p-17">
          <mxGeometry relative="1" as="geometry" />
        </mxCell>
        <mxCell id="e-jnI-fbjYCiT330gY4p-14" style="edgeStyle=orthogonalEdgeStyle;rounded=0;orthogonalLoop=1;jettySize=auto;html=1;exitX=1;exitY=0.75;exitDx=0;exitDy=0;entryX=0;entryY=0.5;entryDx=0;entryDy=0;" edge="1" parent="e-jnI-fbjYCiT330gY4p-1" source="e-jnI-fbjYCiT330gY4p-15" target="e-jnI-fbjYCiT330gY4p-22">
          <mxGeometry relative="1" as="geometry">
            <Array as="points">
              <mxPoint x="570" y="660" />
              <mxPoint x="570" y="860" />
            </Array>
          </mxGeometry>
        </mxCell>
        <mxCell id="e-jnI-fbjYCiT330gY4p-15" value="test_pkt" style="rounded=0;whiteSpace=wrap;html=1;" vertex="1" parent="e-jnI-fbjYCiT330gY4p-1">
          <mxGeometry x="429" y="540" width="112" height="160" as="geometry" />
        </mxCell>
        <mxCell id="e-jnI-fbjYCiT330gY4p-16" style="edgeStyle=orthogonalEdgeStyle;rounded=0;orthogonalLoop=1;jettySize=auto;html=1;exitX=1;exitY=0.75;exitDx=0;exitDy=0;entryX=0;entryY=0.75;entryDx=0;entryDy=0;" edge="1" parent="e-jnI-fbjYCiT330gY4p-1" source="e-jnI-fbjYCiT330gY4p-17" target="e-jnI-fbjYCiT330gY4p-15">
          <mxGeometry relative="1" as="geometry">
            <Array as="points">
              <mxPoint x="850" y="660" />
              <mxPoint x="850" y="720" />
              <mxPoint x="409" y="720" />
              <mxPoint x="409" y="660" />
            </Array>
          </mxGeometry>
        </mxCell>
        <mxCell id="e-jnI-fbjYCiT330gY4p-17" value="RAM" style="rounded=0;whiteSpace=wrap;html=1;" vertex="1" parent="e-jnI-fbjYCiT330gY4p-1">
          <mxGeometry x="675" y="540" width="120" height="160" as="geometry" />
        </mxCell>
        <mxCell id="e-jnI-fbjYCiT330gY4p-18" value="ADDR" style="text;html=1;resizable=0;points=[];autosize=1;align=left;verticalAlign=top;spacingTop=-4;" vertex="1" parent="e-jnI-fbjYCiT330gY4p-1">
          <mxGeometry x="599" y="557" width="50" height="20" as="geometry" />
        </mxCell>
        <mxCell id="e-jnI-fbjYCiT330gY4p-19" value="DATA" style="text;html=1;resizable=0;points=[];autosize=1;align=left;verticalAlign=top;spacingTop=-4;" vertex="1" parent="e-jnI-fbjYCiT330gY4p-1">
          <mxGeometry x="808.5" y="630" width="50" height="20" as="geometry" />
        </mxCell>
        <mxCell id="e-jnI-fbjYCiT330gY4p-20" value="pcie_write_down" style="text;html=1;resizable=0;points=[];autosize=1;align=left;verticalAlign=top;spacingTop=-4;" vertex="1" parent="e-jnI-fbjYCiT330gY4p-1">
          <mxGeometry x="281" y="557" width="100" height="20" as="geometry" />
        </mxCell>
        <mxCell id="e-jnI-fbjYCiT330gY4p-21" style="edgeStyle=orthogonalEdgeStyle;rounded=0;orthogonalLoop=1;jettySize=auto;html=1;exitX=1;exitY=0.5;exitDx=0;exitDy=0;entryX=0;entryY=0.5;entryDx=0;entryDy=0;" edge="1" parent="e-jnI-fbjYCiT330gY4p-1" source="e-jnI-fbjYCiT330gY4p-22" target="e-jnI-fbjYCiT330gY4p-15">
          <mxGeometry relative="1" as="geometry">
            <Array as="points">
              <mxPoint x="850" y="860" />
              <mxPoint x="850" y="740" />
              <mxPoint x="330" y="740" />
              <mxPoint x="330" y="620" />
            </Array>
          </mxGeometry>
        </mxCell>
        <mxCell id="e-jnI-fbjYCiT330gY4p-22" value="MATRIX" style="rounded=0;whiteSpace=wrap;html=1;" vertex="1" parent="e-jnI-fbjYCiT330gY4p-1">
          <mxGeometry x="678.5" y="780" width="120" height="160" as="geometry" />
        </mxCell>
        <mxCell id="e-jnI-fbjYCiT330gY4p-23" value="receive_en" style="text;html=1;resizable=0;points=[];autosize=1;align=left;verticalAlign=top;spacingTop=-4;" vertex="1" parent="e-jnI-fbjYCiT330gY4p-1">
          <mxGeometry x="350" y="603" width="70" height="20" as="geometry" />
        </mxCell>
        <mxCell id="e-jnI-fbjYCiT330gY4p-24" value="sop &amp;amp;&amp;amp; eop &amp;amp;&amp;amp;d data" style="text;html=1;resizable=0;points=[];autosize=1;align=left;verticalAlign=top;spacingTop=-4;" vertex="1" parent="e-jnI-fbjYCiT330gY4p-1">
          <mxGeometry x="568" y="827" width="130" height="20" as="geometry" />
        </mxCell>
        <mxCell id="e-jnI-fbjYCiT330gY4p-25" style="edgeStyle=orthogonalEdgeStyle;rounded=0;orthogonalLoop=1;jettySize=auto;html=1;exitX=1;exitY=0.5;exitDx=0;exitDy=0;" edge="1" parent="e-jnI-fbjYCiT330gY4p-1" source="e-jnI-fbjYCiT330gY4p-26" target="e-jnI-fbjYCiT330gY4p-28">
          <mxGeometry relative="1" as="geometry" />
        </mxCell>
        <mxCell id="e-jnI-fbjYCiT330gY4p-26" value="idle" style="ellipse;whiteSpace=wrap;html=1;" vertex="1" parent="e-jnI-fbjYCiT330gY4p-1">
          <mxGeometry x="98" y="990" width="120" height="80" as="geometry" />
        </mxCell>
        <mxCell id="e-jnI-fbjYCiT330gY4p-27" value="" style="edgeStyle=orthogonalEdgeStyle;rounded=0;orthogonalLoop=1;jettySize=auto;html=1;" edge="1" parent="e-jnI-fbjYCiT330gY4p-1" source="e-jnI-fbjYCiT330gY4p-28" target="e-jnI-fbjYCiT330gY4p-30">
          <mxGeometry relative="1" as="geometry" />
        </mxCell>
        <mxCell id="e-jnI-fbjYCiT330gY4p-28" value="get_pkt_num" style="ellipse;whiteSpace=wrap;html=1;" vertex="1" parent="e-jnI-fbjYCiT330gY4p-1">
          <mxGeometry x="289" y="990" width="120" height="80" as="geometry" />
        </mxCell>
        <mxCell id="e-jnI-fbjYCiT330gY4p-29" value="" style="edgeStyle=orthogonalEdgeStyle;rounded=0;orthogonalLoop=1;jettySize=auto;html=1;" edge="1" parent="e-jnI-fbjYCiT330gY4p-1" source="e-jnI-fbjYCiT330gY4p-30" target="e-jnI-fbjYCiT330gY4p-32">
          <mxGeometry relative="1" as="geometry" />
        </mxCell>
        <mxCell id="e-jnI-fbjYCiT330gY4p-30" value="wait_enable" style="ellipse;whiteSpace=wrap;html=1;" vertex="1" parent="e-jnI-fbjYCiT330gY4p-1">
          <mxGeometry x="489" y="990" width="120" height="80" as="geometry" />
        </mxCell>
        <mxCell id="e-jnI-fbjYCiT330gY4p-31" value="" style="edgeStyle=orthogonalEdgeStyle;rounded=0;orthogonalLoop=1;jettySize=auto;html=1;" edge="1" parent="e-jnI-fbjYCiT330gY4p-1" source="e-jnI-fbjYCiT330gY4p-32" target="e-jnI-fbjYCiT330gY4p-34">
          <mxGeometry relative="1" as="geometry" />
        </mxCell>
        <mxCell id="e-jnI-fbjYCiT330gY4p-32" value="get_data_num" style="ellipse;whiteSpace=wrap;html=1;" vertex="1" parent="e-jnI-fbjYCiT330gY4p-1">
          <mxGeometry x="489" y="1150" width="120" height="80" as="geometry" />
        </mxCell>
        <mxCell id="e-jnI-fbjYCiT330gY4p-33" value="" style="edgeStyle=orthogonalEdgeStyle;rounded=0;orthogonalLoop=1;jettySize=auto;html=1;" edge="1" parent="e-jnI-fbjYCiT330gY4p-1" source="e-jnI-fbjYCiT330gY4p-34" target="e-jnI-fbjYCiT330gY4p-36">
          <mxGeometry relative="1" as="geometry" />
        </mxCell>
        <mxCell id="e-jnI-fbjYCiT330gY4p-34" value="get_data" style="ellipse;whiteSpace=wrap;html=1;" vertex="1" parent="e-jnI-fbjYCiT330gY4p-1">
          <mxGeometry x="289" y="1150" width="120" height="80" as="geometry" />
        </mxCell>
        <mxCell id="e-jnI-fbjYCiT330gY4p-35" style="edgeStyle=orthogonalEdgeStyle;rounded=0;orthogonalLoop=1;jettySize=auto;html=1;exitX=0;exitY=0.5;exitDx=0;exitDy=0;entryX=0.5;entryY=1;entryDx=0;entryDy=0;" edge="1" parent="e-jnI-fbjYCiT330gY4p-1" source="e-jnI-fbjYCiT330gY4p-36" target="e-jnI-fbjYCiT330gY4p-38">
          <mxGeometry relative="1" as="geometry" />
        </mxCell>
        <mxCell id="e-jnI-fbjYCiT330gY4p-36" value="judge" style="ellipse;whiteSpace=wrap;html=1;" vertex="1" parent="e-jnI-fbjYCiT330gY4p-1">
          <mxGeometry x="89" y="1150" width="120" height="80" as="geometry" />
        </mxCell>
        <mxCell id="e-jnI-fbjYCiT330gY4p-37" style="edgeStyle=orthogonalEdgeStyle;rounded=0;orthogonalLoop=1;jettySize=auto;html=1;exitX=0.5;exitY=0;exitDx=0;exitDy=0;" edge="1" parent="e-jnI-fbjYCiT330gY4p-1" source="e-jnI-fbjYCiT330gY4p-38" target="e-jnI-fbjYCiT330gY4p-26">
          <mxGeometry relative="1" as="geometry" />
        </mxCell>
        <mxCell id="e-jnI-fbjYCiT330gY4p-38" value="done" style="ellipse;whiteSpace=wrap;html=1;" vertex="1" parent="e-jnI-fbjYCiT330gY4p-1">
          <mxGeometry x="-90" y="1060" width="120" height="80" as="geometry" />
        </mxCell>
        <mxCell id="e-jnI-fbjYCiT330gY4p-39" value="" style="curved=1;endArrow=classic;html=1;entryX=0.192;entryY=0.938;entryDx=0;entryDy=0;entryPerimeter=0;exitX=0.5;exitY=0;exitDx=0;exitDy=0;" edge="1" parent="e-jnI-fbjYCiT330gY4p-1" source="e-jnI-fbjYCiT330gY4p-36" target="e-jnI-fbjYCiT330gY4p-30">
          <mxGeometry width="50" height="50" relative="1" as="geometry">
            <mxPoint x="-130" y="1250" as="sourcePoint" />
            <mxPoint x="-80" y="1200" as="targetPoint" />
            <Array as="points">
              <mxPoint x="290" y="1140" />
              <mxPoint x="240" y="1090" />
            </Array>
          </mxGeometry>
        </mxCell>
      </root>
    </mxGraphModel>
  </diagram>
  <diagram id="KNw3vtqbQPvepwlNGJCT" name="PE0">
    <mxGraphModel dx="4096" dy="3249" grid="1" gridSize="10" guides="1" tooltips="1" connect="1" arrows="1" fold="1" page="1" pageScale="1" pageWidth="827" pageHeight="1169" math="0" shadow="0">
      <root>
        <mxCell id="q_OA1AqWkvl_mFI5t7Wd-0" />
        <mxCell id="q_OA1AqWkvl_mFI5t7Wd-1" parent="q_OA1AqWkvl_mFI5t7Wd-0" />
        <mxCell id="q_OA1AqWkvl_mFI5t7Wd-2" style="edgeStyle=orthogonalEdgeStyle;rounded=0;orthogonalLoop=1;jettySize=auto;html=1;exitX=1;exitY=0.5;exitDx=0;exitDy=0;entryX=0;entryY=0.25;entryDx=0;entryDy=0;" edge="1" parent="q_OA1AqWkvl_mFI5t7Wd-1" source="q_OA1AqWkvl_mFI5t7Wd-5" target="q_OA1AqWkvl_mFI5t7Wd-105">
          <mxGeometry relative="1" as="geometry" />
        </mxCell>
        <mxCell id="q_OA1AqWkvl_mFI5t7Wd-3" style="edgeStyle=orthogonalEdgeStyle;rounded=0;orthogonalLoop=1;jettySize=auto;html=1;exitX=1;exitY=0.5;exitDx=0;exitDy=0;entryX=0;entryY=0.25;entryDx=0;entryDy=0;" edge="1" parent="q_OA1AqWkvl_mFI5t7Wd-1" source="q_OA1AqWkvl_mFI5t7Wd-5">
          <mxGeometry relative="1" as="geometry">
            <mxPoint x="-1265.5" y="-1655.25" as="targetPoint" />
            <Array as="points">
              <mxPoint x="-1291" y="-2036" />
              <mxPoint x="-1291" y="-1655" />
            </Array>
          </mxGeometry>
        </mxCell>
        <mxCell id="q_OA1AqWkvl_mFI5t7Wd-4" style="edgeStyle=orthogonalEdgeStyle;rounded=0;orthogonalLoop=1;jettySize=auto;html=1;exitX=1;exitY=0.5;exitDx=0;exitDy=0;entryX=0;entryY=0.25;entryDx=0;entryDy=0;" edge="1" parent="q_OA1AqWkvl_mFI5t7Wd-1" source="q_OA1AqWkvl_mFI5t7Wd-5" target="q_OA1AqWkvl_mFI5t7Wd-163">
          <mxGeometry relative="1" as="geometry">
            <Array as="points">
              <mxPoint x="-1291" y="-2036" />
              <mxPoint x="-1291" y="-1550" />
              <mxPoint x="-1264" y="-1550" />
            </Array>
            <mxPoint x="-1262.8605" y="-1520.5680000000002" as="targetPoint" />
          </mxGeometry>
        </mxCell>
        <mxCell id="q_OA1AqWkvl_mFI5t7Wd-5" value="ADD" style="rounded=0;whiteSpace=wrap;html=1;fillColor=#f8cecc;strokeColor=#b85450;" vertex="1" parent="q_OA1AqWkvl_mFI5t7Wd-1">
          <mxGeometry x="-1401" y="-2091" width="91" height="110" as="geometry" />
        </mxCell>
        <mxCell id="q_OA1AqWkvl_mFI5t7Wd-6" style="edgeStyle=orthogonalEdgeStyle;rounded=0;orthogonalLoop=1;jettySize=auto;html=1;exitX=1;exitY=0.5;exitDx=0;exitDy=0;entryX=0;entryY=0.25;entryDx=0;entryDy=0;" edge="1" parent="q_OA1AqWkvl_mFI5t7Wd-1" source="q_OA1AqWkvl_mFI5t7Wd-8" target="q_OA1AqWkvl_mFI5t7Wd-5">
          <mxGeometry relative="1" as="geometry" />
        </mxCell>
        <mxCell id="q_OA1AqWkvl_mFI5t7Wd-7" style="edgeStyle=orthogonalEdgeStyle;rounded=0;orthogonalLoop=1;jettySize=auto;html=1;exitX=0;exitY=0.25;exitDx=0;exitDy=0;entryX=0;entryY=0.5;entryDx=0;entryDy=0;" edge="1" parent="q_OA1AqWkvl_mFI5t7Wd-1" source="q_OA1AqWkvl_mFI5t7Wd-8" target="q_OA1AqWkvl_mFI5t7Wd-134">
          <mxGeometry relative="1" as="geometry">
            <mxPoint x="-1431" y="-2257" as="targetPoint" />
          </mxGeometry>
        </mxCell>
        <mxCell id="q_OA1AqWkvl_mFI5t7Wd-8" value="SEQ_CMP" style="rounded=0;whiteSpace=wrap;html=1;fillColor=#dae8fc;strokeColor=#6c8ebf;" vertex="1" parent="q_OA1AqWkvl_mFI5t7Wd-1">
          <mxGeometry x="-1521.5" y="-2129" width="60" height="110" as="geometry" />
        </mxCell>
        <mxCell id="q_OA1AqWkvl_mFI5t7Wd-9" value="Ns" style="text;html=1;resizable=0;points=[];autosize=1;align=left;verticalAlign=top;spacingTop=-4;" vertex="1" parent="q_OA1AqWkvl_mFI5t7Wd-1">
          <mxGeometry x="-1637" y="-2069" width="30" height="20" as="geometry" />
        </mxCell>
        <mxCell id="q_OA1AqWkvl_mFI5t7Wd-10" value="" style="endArrow=classic;html=1;entryX=0;entryY=0.75;entryDx=0;entryDy=0;" edge="1" parent="q_OA1AqWkvl_mFI5t7Wd-1" target="q_OA1AqWkvl_mFI5t7Wd-8">
          <mxGeometry width="50" height="50" relative="1" as="geometry">
            <mxPoint x="-1641" y="-2046" as="sourcePoint" />
            <mxPoint x="-1619.5" y="-2049" as="targetPoint" />
          </mxGeometry>
        </mxCell>
        <mxCell id="q_OA1AqWkvl_mFI5t7Wd-11" value="" style="endArrow=classic;html=1;entryX=0;entryY=0.25;entryDx=0;entryDy=0;" edge="1" parent="q_OA1AqWkvl_mFI5t7Wd-1" target="q_OA1AqWkvl_mFI5t7Wd-8">
          <mxGeometry width="50" height="50" relative="1" as="geometry">
            <mxPoint x="-1641" y="-2101" as="sourcePoint" />
            <mxPoint x="-1619.5" y="-2149" as="targetPoint" />
          </mxGeometry>
        </mxCell>
        <mxCell id="q_OA1AqWkvl_mFI5t7Wd-12" value="Nr" style="text;html=1;resizable=0;points=[];autosize=1;align=left;verticalAlign=top;spacingTop=-4;" vertex="1" parent="q_OA1AqWkvl_mFI5t7Wd-1">
          <mxGeometry x="-1637" y="-2121" width="30" height="20" as="geometry" />
        </mxCell>
        <mxCell id="q_OA1AqWkvl_mFI5t7Wd-13" style="edgeStyle=orthogonalEdgeStyle;rounded=0;orthogonalLoop=1;jettySize=auto;html=1;exitX=1;exitY=0.5;exitDx=0;exitDy=0;entryX=0;entryY=0.75;entryDx=0;entryDy=0;" edge="1" parent="q_OA1AqWkvl_mFI5t7Wd-1" source="q_OA1AqWkvl_mFI5t7Wd-14" target="q_OA1AqWkvl_mFI5t7Wd-5">
          <mxGeometry relative="1" as="geometry" />
        </mxCell>
        <mxCell id="q_OA1AqWkvl_mFI5t7Wd-14" value="REG" style="rounded=0;whiteSpace=wrap;html=1;" vertex="1" parent="q_OA1AqWkvl_mFI5t7Wd-1">
          <mxGeometry x="-1524.5" y="-1981" width="63" height="40" as="geometry" />
        </mxCell>
        <mxCell id="q_OA1AqWkvl_mFI5t7Wd-15" value="" style="endArrow=classic;html=1;entryX=0;entryY=0.5;entryDx=0;entryDy=0;" edge="1" parent="q_OA1AqWkvl_mFI5t7Wd-1" target="q_OA1AqWkvl_mFI5t7Wd-14">
          <mxGeometry width="50" height="50" relative="1" as="geometry">
            <mxPoint x="-1641" y="-1961" as="sourcePoint" />
            <mxPoint x="-1629.5" y="-1971" as="targetPoint" />
          </mxGeometry>
        </mxCell>
        <mxCell id="q_OA1AqWkvl_mFI5t7Wd-16" value="H(i-1, j-1)" style="text;html=1;resizable=0;points=[];autosize=1;align=left;verticalAlign=top;spacingTop=-4;" vertex="1" parent="q_OA1AqWkvl_mFI5t7Wd-1">
          <mxGeometry x="-1644.5" y="-1981" width="70" height="20" as="geometry" />
        </mxCell>
        <mxCell id="q_OA1AqWkvl_mFI5t7Wd-17" style="edgeStyle=orthogonalEdgeStyle;rounded=0;orthogonalLoop=1;jettySize=auto;html=1;exitX=1;exitY=0.5;exitDx=0;exitDy=0;entryX=0;entryY=0.25;entryDx=0;entryDy=0;" edge="1" parent="q_OA1AqWkvl_mFI5t7Wd-1" source="q_OA1AqWkvl_mFI5t7Wd-20" target="q_OA1AqWkvl_mFI5t7Wd-102">
          <mxGeometry relative="1" as="geometry" />
        </mxCell>
        <mxCell id="q_OA1AqWkvl_mFI5t7Wd-18" style="edgeStyle=orthogonalEdgeStyle;rounded=0;orthogonalLoop=1;jettySize=auto;html=1;exitX=0;exitY=0.25;exitDx=0;exitDy=0;entryX=0;entryY=0.5;entryDx=0;entryDy=0;" edge="1" parent="q_OA1AqWkvl_mFI5t7Wd-1" source="q_OA1AqWkvl_mFI5t7Wd-20" target="q_OA1AqWkvl_mFI5t7Wd-42">
          <mxGeometry relative="1" as="geometry" />
        </mxCell>
        <mxCell id="q_OA1AqWkvl_mFI5t7Wd-19" style="edgeStyle=orthogonalEdgeStyle;rounded=0;orthogonalLoop=1;jettySize=auto;html=1;exitX=0;exitY=0.75;exitDx=0;exitDy=0;entryX=0;entryY=0.5;entryDx=0;entryDy=0;" edge="1" parent="q_OA1AqWkvl_mFI5t7Wd-1" source="q_OA1AqWkvl_mFI5t7Wd-20" target="q_OA1AqWkvl_mFI5t7Wd-47">
          <mxGeometry relative="1" as="geometry">
            <Array as="points">
              <mxPoint x="-1525" y="-1825" />
              <mxPoint x="-1561" y="-1825" />
              <mxPoint x="-1561" y="-1462" />
            </Array>
          </mxGeometry>
        </mxCell>
        <mxCell id="q_OA1AqWkvl_mFI5t7Wd-20" value="CMP" style="rounded=0;whiteSpace=wrap;html=1;fillColor=#ffe6cc;strokeColor=#d79b00;" vertex="1" parent="q_OA1AqWkvl_mFI5t7Wd-1">
          <mxGeometry x="-1524.5" y="-1931.5" width="60" height="110" as="geometry" />
        </mxCell>
        <mxCell id="q_OA1AqWkvl_mFI5t7Wd-21" value="E0(i, j)" style="text;html=1;resizable=0;points=[];autosize=1;align=left;verticalAlign=top;spacingTop=-4;" vertex="1" parent="q_OA1AqWkvl_mFI5t7Wd-1">
          <mxGeometry x="-1639.5" y="-1923.5" width="50" height="20" as="geometry" />
        </mxCell>
        <mxCell id="q_OA1AqWkvl_mFI5t7Wd-22" value="" style="endArrow=classic;html=1;entryX=0;entryY=0.75;entryDx=0;entryDy=0;" edge="1" parent="q_OA1AqWkvl_mFI5t7Wd-1" target="q_OA1AqWkvl_mFI5t7Wd-20">
          <mxGeometry width="50" height="50" relative="1" as="geometry">
            <mxPoint x="-1641" y="-1847.5" as="sourcePoint" />
            <mxPoint x="-1621" y="-1850.5" as="targetPoint" />
          </mxGeometry>
        </mxCell>
        <mxCell id="q_OA1AqWkvl_mFI5t7Wd-23" value="E1(i, j)" style="text;html=1;resizable=0;points=[];autosize=1;align=left;verticalAlign=top;spacingTop=-4;" vertex="1" parent="q_OA1AqWkvl_mFI5t7Wd-1">
          <mxGeometry x="-1639.5" y="-1863.5" width="50" height="20" as="geometry" />
        </mxCell>
        <mxCell id="q_OA1AqWkvl_mFI5t7Wd-24" style="edgeStyle=orthogonalEdgeStyle;rounded=0;orthogonalLoop=1;jettySize=auto;html=1;exitX=1;exitY=0.5;exitDx=0;exitDy=0;entryX=0;entryY=0.75;entryDx=0;entryDy=0;" edge="1" parent="q_OA1AqWkvl_mFI5t7Wd-1" source="q_OA1AqWkvl_mFI5t7Wd-27" target="q_OA1AqWkvl_mFI5t7Wd-102">
          <mxGeometry relative="1" as="geometry">
            <mxPoint x="-1422" y="-1824" as="targetPoint" />
          </mxGeometry>
        </mxCell>
        <mxCell id="q_OA1AqWkvl_mFI5t7Wd-25" style="edgeStyle=orthogonalEdgeStyle;rounded=0;orthogonalLoop=1;jettySize=auto;html=1;exitX=0;exitY=0.25;exitDx=0;exitDy=0;entryX=0;entryY=0.5;entryDx=0;entryDy=0;" edge="1" parent="q_OA1AqWkvl_mFI5t7Wd-1" source="q_OA1AqWkvl_mFI5t7Wd-27" target="q_OA1AqWkvl_mFI5t7Wd-58">
          <mxGeometry relative="1" as="geometry">
            <Array as="points">
              <mxPoint x="-1527" y="-1741" />
              <mxPoint x="-1581" y="-1741" />
              <mxPoint x="-1581" y="-1384" />
            </Array>
          </mxGeometry>
        </mxCell>
        <mxCell id="q_OA1AqWkvl_mFI5t7Wd-26" style="edgeStyle=orthogonalEdgeStyle;rounded=0;orthogonalLoop=1;jettySize=auto;html=1;exitX=0;exitY=0.75;exitDx=0;exitDy=0;entryX=0;entryY=0.5;entryDx=0;entryDy=0;" edge="1" parent="q_OA1AqWkvl_mFI5t7Wd-1" source="q_OA1AqWkvl_mFI5t7Wd-27" target="q_OA1AqWkvl_mFI5t7Wd-64">
          <mxGeometry relative="1" as="geometry">
            <Array as="points">
              <mxPoint x="-1611" y="-1722" />
              <mxPoint x="-1611" y="-1290" />
            </Array>
          </mxGeometry>
        </mxCell>
        <mxCell id="q_OA1AqWkvl_mFI5t7Wd-27" value="CMP" style="rounded=0;whiteSpace=wrap;html=1;fillColor=#ffe6cc;strokeColor=#d79b00;" vertex="1" parent="q_OA1AqWkvl_mFI5t7Wd-1">
          <mxGeometry x="-1527.5" y="-1805" width="60" height="110" as="geometry" />
        </mxCell>
        <mxCell id="q_OA1AqWkvl_mFI5t7Wd-28" value="F0(i, j)" style="text;html=1;resizable=0;points=[];autosize=1;align=left;verticalAlign=top;spacingTop=-4;" vertex="1" parent="q_OA1AqWkvl_mFI5t7Wd-1">
          <mxGeometry x="-1647.5" y="-1792" width="50" height="20" as="geometry" />
        </mxCell>
        <mxCell id="q_OA1AqWkvl_mFI5t7Wd-29" value="" style="endArrow=classic;html=1;entryX=0;entryY=0.75;entryDx=0;entryDy=0;" edge="1" parent="q_OA1AqWkvl_mFI5t7Wd-1" target="q_OA1AqWkvl_mFI5t7Wd-27">
          <mxGeometry width="50" height="50" relative="1" as="geometry">
            <mxPoint x="-1654" y="-1722" as="sourcePoint" />
            <mxPoint x="-1627.5" y="-1725" as="targetPoint" />
          </mxGeometry>
        </mxCell>
        <mxCell id="q_OA1AqWkvl_mFI5t7Wd-30" value="F1(i, j)" style="text;html=1;resizable=0;points=[];autosize=1;align=left;verticalAlign=top;spacingTop=-4;" vertex="1" parent="q_OA1AqWkvl_mFI5t7Wd-1">
          <mxGeometry x="-1650" y="-1739" width="50" height="20" as="geometry" />
        </mxCell>
        <mxCell id="q_OA1AqWkvl_mFI5t7Wd-31" style="edgeStyle=orthogonalEdgeStyle;rounded=0;orthogonalLoop=1;jettySize=auto;html=1;exitX=1;exitY=0.5;exitDx=0;exitDy=0;entryX=0;entryY=0.25;entryDx=0;entryDy=0;" edge="1" parent="q_OA1AqWkvl_mFI5t7Wd-1" target="q_OA1AqWkvl_mFI5t7Wd-53">
          <mxGeometry relative="1" as="geometry">
            <mxPoint x="-1222.5" y="-1728.5000000000002" as="sourcePoint" />
          </mxGeometry>
        </mxCell>
        <mxCell id="q_OA1AqWkvl_mFI5t7Wd-32" style="edgeStyle=orthogonalEdgeStyle;rounded=0;orthogonalLoop=1;jettySize=auto;html=1;exitX=1;exitY=0.5;exitDx=0;exitDy=0;entryX=0;entryY=0.25;entryDx=0;entryDy=0;" edge="1" parent="q_OA1AqWkvl_mFI5t7Wd-1" target="q_OA1AqWkvl_mFI5t7Wd-72">
          <mxGeometry relative="1" as="geometry">
            <mxPoint x="-1222.5" y="-1728.5000000000002" as="sourcePoint" />
          </mxGeometry>
        </mxCell>
        <mxCell id="q_OA1AqWkvl_mFI5t7Wd-34" value="" style="endArrow=classic;html=1;entryX=0;entryY=0.75;entryDx=0;entryDy=0;" edge="1" parent="q_OA1AqWkvl_mFI5t7Wd-1">
          <mxGeometry width="50" height="50" relative="1" as="geometry">
            <mxPoint x="-1351.5" y="-1693" as="sourcePoint" />
            <mxPoint x="-1265" y="-1692.75" as="targetPoint" />
          </mxGeometry>
        </mxCell>
        <mxCell id="q_OA1AqWkvl_mFI5t7Wd-36" style="edgeStyle=orthogonalEdgeStyle;rounded=0;orthogonalLoop=1;jettySize=auto;html=1;entryX=0;entryY=0.25;entryDx=0;entryDy=0;exitX=1;exitY=0.5;exitDx=0;exitDy=0;" edge="1" parent="q_OA1AqWkvl_mFI5t7Wd-1" source="q_OA1AqWkvl_mFI5t7Wd-163" target="q_OA1AqWkvl_mFI5t7Wd-74">
          <mxGeometry relative="1" as="geometry">
            <Array as="points">
              <mxPoint x="-1122.5" y="-1627" />
              <mxPoint x="-1122.5" y="-1308" />
            </Array>
            <mxPoint x="-1212.5" y="-1583.5294117647059" as="sourcePoint" />
          </mxGeometry>
        </mxCell>
        <mxCell id="q_OA1AqWkvl_mFI5t7Wd-37" style="edgeStyle=orthogonalEdgeStyle;rounded=0;orthogonalLoop=1;jettySize=auto;html=1;exitX=1;exitY=0.5;exitDx=0;exitDy=0;entryX=0;entryY=0.25;entryDx=0;entryDy=0;" edge="1" parent="q_OA1AqWkvl_mFI5t7Wd-1" source="q_OA1AqWkvl_mFI5t7Wd-163" target="q_OA1AqWkvl_mFI5t7Wd-55">
          <mxGeometry relative="1" as="geometry">
            <mxPoint x="-1212.5" y="-1601.7500000000002" as="sourcePoint" />
            <Array as="points">
              <mxPoint x="-1122.5" y="-1627" />
              <mxPoint x="-1122.5" y="-1582" />
            </Array>
          </mxGeometry>
        </mxCell>
        <mxCell id="q_OA1AqWkvl_mFI5t7Wd-39" value="" style="endArrow=classic;html=1;entryX=0;entryY=0.75;entryDx=0;entryDy=0;" edge="1" parent="q_OA1AqWkvl_mFI5t7Wd-1" target="q_OA1AqWkvl_mFI5t7Wd-163">
          <mxGeometry width="50" height="50" relative="1" as="geometry">
            <mxPoint x="-1368.5" y="-1608" as="sourcePoint" />
            <mxPoint x="-1270.5665" y="-1619.4505" as="targetPoint" />
          </mxGeometry>
        </mxCell>
        <mxCell id="q_OA1AqWkvl_mFI5t7Wd-40" value="q2 + e2&lt;br&gt;" style="text;html=1;resizable=0;points=[];autosize=1;align=left;verticalAlign=top;spacingTop=-4;" vertex="1" parent="q_OA1AqWkvl_mFI5t7Wd-1">
          <mxGeometry x="-1361.5" y="-1629.5" width="60" height="20" as="geometry" />
        </mxCell>
        <mxCell id="q_OA1AqWkvl_mFI5t7Wd-41" style="edgeStyle=orthogonalEdgeStyle;rounded=0;orthogonalLoop=1;jettySize=auto;html=1;exitX=1;exitY=0.5;exitDx=0;exitDy=0;entryX=0;entryY=0.5;entryDx=0;entryDy=0;" edge="1" parent="q_OA1AqWkvl_mFI5t7Wd-1" source="q_OA1AqWkvl_mFI5t7Wd-42" target="q_OA1AqWkvl_mFI5t7Wd-86">
          <mxGeometry relative="1" as="geometry" />
        </mxCell>
        <mxCell id="q_OA1AqWkvl_mFI5t7Wd-42" value="REG" style="rounded=0;whiteSpace=wrap;html=1;" vertex="1" parent="q_OA1AqWkvl_mFI5t7Wd-1">
          <mxGeometry x="-1526" y="-1579.0033333333333" width="63" height="40" as="geometry" />
        </mxCell>
        <mxCell id="q_OA1AqWkvl_mFI5t7Wd-43" style="edgeStyle=orthogonalEdgeStyle;rounded=0;orthogonalLoop=1;jettySize=auto;html=1;exitX=1;exitY=0.5;exitDx=0;exitDy=0;entryX=0;entryY=0.75;entryDx=0;entryDy=0;" edge="1" parent="q_OA1AqWkvl_mFI5t7Wd-1" source="q_OA1AqWkvl_mFI5t7Wd-162" target="q_OA1AqWkvl_mFI5t7Wd-53">
          <mxGeometry relative="1" as="geometry">
            <mxPoint x="-1212.5" y="-1453.5" as="sourcePoint" />
            <Array as="points">
              <mxPoint x="-1182.5" y="-1541" />
              <mxPoint x="-1182.5" y="-1660" />
            </Array>
          </mxGeometry>
        </mxCell>
        <mxCell id="q_OA1AqWkvl_mFI5t7Wd-45" value="e1" style="text;html=1;resizable=0;points=[];autosize=1;align=left;verticalAlign=top;spacingTop=-4;" vertex="1" parent="q_OA1AqWkvl_mFI5t7Wd-1">
          <mxGeometry x="-1334.5" y="-1540.67" width="30" height="20" as="geometry" />
        </mxCell>
        <mxCell id="q_OA1AqWkvl_mFI5t7Wd-46" style="edgeStyle=orthogonalEdgeStyle;rounded=0;orthogonalLoop=1;jettySize=auto;html=1;exitX=1;exitY=0.5;exitDx=0;exitDy=0;entryX=0;entryY=0.5;entryDx=0;entryDy=0;" edge="1" parent="q_OA1AqWkvl_mFI5t7Wd-1" source="q_OA1AqWkvl_mFI5t7Wd-47" target="q_OA1AqWkvl_mFI5t7Wd-89">
          <mxGeometry relative="1" as="geometry" />
        </mxCell>
        <mxCell id="q_OA1AqWkvl_mFI5t7Wd-47" value="REG" style="rounded=0;whiteSpace=wrap;html=1;" vertex="1" parent="q_OA1AqWkvl_mFI5t7Wd-1">
          <mxGeometry x="-1527.5" y="-1482.0033333333333" width="63" height="40" as="geometry" />
        </mxCell>
        <mxCell id="q_OA1AqWkvl_mFI5t7Wd-50" value="e2" style="text;html=1;resizable=0;points=[];autosize=1;align=left;verticalAlign=top;spacingTop=-4;" vertex="1" parent="q_OA1AqWkvl_mFI5t7Wd-1">
          <mxGeometry x="-1320.5" y="-1435.5" width="30" height="20" as="geometry" />
        </mxCell>
        <mxCell id="q_OA1AqWkvl_mFI5t7Wd-51" style="edgeStyle=orthogonalEdgeStyle;rounded=0;orthogonalLoop=1;jettySize=auto;html=1;exitX=1;exitY=0.5;exitDx=0;exitDy=0;entryX=0;entryY=0.5;entryDx=0;entryDy=0;" edge="1" parent="q_OA1AqWkvl_mFI5t7Wd-1" source="q_OA1AqWkvl_mFI5t7Wd-53" target="q_OA1AqWkvl_mFI5t7Wd-118">
          <mxGeometry relative="1" as="geometry" />
        </mxCell>
        <mxCell id="q_OA1AqWkvl_mFI5t7Wd-52" style="edgeStyle=orthogonalEdgeStyle;rounded=0;orthogonalLoop=1;jettySize=auto;html=1;exitX=1;exitY=0.25;exitDx=0;exitDy=0;entryX=0.25;entryY=0.5;entryDx=0;entryDy=0;entryPerimeter=0;" edge="1" parent="q_OA1AqWkvl_mFI5t7Wd-1" source="q_OA1AqWkvl_mFI5t7Wd-53" target="GER5J6CCJ1YH0OZn3ZSL-14">
          <mxGeometry relative="1" as="geometry">
            <Array as="points">
              <mxPoint x="-1017" y="-1735" />
              <mxPoint x="-971" y="-1735" />
              <mxPoint x="-971" y="-1835" />
            </Array>
            <mxPoint x="-963.5" y="-1733" as="targetPoint" />
          </mxGeometry>
        </mxCell>
        <mxCell id="q_OA1AqWkvl_mFI5t7Wd-53" value="CMP_E" style="rounded=0;whiteSpace=wrap;html=1;fillColor=#ffe6cc;strokeColor=#d79b00;" vertex="1" parent="q_OA1AqWkvl_mFI5t7Wd-1">
          <mxGeometry x="-1077" y="-1742" width="60" height="110" as="geometry" />
        </mxCell>
        <mxCell id="q_OA1AqWkvl_mFI5t7Wd-54" style="edgeStyle=orthogonalEdgeStyle;rounded=0;orthogonalLoop=1;jettySize=auto;html=1;exitX=1;exitY=0.5;exitDx=0;exitDy=0;entryX=0;entryY=0.5;entryDx=0;entryDy=0;" edge="1" parent="q_OA1AqWkvl_mFI5t7Wd-1" source="q_OA1AqWkvl_mFI5t7Wd-55" target="q_OA1AqWkvl_mFI5t7Wd-122">
          <mxGeometry relative="1" as="geometry" />
        </mxCell>
        <mxCell id="q_OA1AqWkvl_mFI5t7Wd-55" value="CMP" style="rounded=0;whiteSpace=wrap;html=1;fillColor=#ffe6cc;strokeColor=#d79b00;" vertex="1" parent="q_OA1AqWkvl_mFI5t7Wd-1">
          <mxGeometry x="-1077" y="-1609.5" width="60" height="110" as="geometry" />
        </mxCell>
        <mxCell id="q_OA1AqWkvl_mFI5t7Wd-56" value="E0(i, j+1)/7clk" style="text;html=1;resizable=0;points=[];autosize=1;align=left;verticalAlign=top;spacingTop=-4;" vertex="1" parent="q_OA1AqWkvl_mFI5t7Wd-1">
          <mxGeometry x="-734" y="-1708" width="90" height="20" as="geometry" />
        </mxCell>
        <mxCell id="GER5J6CCJ1YH0OZn3ZSL-7" style="edgeStyle=orthogonalEdgeStyle;rounded=0;orthogonalLoop=1;jettySize=auto;html=1;exitX=1;exitY=0.5;exitDx=0;exitDy=0;entryX=0;entryY=0.5;entryDx=0;entryDy=0;" edge="1" parent="q_OA1AqWkvl_mFI5t7Wd-1" source="q_OA1AqWkvl_mFI5t7Wd-58" target="GER5J6CCJ1YH0OZn3ZSL-2">
          <mxGeometry relative="1" as="geometry" />
        </mxCell>
        <mxCell id="q_OA1AqWkvl_mFI5t7Wd-58" value="REG" style="rounded=0;whiteSpace=wrap;html=1;" vertex="1" parent="q_OA1AqWkvl_mFI5t7Wd-1">
          <mxGeometry x="-1526" y="-1404.1733333333332" width="63" height="40" as="geometry" />
        </mxCell>
        <mxCell id="q_OA1AqWkvl_mFI5t7Wd-62" value="e1" style="text;html=1;resizable=0;points=[];autosize=1;align=left;verticalAlign=top;spacingTop=-4;" vertex="1" parent="q_OA1AqWkvl_mFI5t7Wd-1">
          <mxGeometry x="-1331" y="-1355.17" width="30" height="20" as="geometry" />
        </mxCell>
        <mxCell id="GER5J6CCJ1YH0OZn3ZSL-6" style="edgeStyle=orthogonalEdgeStyle;rounded=0;orthogonalLoop=1;jettySize=auto;html=1;exitX=1;exitY=0.5;exitDx=0;exitDy=0;entryX=0;entryY=0.5;entryDx=0;entryDy=0;" edge="1" parent="q_OA1AqWkvl_mFI5t7Wd-1" source="q_OA1AqWkvl_mFI5t7Wd-64" target="GER5J6CCJ1YH0OZn3ZSL-4">
          <mxGeometry relative="1" as="geometry" />
        </mxCell>
        <mxCell id="q_OA1AqWkvl_mFI5t7Wd-64" value="REG" style="rounded=0;whiteSpace=wrap;html=1;" vertex="1" parent="q_OA1AqWkvl_mFI5t7Wd-1">
          <mxGeometry x="-1527.5" y="-1310.1733333333334" width="63" height="40" as="geometry" />
        </mxCell>
        <mxCell id="q_OA1AqWkvl_mFI5t7Wd-65" value="" style="edgeStyle=orthogonalEdgeStyle;rounded=0;orthogonalLoop=1;jettySize=auto;html=1;entryX=0;entryY=0.25;entryDx=0;entryDy=0;exitX=1;exitY=0.5;exitDx=0;exitDy=0;" edge="1" parent="q_OA1AqWkvl_mFI5t7Wd-1" target="q_OA1AqWkvl_mFI5t7Wd-161">
          <mxGeometry relative="1" as="geometry">
            <mxPoint x="-1346.5" y="-1280.17" as="sourcePoint" />
            <mxPoint x="-1263" y="-1245.003333333334" as="targetPoint" />
          </mxGeometry>
        </mxCell>
        <mxCell id="q_OA1AqWkvl_mFI5t7Wd-66" style="edgeStyle=orthogonalEdgeStyle;rounded=0;orthogonalLoop=1;jettySize=auto;html=1;exitX=1;exitY=0.5;exitDx=0;exitDy=0;entryX=0;entryY=0.75;entryDx=0;entryDy=0;" edge="1" parent="q_OA1AqWkvl_mFI5t7Wd-1" source="q_OA1AqWkvl_mFI5t7Wd-161" target="q_OA1AqWkvl_mFI5t7Wd-74">
          <mxGeometry relative="1" as="geometry" />
        </mxCell>
        <mxCell id="GER5J6CCJ1YH0OZn3ZSL-11" style="edgeStyle=orthogonalEdgeStyle;rounded=0;orthogonalLoop=1;jettySize=auto;html=1;exitX=1;exitY=0.5;exitDx=0;exitDy=0;entryX=0;entryY=0.75;entryDx=0;entryDy=0;" edge="1" parent="q_OA1AqWkvl_mFI5t7Wd-1" source="q_OA1AqWkvl_mFI5t7Wd-67" target="q_OA1AqWkvl_mFI5t7Wd-55">
          <mxGeometry relative="1" as="geometry">
            <Array as="points">
              <mxPoint x="-1192.5" y="-1444" />
              <mxPoint x="-1192.5" y="-1527" />
            </Array>
          </mxGeometry>
        </mxCell>
        <mxCell id="q_OA1AqWkvl_mFI5t7Wd-67" value="SUB" style="rounded=0;whiteSpace=wrap;html=1;fillColor=#d5e8d4;strokeColor=#82b366;" vertex="1" parent="q_OA1AqWkvl_mFI5t7Wd-1">
          <mxGeometry x="-1265.5" y="-1482" width="56" height="75.5" as="geometry" />
        </mxCell>
        <mxCell id="q_OA1AqWkvl_mFI5t7Wd-68" value="" style="endArrow=classic;html=1;entryX=0;entryY=0.75;entryDx=0;entryDy=0;" edge="1" parent="q_OA1AqWkvl_mFI5t7Wd-1" target="q_OA1AqWkvl_mFI5t7Wd-161">
          <mxGeometry width="50" height="50" relative="1" as="geometry">
            <mxPoint x="-1382.5" y="-1241" as="sourcePoint" />
            <mxPoint x="-1292.5" y="-1145" as="targetPoint" />
          </mxGeometry>
        </mxCell>
        <mxCell id="q_OA1AqWkvl_mFI5t7Wd-69" value="e2" style="text;html=1;resizable=0;points=[];autosize=1;align=left;verticalAlign=top;spacingTop=-4;" vertex="1" parent="q_OA1AqWkvl_mFI5t7Wd-1">
          <mxGeometry x="-1316.5" y="-1260.17" width="30" height="20" as="geometry" />
        </mxCell>
        <mxCell id="q_OA1AqWkvl_mFI5t7Wd-70" style="edgeStyle=orthogonalEdgeStyle;rounded=0;orthogonalLoop=1;jettySize=auto;html=1;exitX=1;exitY=0.5;exitDx=0;exitDy=0;entryX=0;entryY=0.5;entryDx=0;entryDy=0;" edge="1" parent="q_OA1AqWkvl_mFI5t7Wd-1" source="q_OA1AqWkvl_mFI5t7Wd-72" target="q_OA1AqWkvl_mFI5t7Wd-124">
          <mxGeometry relative="1" as="geometry" />
        </mxCell>
        <mxCell id="q_OA1AqWkvl_mFI5t7Wd-71" style="edgeStyle=orthogonalEdgeStyle;rounded=0;orthogonalLoop=1;jettySize=auto;html=1;exitX=1;exitY=0.25;exitDx=0;exitDy=0;entryX=0.175;entryY=0.75;entryDx=0;entryDy=0;entryPerimeter=0;" edge="1" parent="q_OA1AqWkvl_mFI5t7Wd-1" source="q_OA1AqWkvl_mFI5t7Wd-72" target="GER5J6CCJ1YH0OZn3ZSL-14">
          <mxGeometry relative="1" as="geometry">
            <mxPoint x="-963.5" y="-1703" as="targetPoint" />
            <Array as="points">
              <mxPoint x="-1017" y="-1419" />
              <mxPoint x="-1001" y="-1419" />
              <mxPoint x="-1001" y="-1712" />
              <mxPoint x="-961" y="-1712" />
              <mxPoint x="-961" y="-1811" />
            </Array>
          </mxGeometry>
        </mxCell>
        <mxCell id="q_OA1AqWkvl_mFI5t7Wd-72" value="CMP_F" style="rounded=0;whiteSpace=wrap;html=1;fillColor=#ffe6cc;strokeColor=#d79b00;" vertex="1" parent="q_OA1AqWkvl_mFI5t7Wd-1">
          <mxGeometry x="-1077.5" y="-1474.17" width="60" height="110" as="geometry" />
        </mxCell>
        <mxCell id="q_OA1AqWkvl_mFI5t7Wd-73" style="edgeStyle=orthogonalEdgeStyle;rounded=0;orthogonalLoop=1;jettySize=auto;html=1;exitX=1;exitY=0.5;exitDx=0;exitDy=0;" edge="1" parent="q_OA1AqWkvl_mFI5t7Wd-1" source="q_OA1AqWkvl_mFI5t7Wd-74" target="q_OA1AqWkvl_mFI5t7Wd-126">
          <mxGeometry relative="1" as="geometry" />
        </mxCell>
        <mxCell id="q_OA1AqWkvl_mFI5t7Wd-74" value="CMP" style="rounded=0;whiteSpace=wrap;html=1;fillColor=#ffe6cc;strokeColor=#d79b00;" vertex="1" parent="q_OA1AqWkvl_mFI5t7Wd-1">
          <mxGeometry x="-1078" y="-1335.17" width="60" height="110" as="geometry" />
        </mxCell>
        <mxCell id="q_OA1AqWkvl_mFI5t7Wd-75" value="F0(i+1, j)/7clk" style="text;html=1;resizable=0;points=[];autosize=1;align=left;verticalAlign=top;spacingTop=-4;" vertex="1" parent="q_OA1AqWkvl_mFI5t7Wd-1">
          <mxGeometry x="-734" y="-1449.17" width="90" height="20" as="geometry" />
        </mxCell>
        <mxCell id="q_OA1AqWkvl_mFI5t7Wd-76" value="REG" style="rounded=0;whiteSpace=wrap;html=1;" vertex="1" parent="q_OA1AqWkvl_mFI5t7Wd-1">
          <mxGeometry x="-1006" y="-1942" width="40" height="40" as="geometry" />
        </mxCell>
        <mxCell id="q_OA1AqWkvl_mFI5t7Wd-77" value="REG" style="rounded=0;whiteSpace=wrap;html=1;" vertex="1" parent="q_OA1AqWkvl_mFI5t7Wd-1">
          <mxGeometry x="-966.5" y="-1942" width="37" height="40" as="geometry" />
        </mxCell>
        <mxCell id="q_OA1AqWkvl_mFI5t7Wd-78" value="REG" style="rounded=0;whiteSpace=wrap;html=1;" vertex="1" parent="q_OA1AqWkvl_mFI5t7Wd-1">
          <mxGeometry x="-929.5" y="-1942" width="40" height="40" as="geometry" />
        </mxCell>
        <mxCell id="q_OA1AqWkvl_mFI5t7Wd-79" value="REG" style="rounded=0;whiteSpace=wrap;html=1;" vertex="1" parent="q_OA1AqWkvl_mFI5t7Wd-1">
          <mxGeometry x="-890" y="-1942" width="37" height="40" as="geometry" />
        </mxCell>
        <mxCell id="q_OA1AqWkvl_mFI5t7Wd-80" value="REG" style="rounded=0;whiteSpace=wrap;html=1;" vertex="1" parent="q_OA1AqWkvl_mFI5t7Wd-1">
          <mxGeometry x="-856" y="-1942" width="40" height="40" as="geometry" />
        </mxCell>
        <mxCell id="q_OA1AqWkvl_mFI5t7Wd-81" value="REG" style="rounded=0;whiteSpace=wrap;html=1;" vertex="1" parent="q_OA1AqWkvl_mFI5t7Wd-1">
          <mxGeometry x="-816.5" y="-1942" width="37" height="40" as="geometry" />
        </mxCell>
        <mxCell id="q_OA1AqWkvl_mFI5t7Wd-82" style="edgeStyle=orthogonalEdgeStyle;rounded=0;orthogonalLoop=1;jettySize=auto;html=1;exitX=1;exitY=0.5;exitDx=0;exitDy=0;" edge="1" parent="q_OA1AqWkvl_mFI5t7Wd-1" source="q_OA1AqWkvl_mFI5t7Wd-83">
          <mxGeometry relative="1" as="geometry">
            <mxPoint x="-678" y="-1922" as="targetPoint" />
          </mxGeometry>
        </mxCell>
        <mxCell id="q_OA1AqWkvl_mFI5t7Wd-83" value="REG" style="rounded=0;whiteSpace=wrap;html=1;" vertex="1" parent="q_OA1AqWkvl_mFI5t7Wd-1">
          <mxGeometry x="-779.5" y="-1942" width="40" height="40" as="geometry" />
        </mxCell>
        <mxCell id="q_OA1AqWkvl_mFI5t7Wd-84" value="H(i+1, j+1)/14clk" style="text;html=1;resizable=0;points=[];autosize=1;align=left;verticalAlign=top;spacingTop=-4;" vertex="1" parent="q_OA1AqWkvl_mFI5t7Wd-1">
          <mxGeometry x="-789.5" y="-1965" width="100" height="20" as="geometry" />
        </mxCell>
        <mxCell id="q_OA1AqWkvl_mFI5t7Wd-85" value="F1(i+1, j)/7clk" style="text;html=1;resizable=0;points=[];autosize=1;align=left;verticalAlign=top;spacingTop=-4;" vertex="1" parent="q_OA1AqWkvl_mFI5t7Wd-1">
          <mxGeometry x="-734" y="-1310.17" width="90" height="20" as="geometry" />
        </mxCell>
        <mxCell id="q_OA1AqWkvl_mFI5t7Wd-86" value="REG" style="rounded=0;whiteSpace=wrap;html=1;" vertex="1" parent="q_OA1AqWkvl_mFI5t7Wd-1">
          <mxGeometry x="-1420.5" y="-1579.17" width="43" height="40" as="geometry" />
        </mxCell>
        <mxCell id="q_OA1AqWkvl_mFI5t7Wd-87" style="edgeStyle=orthogonalEdgeStyle;rounded=0;orthogonalLoop=1;jettySize=auto;html=1;exitX=1;exitY=0.5;exitDx=0;exitDy=0;entryX=0;entryY=0.25;entryDx=0;entryDy=0;" edge="1" parent="q_OA1AqWkvl_mFI5t7Wd-1" source="q_OA1AqWkvl_mFI5t7Wd-88">
          <mxGeometry relative="1" as="geometry">
            <mxPoint x="-1263" y="-1568.17" as="targetPoint" />
          </mxGeometry>
        </mxCell>
        <mxCell id="q_OA1AqWkvl_mFI5t7Wd-88" value="REG" style="rounded=0;whiteSpace=wrap;html=1;" vertex="1" parent="q_OA1AqWkvl_mFI5t7Wd-1">
          <mxGeometry x="-1379.5" y="-1579.17" width="40" height="40" as="geometry" />
        </mxCell>
        <mxCell id="q_OA1AqWkvl_mFI5t7Wd-89" value="REG" style="rounded=0;whiteSpace=wrap;html=1;" vertex="1" parent="q_OA1AqWkvl_mFI5t7Wd-1">
          <mxGeometry x="-1423.5" y="-1482" width="40" height="40" as="geometry" />
        </mxCell>
        <mxCell id="GER5J6CCJ1YH0OZn3ZSL-9" style="edgeStyle=orthogonalEdgeStyle;rounded=0;orthogonalLoop=1;jettySize=auto;html=1;exitX=1;exitY=0.5;exitDx=0;exitDy=0;entryX=0;entryY=0.25;entryDx=0;entryDy=0;" edge="1" parent="q_OA1AqWkvl_mFI5t7Wd-1" source="q_OA1AqWkvl_mFI5t7Wd-91" target="q_OA1AqWkvl_mFI5t7Wd-67">
          <mxGeometry relative="1" as="geometry" />
        </mxCell>
        <mxCell id="q_OA1AqWkvl_mFI5t7Wd-91" value="REG" style="rounded=0;whiteSpace=wrap;html=1;" vertex="1" parent="q_OA1AqWkvl_mFI5t7Wd-1">
          <mxGeometry x="-1383.5" y="-1482" width="40" height="40" as="geometry" />
        </mxCell>
        <mxCell id="q_OA1AqWkvl_mFI5t7Wd-96" value="REG" style="rounded=0;whiteSpace=wrap;html=1;" vertex="1" parent="q_OA1AqWkvl_mFI5t7Wd-1">
          <mxGeometry x="-1117" y="-1943" width="40" height="40" as="geometry" />
        </mxCell>
        <mxCell id="q_OA1AqWkvl_mFI5t7Wd-97" style="edgeStyle=orthogonalEdgeStyle;rounded=0;orthogonalLoop=1;jettySize=auto;html=1;exitX=1;exitY=0.5;exitDx=0;exitDy=0;" edge="1" parent="q_OA1AqWkvl_mFI5t7Wd-1" source="q_OA1AqWkvl_mFI5t7Wd-98">
          <mxGeometry relative="1" as="geometry">
            <mxPoint x="-1009.5" y="-1923" as="targetPoint" />
          </mxGeometry>
        </mxCell>
        <mxCell id="q_OA1AqWkvl_mFI5t7Wd-98" value="REG" style="rounded=0;whiteSpace=wrap;html=1;" vertex="1" parent="q_OA1AqWkvl_mFI5t7Wd-1">
          <mxGeometry x="-1077.5" y="-1943" width="37" height="40" as="geometry" />
        </mxCell>
        <mxCell id="q_OA1AqWkvl_mFI5t7Wd-99" value="M(i, j)" style="text;html=1;resizable=0;points=[];autosize=1;align=left;verticalAlign=top;spacingTop=-4;" vertex="1" parent="q_OA1AqWkvl_mFI5t7Wd-1">
          <mxGeometry x="-1299.5" y="-2069" width="50" height="20" as="geometry" />
        </mxCell>
        <mxCell id="q_OA1AqWkvl_mFI5t7Wd-100" style="edgeStyle=orthogonalEdgeStyle;rounded=0;orthogonalLoop=1;jettySize=auto;html=1;exitX=1;exitY=0.75;exitDx=0;exitDy=0;" edge="1" parent="q_OA1AqWkvl_mFI5t7Wd-1" source="q_OA1AqWkvl_mFI5t7Wd-102">
          <mxGeometry relative="1" as="geometry">
            <mxPoint x="-1358" y="-1809.1666666666665" as="targetPoint" />
          </mxGeometry>
        </mxCell>
        <mxCell id="q_OA1AqWkvl_mFI5t7Wd-101" style="edgeStyle=orthogonalEdgeStyle;rounded=0;orthogonalLoop=1;jettySize=auto;html=1;exitX=1;exitY=0.25;exitDx=0;exitDy=0;" edge="1" parent="q_OA1AqWkvl_mFI5t7Wd-1" source="q_OA1AqWkvl_mFI5t7Wd-102">
          <mxGeometry relative="1" as="geometry">
            <mxPoint x="-1358" y="-1864.1666666666665" as="targetPoint" />
          </mxGeometry>
        </mxCell>
        <mxCell id="q_OA1AqWkvl_mFI5t7Wd-102" value="CMP_E_F" style="rounded=0;whiteSpace=wrap;html=1;" vertex="1" parent="q_OA1AqWkvl_mFI5t7Wd-1">
          <mxGeometry x="-1419" y="-1892" width="46" height="110" as="geometry" />
        </mxCell>
        <mxCell id="q_OA1AqWkvl_mFI5t7Wd-103" style="edgeStyle=orthogonalEdgeStyle;rounded=0;orthogonalLoop=1;jettySize=auto;html=1;exitX=1;exitY=0.25;exitDx=0;exitDy=0;entryX=0;entryY=0.5;entryDx=0;entryDy=0;" edge="1" parent="q_OA1AqWkvl_mFI5t7Wd-1" source="q_OA1AqWkvl_mFI5t7Wd-105" target="q_OA1AqWkvl_mFI5t7Wd-111">
          <mxGeometry relative="1" as="geometry" />
        </mxCell>
        <mxCell id="q_OA1AqWkvl_mFI5t7Wd-104" style="edgeStyle=orthogonalEdgeStyle;rounded=0;orthogonalLoop=1;jettySize=auto;html=1;exitX=1;exitY=0.5;exitDx=0;exitDy=0;entryX=0;entryY=0.5;entryDx=0;entryDy=0;" edge="1" parent="q_OA1AqWkvl_mFI5t7Wd-1" source="q_OA1AqWkvl_mFI5t7Wd-105" target="q_OA1AqWkvl_mFI5t7Wd-114">
          <mxGeometry relative="1" as="geometry" />
        </mxCell>
        <mxCell id="q_OA1AqWkvl_mFI5t7Wd-105" value="BT_D0" style="rounded=0;whiteSpace=wrap;html=1;" vertex="1" parent="q_OA1AqWkvl_mFI5t7Wd-1">
          <mxGeometry x="-1268.5" y="-1909" width="60" height="130" as="geometry" />
        </mxCell>
        <mxCell id="q_OA1AqWkvl_mFI5t7Wd-106" style="edgeStyle=orthogonalEdgeStyle;rounded=0;orthogonalLoop=1;jettySize=auto;html=1;entryX=0;entryY=0.75;entryDx=0;entryDy=0;" edge="1" parent="q_OA1AqWkvl_mFI5t7Wd-1" source="q_OA1AqWkvl_mFI5t7Wd-107" target="q_OA1AqWkvl_mFI5t7Wd-105">
          <mxGeometry relative="1" as="geometry" />
        </mxCell>
        <mxCell id="q_OA1AqWkvl_mFI5t7Wd-107" value="REG" style="rounded=0;whiteSpace=wrap;html=1;" vertex="1" parent="q_OA1AqWkvl_mFI5t7Wd-1">
          <mxGeometry x="-1358" y="-1826" width="40" height="40" as="geometry" />
        </mxCell>
        <mxCell id="q_OA1AqWkvl_mFI5t7Wd-108" style="edgeStyle=orthogonalEdgeStyle;rounded=0;orthogonalLoop=1;jettySize=auto;html=1;exitX=1;exitY=0.5;exitDx=0;exitDy=0;entryX=0;entryY=0.5;entryDx=0;entryDy=0;" edge="1" parent="q_OA1AqWkvl_mFI5t7Wd-1" source="q_OA1AqWkvl_mFI5t7Wd-109" target="q_OA1AqWkvl_mFI5t7Wd-105">
          <mxGeometry relative="1" as="geometry" />
        </mxCell>
        <mxCell id="q_OA1AqWkvl_mFI5t7Wd-109" value="REG" style="rounded=0;whiteSpace=wrap;html=1;" vertex="1" parent="q_OA1AqWkvl_mFI5t7Wd-1">
          <mxGeometry x="-1355" y="-1886" width="40" height="40" as="geometry" />
        </mxCell>
        <mxCell id="q_OA1AqWkvl_mFI5t7Wd-110" style="edgeStyle=orthogonalEdgeStyle;rounded=0;orthogonalLoop=1;jettySize=auto;html=1;exitX=0.5;exitY=0;exitDx=0;exitDy=0;entryX=0;entryY=0.75;entryDx=0;entryDy=0;" edge="1" parent="q_OA1AqWkvl_mFI5t7Wd-1" source="q_OA1AqWkvl_mFI5t7Wd-111" target="q_OA1AqWkvl_mFI5t7Wd-155">
          <mxGeometry relative="1" as="geometry" />
        </mxCell>
        <mxCell id="q_OA1AqWkvl_mFI5t7Wd-111" value="REG" style="rounded=0;whiteSpace=wrap;html=1;" vertex="1" parent="q_OA1AqWkvl_mFI5t7Wd-1">
          <mxGeometry x="-1156.5" y="-1943" width="40" height="40" as="geometry" />
        </mxCell>
        <mxCell id="q_OA1AqWkvl_mFI5t7Wd-112" value="" style="endArrow=classic;html=1;entryX=0;entryY=0.75;entryDx=0;entryDy=0;" edge="1" parent="q_OA1AqWkvl_mFI5t7Wd-1">
          <mxGeometry width="50" height="50" relative="1" as="geometry">
            <mxPoint x="-1348.5" y="-1513.17" as="sourcePoint" />
            <mxPoint x="-1263" y="-1513.17" as="targetPoint" />
          </mxGeometry>
        </mxCell>
        <mxCell id="q_OA1AqWkvl_mFI5t7Wd-113" style="edgeStyle=orthogonalEdgeStyle;rounded=0;orthogonalLoop=1;jettySize=auto;html=1;exitX=1;exitY=0.5;exitDx=0;exitDy=0;entryX=0;entryY=0.5;entryDx=0;entryDy=0;" edge="1" parent="q_OA1AqWkvl_mFI5t7Wd-1" source="q_OA1AqWkvl_mFI5t7Wd-114" target="q_OA1AqWkvl_mFI5t7Wd-116">
          <mxGeometry relative="1" as="geometry" />
        </mxCell>
        <mxCell id="q_OA1AqWkvl_mFI5t7Wd-114" value="REG" style="rounded=0;whiteSpace=wrap;html=1;" vertex="1" parent="q_OA1AqWkvl_mFI5t7Wd-1">
          <mxGeometry x="-1175.5" y="-1864" width="49" height="40" as="geometry" />
        </mxCell>
        <mxCell id="q_OA1AqWkvl_mFI5t7Wd-115" style="edgeStyle=orthogonalEdgeStyle;rounded=0;orthogonalLoop=1;jettySize=auto;html=1;exitX=1;exitY=0.5;exitDx=0;exitDy=0;entryX=0.175;entryY=0.25;entryDx=0;entryDy=0;entryPerimeter=0;" edge="1" parent="q_OA1AqWkvl_mFI5t7Wd-1" source="q_OA1AqWkvl_mFI5t7Wd-116" target="GER5J6CCJ1YH0OZn3ZSL-14">
          <mxGeometry relative="1" as="geometry">
            <mxPoint x="-963.5" y="-1763" as="targetPoint" />
          </mxGeometry>
        </mxCell>
        <mxCell id="q_OA1AqWkvl_mFI5t7Wd-116" value="REG" style="rounded=0;whiteSpace=wrap;html=1;" vertex="1" parent="q_OA1AqWkvl_mFI5t7Wd-1">
          <mxGeometry x="-1071" y="-1864" width="49" height="40" as="geometry" />
        </mxCell>
        <mxCell id="q_OA1AqWkvl_mFI5t7Wd-117" style="edgeStyle=orthogonalEdgeStyle;rounded=0;orthogonalLoop=1;jettySize=auto;html=1;exitX=1;exitY=0.5;exitDx=0;exitDy=0;" edge="1" parent="q_OA1AqWkvl_mFI5t7Wd-1" source="q_OA1AqWkvl_mFI5t7Wd-118">
          <mxGeometry relative="1" as="geometry">
            <mxPoint x="-632.5" y="-1688" as="targetPoint" />
          </mxGeometry>
        </mxCell>
        <mxCell id="q_OA1AqWkvl_mFI5t7Wd-118" value="REG" style="rounded=0;whiteSpace=wrap;html=1;" vertex="1" parent="q_OA1AqWkvl_mFI5t7Wd-1">
          <mxGeometry x="-971" y="-1708" width="49" height="40" as="geometry" />
        </mxCell>
        <mxCell id="q_OA1AqWkvl_mFI5t7Wd-119" value="" style="endArrow=classic;html=1;entryX=0;entryY=0.75;entryDx=0;entryDy=0;" edge="1" parent="q_OA1AqWkvl_mFI5t7Wd-1">
          <mxGeometry width="50" height="50" relative="1" as="geometry">
            <mxPoint x="-1358.5" y="-1419" as="sourcePoint" />
            <mxPoint x="-1268" y="-1419.5" as="targetPoint" />
          </mxGeometry>
        </mxCell>
        <mxCell id="q_OA1AqWkvl_mFI5t7Wd-120" value="" style="endArrow=classic;html=1;entryX=0;entryY=0.75;entryDx=0;entryDy=0;" edge="1" parent="q_OA1AqWkvl_mFI5t7Wd-1" target="q_OA1AqWkvl_mFI5t7Wd-164">
          <mxGeometry width="50" height="50" relative="1" as="geometry">
            <mxPoint x="-1372.5" y="-1335" as="sourcePoint" />
            <mxPoint x="-1272" y="-1328.67" as="targetPoint" />
          </mxGeometry>
        </mxCell>
        <mxCell id="q_OA1AqWkvl_mFI5t7Wd-122" value="REG" style="rounded=0;whiteSpace=wrap;html=1;" vertex="1" parent="q_OA1AqWkvl_mFI5t7Wd-1">
          <mxGeometry x="-971" y="-1574.5" width="49" height="40" as="geometry" />
        </mxCell>
        <mxCell id="q_OA1AqWkvl_mFI5t7Wd-123" style="edgeStyle=orthogonalEdgeStyle;rounded=0;orthogonalLoop=1;jettySize=auto;html=1;exitX=1;exitY=0.5;exitDx=0;exitDy=0;" edge="1" parent="q_OA1AqWkvl_mFI5t7Wd-1" source="q_OA1AqWkvl_mFI5t7Wd-124">
          <mxGeometry relative="1" as="geometry">
            <mxPoint x="-636.5" y="-1419.17" as="targetPoint" />
          </mxGeometry>
        </mxCell>
        <mxCell id="q_OA1AqWkvl_mFI5t7Wd-124" value="REG" style="rounded=0;whiteSpace=wrap;html=1;" vertex="1" parent="q_OA1AqWkvl_mFI5t7Wd-1">
          <mxGeometry x="-965" y="-1444.17" width="49" height="40" as="geometry" />
        </mxCell>
        <mxCell id="q_OA1AqWkvl_mFI5t7Wd-125" style="edgeStyle=orthogonalEdgeStyle;rounded=0;orthogonalLoop=1;jettySize=auto;html=1;exitX=1;exitY=0.5;exitDx=0;exitDy=0;" edge="1" parent="q_OA1AqWkvl_mFI5t7Wd-1" source="q_OA1AqWkvl_mFI5t7Wd-126">
          <mxGeometry relative="1" as="geometry">
            <mxPoint x="-636.5" y="-1280.17" as="targetPoint" />
          </mxGeometry>
        </mxCell>
        <mxCell id="q_OA1AqWkvl_mFI5t7Wd-126" value="REG" style="rounded=0;whiteSpace=wrap;html=1;" vertex="1" parent="q_OA1AqWkvl_mFI5t7Wd-1">
          <mxGeometry x="-965" y="-1300.17" width="49" height="40" as="geometry" />
        </mxCell>
        <mxCell id="q_OA1AqWkvl_mFI5t7Wd-127" style="edgeStyle=orthogonalEdgeStyle;rounded=0;orthogonalLoop=1;jettySize=auto;html=1;exitX=1;exitY=0.5;exitDx=0;exitDy=0;" edge="1" parent="q_OA1AqWkvl_mFI5t7Wd-1">
          <mxGeometry relative="1" as="geometry">
            <mxPoint x="-618" y="-1834.59" as="targetPoint" />
            <mxPoint x="-889.5" y="-1834.59" as="sourcePoint" />
          </mxGeometry>
        </mxCell>
        <mxCell id="q_OA1AqWkvl_mFI5t7Wd-129" value="bt_d/7clk" style="text;html=1;resizable=0;points=[];autosize=1;align=left;verticalAlign=top;spacingTop=-4;" vertex="1" parent="q_OA1AqWkvl_mFI5t7Wd-1">
          <mxGeometry x="-709.5" y="-1854.59" width="60" height="20" as="geometry" />
        </mxCell>
        <mxCell id="q_OA1AqWkvl_mFI5t7Wd-130" value="" style="endArrow=classic;html=1;entryX=0;entryY=0.25;entryDx=0;entryDy=0;" edge="1" parent="q_OA1AqWkvl_mFI5t7Wd-1" target="q_OA1AqWkvl_mFI5t7Wd-20">
          <mxGeometry width="50" height="50" relative="1" as="geometry">
            <mxPoint x="-1641" y="-1902.5" as="sourcePoint" />
            <mxPoint x="-1731" y="-1909.5" as="targetPoint" />
          </mxGeometry>
        </mxCell>
        <mxCell id="q_OA1AqWkvl_mFI5t7Wd-131" value="" style="endArrow=classic;html=1;entryX=0;entryY=0.25;entryDx=0;entryDy=0;" edge="1" parent="q_OA1AqWkvl_mFI5t7Wd-1" target="q_OA1AqWkvl_mFI5t7Wd-27">
          <mxGeometry width="50" height="50" relative="1" as="geometry">
            <mxPoint x="-1654" y="-1777" as="sourcePoint" />
            <mxPoint x="-1694" y="-1754" as="targetPoint" />
          </mxGeometry>
        </mxCell>
        <mxCell id="q_OA1AqWkvl_mFI5t7Wd-133" style="edgeStyle=orthogonalEdgeStyle;rounded=0;orthogonalLoop=1;jettySize=auto;html=1;exitX=1;exitY=0.5;exitDx=0;exitDy=0;" edge="1" parent="q_OA1AqWkvl_mFI5t7Wd-1" source="q_OA1AqWkvl_mFI5t7Wd-122">
          <mxGeometry relative="1" as="geometry">
            <mxPoint x="-642.5" y="-1554" as="targetPoint" />
            <mxPoint x="-935.5" y="-1554" as="sourcePoint" />
          </mxGeometry>
        </mxCell>
        <mxCell id="q_OA1AqWkvl_mFI5t7Wd-134" value="REG" style="rounded=0;whiteSpace=wrap;html=1;" vertex="1" parent="q_OA1AqWkvl_mFI5t7Wd-1">
          <mxGeometry x="-1356.5" y="-2188" width="40" height="40" as="geometry" />
        </mxCell>
        <mxCell id="q_OA1AqWkvl_mFI5t7Wd-135" value="REG" style="rounded=0;whiteSpace=wrap;html=1;" vertex="1" parent="q_OA1AqWkvl_mFI5t7Wd-1">
          <mxGeometry x="-1317" y="-2188" width="37" height="40" as="geometry" />
        </mxCell>
        <mxCell id="q_OA1AqWkvl_mFI5t7Wd-136" value="REG" style="rounded=0;whiteSpace=wrap;html=1;" vertex="1" parent="q_OA1AqWkvl_mFI5t7Wd-1">
          <mxGeometry x="-1280" y="-2188" width="40" height="40" as="geometry" />
        </mxCell>
        <mxCell id="q_OA1AqWkvl_mFI5t7Wd-137" value="REG" style="rounded=0;whiteSpace=wrap;html=1;" vertex="1" parent="q_OA1AqWkvl_mFI5t7Wd-1">
          <mxGeometry x="-1240.5" y="-2188" width="37" height="40" as="geometry" />
        </mxCell>
        <mxCell id="q_OA1AqWkvl_mFI5t7Wd-138" value="REG" style="rounded=0;whiteSpace=wrap;html=1;" vertex="1" parent="q_OA1AqWkvl_mFI5t7Wd-1">
          <mxGeometry x="-1206.5" y="-2188" width="40" height="40" as="geometry" />
        </mxCell>
        <mxCell id="q_OA1AqWkvl_mFI5t7Wd-139" value="REG" style="rounded=0;whiteSpace=wrap;html=1;" vertex="1" parent="q_OA1AqWkvl_mFI5t7Wd-1">
          <mxGeometry x="-1167" y="-2188" width="37" height="40" as="geometry" />
        </mxCell>
        <mxCell id="q_OA1AqWkvl_mFI5t7Wd-140" style="edgeStyle=orthogonalEdgeStyle;rounded=0;orthogonalLoop=1;jettySize=auto;html=1;exitX=1;exitY=0.5;exitDx=0;exitDy=0;" edge="1" parent="q_OA1AqWkvl_mFI5t7Wd-1" source="q_OA1AqWkvl_mFI5t7Wd-141">
          <mxGeometry relative="1" as="geometry">
            <mxPoint x="-629.5" y="-2167.6666666666665" as="targetPoint" />
            <Array as="points">
              <mxPoint x="-859.5" y="-2167" />
            </Array>
          </mxGeometry>
        </mxCell>
        <mxCell id="q_OA1AqWkvl_mFI5t7Wd-141" value="REG" style="rounded=0;whiteSpace=wrap;html=1;" vertex="1" parent="q_OA1AqWkvl_mFI5t7Wd-1">
          <mxGeometry x="-1130" y="-2188" width="40" height="40" as="geometry" />
        </mxCell>
        <mxCell id="q_OA1AqWkvl_mFI5t7Wd-142" value="Nr" style="text;html=1;resizable=0;points=[];autosize=1;align=left;verticalAlign=top;spacingTop=-4;" vertex="1" parent="q_OA1AqWkvl_mFI5t7Wd-1">
          <mxGeometry x="-726" y="-2198" width="30" height="20" as="geometry" />
        </mxCell>
        <mxCell id="q_OA1AqWkvl_mFI5t7Wd-143" value="REG" style="rounded=0;whiteSpace=wrap;html=1;" vertex="1" parent="q_OA1AqWkvl_mFI5t7Wd-1">
          <mxGeometry x="-1357.5" y="-2258" width="40" height="40" as="geometry" />
        </mxCell>
        <mxCell id="q_OA1AqWkvl_mFI5t7Wd-144" value="REG" style="rounded=0;whiteSpace=wrap;html=1;" vertex="1" parent="q_OA1AqWkvl_mFI5t7Wd-1">
          <mxGeometry x="-1318" y="-2258" width="37" height="40" as="geometry" />
        </mxCell>
        <mxCell id="q_OA1AqWkvl_mFI5t7Wd-145" value="REG" style="rounded=0;whiteSpace=wrap;html=1;" vertex="1" parent="q_OA1AqWkvl_mFI5t7Wd-1">
          <mxGeometry x="-1281" y="-2258" width="40" height="40" as="geometry" />
        </mxCell>
        <mxCell id="q_OA1AqWkvl_mFI5t7Wd-146" value="REG" style="rounded=0;whiteSpace=wrap;html=1;" vertex="1" parent="q_OA1AqWkvl_mFI5t7Wd-1">
          <mxGeometry x="-1241.5" y="-2258" width="37" height="40" as="geometry" />
        </mxCell>
        <mxCell id="q_OA1AqWkvl_mFI5t7Wd-147" value="REG" style="rounded=0;whiteSpace=wrap;html=1;" vertex="1" parent="q_OA1AqWkvl_mFI5t7Wd-1">
          <mxGeometry x="-1207.5" y="-2258" width="40" height="40" as="geometry" />
        </mxCell>
        <mxCell id="q_OA1AqWkvl_mFI5t7Wd-148" value="REG" style="rounded=0;whiteSpace=wrap;html=1;" vertex="1" parent="q_OA1AqWkvl_mFI5t7Wd-1">
          <mxGeometry x="-1168" y="-2258" width="37" height="40" as="geometry" />
        </mxCell>
        <mxCell id="q_OA1AqWkvl_mFI5t7Wd-149" style="edgeStyle=orthogonalEdgeStyle;rounded=0;orthogonalLoop=1;jettySize=auto;html=1;exitX=1;exitY=0.5;exitDx=0;exitDy=0;" edge="1" parent="q_OA1AqWkvl_mFI5t7Wd-1" source="q_OA1AqWkvl_mFI5t7Wd-150">
          <mxGeometry relative="1" as="geometry">
            <mxPoint x="-629.5" y="-2238" as="targetPoint" />
          </mxGeometry>
        </mxCell>
        <mxCell id="q_OA1AqWkvl_mFI5t7Wd-150" value="REG" style="rounded=0;whiteSpace=wrap;html=1;" vertex="1" parent="q_OA1AqWkvl_mFI5t7Wd-1">
          <mxGeometry x="-1131" y="-2258" width="40" height="40" as="geometry" />
        </mxCell>
        <mxCell id="q_OA1AqWkvl_mFI5t7Wd-151" value="" style="endArrow=classic;html=1;entryX=0;entryY=0.5;entryDx=0;entryDy=0;" edge="1" parent="q_OA1AqWkvl_mFI5t7Wd-1" target="q_OA1AqWkvl_mFI5t7Wd-143">
          <mxGeometry width="50" height="50" relative="1" as="geometry">
            <mxPoint x="-1639.5" y="-2238" as="sourcePoint" />
            <mxPoint x="-1659.5" y="-2268" as="targetPoint" />
          </mxGeometry>
        </mxCell>
        <mxCell id="q_OA1AqWkvl_mFI5t7Wd-152" value="start_in" style="text;html=1;resizable=0;points=[];autosize=1;align=left;verticalAlign=top;spacingTop=-4;" vertex="1" parent="q_OA1AqWkvl_mFI5t7Wd-1">
          <mxGeometry x="-1639.5" y="-2270" width="50" height="20" as="geometry" />
        </mxCell>
        <mxCell id="q_OA1AqWkvl_mFI5t7Wd-153" value="start_out" style="text;html=1;resizable=0;points=[];autosize=1;align=left;verticalAlign=top;spacingTop=-4;" vertex="1" parent="q_OA1AqWkvl_mFI5t7Wd-1">
          <mxGeometry x="-731" y="-2258" width="60" height="20" as="geometry" />
        </mxCell>
        <mxCell id="q_OA1AqWkvl_mFI5t7Wd-154" style="edgeStyle=orthogonalEdgeStyle;rounded=0;orthogonalLoop=1;jettySize=auto;html=1;exitX=1;exitY=0.5;exitDx=0;exitDy=0;entryX=0;entryY=0.5;entryDx=0;entryDy=0;" edge="1" parent="q_OA1AqWkvl_mFI5t7Wd-1" source="q_OA1AqWkvl_mFI5t7Wd-155" target="q_OA1AqWkvl_mFI5t7Wd-158">
          <mxGeometry relative="1" as="geometry" />
        </mxCell>
        <mxCell id="q_OA1AqWkvl_mFI5t7Wd-155" value="CMP" style="rounded=0;whiteSpace=wrap;html=1;" vertex="1" parent="q_OA1AqWkvl_mFI5t7Wd-1">
          <mxGeometry x="-1113" y="-2073" width="47" height="92" as="geometry" />
        </mxCell>
        <mxCell id="q_OA1AqWkvl_mFI5t7Wd-156" style="edgeStyle=orthogonalEdgeStyle;rounded=0;orthogonalLoop=1;jettySize=auto;html=1;exitX=1;exitY=0.5;exitDx=0;exitDy=0;entryX=0;entryY=0.25;entryDx=0;entryDy=0;" edge="1" parent="q_OA1AqWkvl_mFI5t7Wd-1" source="q_OA1AqWkvl_mFI5t7Wd-155" target="q_OA1AqWkvl_mFI5t7Wd-155">
          <mxGeometry relative="1" as="geometry">
            <Array as="points">
              <mxPoint x="-1047" y="-2027" />
              <mxPoint x="-1047" y="-2101" />
              <mxPoint x="-1168" y="-2101" />
              <mxPoint x="-1168" y="-2050" />
            </Array>
          </mxGeometry>
        </mxCell>
        <mxCell id="q_OA1AqWkvl_mFI5t7Wd-157" style="edgeStyle=orthogonalEdgeStyle;rounded=0;orthogonalLoop=1;jettySize=auto;html=1;exitX=1;exitY=0.5;exitDx=0;exitDy=0;" edge="1" parent="q_OA1AqWkvl_mFI5t7Wd-1" source="q_OA1AqWkvl_mFI5t7Wd-158">
          <mxGeometry relative="1" as="geometry">
            <mxPoint x="-688" y="-2026.655172413793" as="targetPoint" />
          </mxGeometry>
        </mxCell>
        <mxCell id="q_OA1AqWkvl_mFI5t7Wd-158" value="REG" style="rounded=0;whiteSpace=wrap;html=1;" vertex="1" parent="q_OA1AqWkvl_mFI5t7Wd-1">
          <mxGeometry x="-1025" y="-2047" width="37" height="40" as="geometry" />
        </mxCell>
        <mxCell id="q_OA1AqWkvl_mFI5t7Wd-159" value="H_max_out" style="text;html=1;resizable=0;points=[];autosize=1;align=left;verticalAlign=top;spacingTop=-4;" vertex="1" parent="q_OA1AqWkvl_mFI5t7Wd-1">
          <mxGeometry x="-779" y="-2050" width="80" height="20" as="geometry" />
        </mxCell>
        <mxCell id="q_OA1AqWkvl_mFI5t7Wd-160" value="SUB" style="rounded=0;whiteSpace=wrap;html=1;fillColor=#d5e8d4;strokeColor=#82b366;" vertex="1" parent="q_OA1AqWkvl_mFI5t7Wd-1">
          <mxGeometry x="-1266.5" y="-1753" width="56" height="75.5" as="geometry" />
        </mxCell>
        <mxCell id="q_OA1AqWkvl_mFI5t7Wd-161" value="SUB" style="rounded=0;whiteSpace=wrap;html=1;fillColor=#d5e8d4;strokeColor=#82b366;" vertex="1" parent="q_OA1AqWkvl_mFI5t7Wd-1">
          <mxGeometry x="-1265.5" y="-1297.83" width="56" height="75.5" as="geometry" />
        </mxCell>
        <mxCell id="q_OA1AqWkvl_mFI5t7Wd-162" value="SUB" style="rounded=0;whiteSpace=wrap;html=1;fillColor=#d5e8d4;strokeColor=#82b366;" vertex="1" parent="q_OA1AqWkvl_mFI5t7Wd-1">
          <mxGeometry x="-1265" y="-1579" width="56" height="75.5" as="geometry" />
        </mxCell>
        <mxCell id="q_OA1AqWkvl_mFI5t7Wd-163" value="SUB" style="rounded=0;whiteSpace=wrap;html=1;fillColor=#d5e8d4;strokeColor=#82b366;" vertex="1" parent="q_OA1AqWkvl_mFI5t7Wd-1">
          <mxGeometry x="-1267" y="-1665" width="56" height="75.5" as="geometry" />
        </mxCell>
        <mxCell id="GER5J6CCJ1YH0OZn3ZSL-10" style="edgeStyle=orthogonalEdgeStyle;rounded=0;orthogonalLoop=1;jettySize=auto;html=1;exitX=1;exitY=0.5;exitDx=0;exitDy=0;entryX=0;entryY=0.75;entryDx=0;entryDy=0;" edge="1" parent="q_OA1AqWkvl_mFI5t7Wd-1" source="q_OA1AqWkvl_mFI5t7Wd-164" target="q_OA1AqWkvl_mFI5t7Wd-72">
          <mxGeometry relative="1" as="geometry">
            <Array as="points">
              <mxPoint x="-1182.5" y="-1354" />
              <mxPoint x="-1182.5" y="-1392" />
            </Array>
          </mxGeometry>
        </mxCell>
        <mxCell id="q_OA1AqWkvl_mFI5t7Wd-164" value="SUB" style="rounded=0;whiteSpace=wrap;html=1;fillColor=#d5e8d4;strokeColor=#82b366;" vertex="1" parent="q_OA1AqWkvl_mFI5t7Wd-1">
          <mxGeometry x="-1265.5" y="-1391.33" width="56" height="75.5" as="geometry" />
        </mxCell>
        <mxCell id="GER5J6CCJ1YH0OZn3ZSL-1" value="E1(i, j+1)/7clk" style="text;html=1;resizable=0;points=[];autosize=1;align=left;verticalAlign=top;spacingTop=-4;" vertex="1" parent="q_OA1AqWkvl_mFI5t7Wd-1">
          <mxGeometry x="-734" y="-1574.5" width="90" height="20" as="geometry" />
        </mxCell>
        <mxCell id="GER5J6CCJ1YH0OZn3ZSL-2" value="REG" style="rounded=0;whiteSpace=wrap;html=1;" vertex="1" parent="q_OA1AqWkvl_mFI5t7Wd-1">
          <mxGeometry x="-1423.5" y="-1404.17" width="40" height="40" as="geometry" />
        </mxCell>
        <mxCell id="GER5J6CCJ1YH0OZn3ZSL-8" style="edgeStyle=orthogonalEdgeStyle;rounded=0;orthogonalLoop=1;jettySize=auto;html=1;exitX=1;exitY=0.5;exitDx=0;exitDy=0;entryX=0;entryY=0.25;entryDx=0;entryDy=0;" edge="1" parent="q_OA1AqWkvl_mFI5t7Wd-1" source="GER5J6CCJ1YH0OZn3ZSL-3" target="q_OA1AqWkvl_mFI5t7Wd-164">
          <mxGeometry relative="1" as="geometry" />
        </mxCell>
        <mxCell id="GER5J6CCJ1YH0OZn3ZSL-3" value="REG" style="rounded=0;whiteSpace=wrap;html=1;" vertex="1" parent="q_OA1AqWkvl_mFI5t7Wd-1">
          <mxGeometry x="-1383.5" y="-1404.17" width="40" height="40" as="geometry" />
        </mxCell>
        <mxCell id="GER5J6CCJ1YH0OZn3ZSL-4" value="REG" style="rounded=0;whiteSpace=wrap;html=1;" vertex="1" parent="q_OA1AqWkvl_mFI5t7Wd-1">
          <mxGeometry x="-1423.5" y="-1300.17" width="40" height="40" as="geometry" />
        </mxCell>
        <mxCell id="GER5J6CCJ1YH0OZn3ZSL-5" value="REG" style="rounded=0;whiteSpace=wrap;html=1;" vertex="1" parent="q_OA1AqWkvl_mFI5t7Wd-1">
          <mxGeometry x="-1383.5" y="-1300.17" width="40" height="40" as="geometry" />
        </mxCell>
        <mxCell id="GER5J6CCJ1YH0OZn3ZSL-13" value="&lt;meta charset=&quot;utf-8&quot;&gt;&lt;span style=&quot;color: rgb(0, 0, 0); font-family: helvetica; font-size: 12px; font-style: normal; font-weight: 400; letter-spacing: normal; text-align: left; text-indent: 0px; text-transform: none; word-spacing: 0px; background-color: rgb(248, 249, 250); display: inline; float: none;&quot;&gt;q1 + e1&lt;/span&gt;" style="text;whiteSpace=wrap;html=1;" vertex="1" parent="q_OA1AqWkvl_mFI5t7Wd-1">
          <mxGeometry x="-1366.5" y="-1718" width="70" height="30" as="geometry" />
        </mxCell>
        <mxCell id="GER5J6CCJ1YH0OZn3ZSL-14" value="" style="shape=xor;whiteSpace=wrap;html=1;" vertex="1" parent="q_OA1AqWkvl_mFI5t7Wd-1">
          <mxGeometry x="-949.5" y="-1881" width="60" height="93" as="geometry" />
        </mxCell>
      </root>
    </mxGraphModel>
  </diagram>
</mxfile>
